<svg width="379" height="106" viewBox="0 0 379 106" fill="none" xmlns="http://www.w3.org/2000/svg">
<path d="M55.6209 0.00183441C58.8238 0.116645 98.001 10.9376 100.32 13.3671C102.64 15.7982 112.824 48.2757 112.619 54.3143C112.413 60.3526 98.3062 91.4284 95.3845 94.9227C92.463 98.4168 63.0441 104.989 58.2429 105.053C55.7391 105.086 44.412 102.361 33.6228 99.3134C35.9142 95.5457 37.9484 90.5004 39.5925 83.6659C42.5925 84.5797 47.2426 85.6714 52.2146 86.3104C64.896 87.9401 76.6637 86.3874 84.533 79.7606C92.4309 73.1093 96.2583 61.475 93.3386 43.2929C92.2369 36.432 89.7629 32.1773 87.5027 29.2919C80.5695 20.4413 69.4046 18.2658 59.8172 20.2128C54.0182 21.3907 48.5748 24.0808 44.3025 28.0272C36.0332 24.925 27.1827 25.2986 20.3494 32.2548C18.0368 34.6089 13.5533 39.8884 15.823 48.4061C17.0303 52.9356 19.7703 56.823 20.5593 57.9403C22.5512 60.7611 24.9643 63.5915 27.2605 66.247C29.5652 68.9122 31.7438 71.3913 33.3035 73.5399C34.0955 74.6312 34.6372 75.4584 34.9871 76.0575C35.3497 76.6784 35.4747 77.0026 35.4939 77.1122C35.4939 77.1121 35.496 77.1259 35.4978 77.16C35.4996 77.1943 35.5005 77.2399 35.5008 77.2968C35.5012 77.4108 35.498 77.5601 35.491 77.7391C35.4769 78.097 35.4475 78.5623 35.407 79.0829C35.3259 80.1246 35.1985 81.3759 35.0496 82.4227C34.2039 88.3658 31.0098 94.5467 28.8914 97.9442C20.8699 95.5659 13.9883 93.2101 12.5134 91.9823C8.83887 88.9226 1.1505 67.6991 0.435321 64.9598C-0.279613 62.2213 -0.140311 37.2902 1.04958 33.8427C2.24064 30.3939 17.7152 10.931 21.9304 8.04871C26.1467 5.16628 52.417 -0.112726 55.6209 0.00183441ZM32.8709 91.4179C32.8465 91.4742 32.8231 91.5308 32.7986 91.5868C32.8231 91.5308 32.8465 91.4742 32.8709 91.4179ZM33.1892 90.6669C33.1657 90.7239 33.1426 90.781 33.1189 90.8378C33.1426 90.781 33.1657 90.7239 33.1892 90.6669ZM33.4871 89.9266C33.4703 89.9693 33.4541 90.0121 33.4373 90.0546C33.4541 90.0121 33.4704 89.9693 33.4871 89.9266ZM35.1726 84.5233L35.1433 84.6454C35.1667 84.5422 35.1895 84.439 35.2117 84.3358C35.1983 84.3982 35.1865 84.461 35.1726 84.5233ZM35.3308 83.7528C35.314 83.8404 35.2959 83.9279 35.2781 84.0155C35.2959 83.9279 35.3139 83.8404 35.3308 83.7528ZM49.034 30.2011C54.8111 25.7959 62.4652 23.7189 69.3884 24.4511C73.6465 24.9014 78.2578 26.4636 82.0281 29.829C83.8645 31.4679 87.8533 35.5428 89.1179 43.993C90.2361 51.4644 90.7125 61.2408 86.9041 68.7577C82.6126 77.2273 74.136 80.167 65.5525 80.6708C56.9727 81.1743 48.4106 79.2311 44.1687 78.0624C42.5434 77.6146 41.1925 77.1774 40.3591 76.8954C39.9067 74.3813 38.5145 71.7842 36.7156 69.1581C34.841 66.4215 32.482 63.5891 30.2009 60.7352C26.2594 55.8039 25.151 54.0007 24.072 52.2411C21.0232 47.2687 20.2957 43.6544 21.8054 40.5292C22.8071 38.4562 24.7747 36.695 25.5222 36.0731C29.676 32.6186 34.7343 32.0967 39.8103 33.3192C35.5167 39.879 33.9205 48.471 36.9138 58.4325C39.8717 68.2746 49.7232 72.3085 59.364 71.6083C71.336 70.7387 82.7501 62.6658 82.1463 49.1161C81.9094 43.7999 80.0936 40.9862 79.8201 40.5409C77.7151 37.1144 74.4905 35.5884 70.8631 35.4511C67.3656 35.3188 63.4949 36.4752 59.8367 38.4208C58.8217 37.3838 57.757 36.3937 56.6707 35.4716C54.3006 33.4599 51.7233 31.6654 49.034 30.2011ZM35.906 79.122L35.8357 79.9423C35.8857 79.3971 35.9256 78.8773 35.9539 78.4296C35.9402 78.6453 35.925 78.8779 35.906 79.122ZM46.6677 79.2177C46.5676 79.1938 46.4688 79.169 46.3709 79.1454C46.4688 79.169 46.5676 79.1939 46.6677 79.2177ZM44.865 78.7665C44.5731 78.6899 44.2962 78.6165 44.0359 78.5448C43.5777 78.4185 43.1408 78.293 42.7312 78.1718V78.1708C43.1409 78.2921 43.5776 78.4175 44.0359 78.5438C44.2963 78.6156 44.5731 78.6896 44.865 78.7665ZM35.9334 76.8348C35.9602 76.9109 35.977 76.975 35.9861 77.0272C35.9951 77.0794 36.0002 77.1707 36.0008 77.2948L35.9998 77.2958C35.9995 77.2336 35.9982 77.1796 35.9959 77.1346C35.9935 77.0896 35.9906 77.0534 35.9861 77.0272C35.968 76.9229 35.9161 76.7721 35.824 76.5702V76.5692C35.8702 76.6704 35.9067 76.7587 35.9334 76.8348ZM37.8914 71.9589C37.9858 72.1249 38.0775 72.2907 38.1668 72.4559H38.1658C38.0765 72.2907 37.9848 72.1249 37.8904 71.9589H37.8914ZM44.3533 34.8593C48.1879 36.5198 51.8316 38.9861 54.8396 41.6825C52.6069 43.4447 50.5803 45.5195 49.2049 47.7147C47.7346 50.0616 46.9758 52.6038 47.5945 55.0604L47.7117 55.4716C48.3497 57.4755 49.7654 58.7134 51.2136 59.4784C52.7493 60.2896 54.3528 60.5878 55.1902 60.7245C59.6545 61.4531 61.9705 60.7828 62.5984 60.6024C65.5483 59.7544 66.9535 57.7543 67.5115 55.9794C68.1724 53.8766 67.934 51.5514 67.1111 49.2069C66.3473 47.0311 65.0703 44.8084 63.489 42.6757C65.8248 41.6294 68.298 40.948 70.4851 40.9745C72.8286 41.003 74.7991 41.8368 75.992 43.869C76.0073 43.895 77.2045 45.6871 77.3767 49.4042C77.6061 54.3562 75.5373 58.2171 72.3347 60.993C69.1201 63.7791 64.7592 65.472 60.4519 66.0302C52.7732 67.0253 44.6613 64.5343 41.7771 58.1454C41.0642 56.5658 40.4471 53.9499 40.1707 52.0985C39.1348 45.1612 40.9418 39.3478 44.3533 34.8593ZM41.6961 65.4891C41.6431 65.437 41.5892 65.3858 41.5369 65.3329L41.2478 65.0331C41.3941 65.1885 41.5443 65.3398 41.6961 65.4891ZM92.9119 64.0184C92.8373 64.3725 92.7579 64.7217 92.6746 65.0663C92.7123 64.9104 92.749 64.7535 92.7849 64.5956L92.9119 64.0184ZM63.1297 59.8964C63.0973 59.9088 63.0648 59.9213 63.032 59.9335C63.0648 59.9214 63.0973 59.9088 63.1297 59.8964ZM93.6658 58.6386C93.6613 58.6963 93.6568 58.7539 93.6521 58.8114C93.6568 58.7539 93.6613 58.6963 93.6658 58.6386ZM41.3211 58.3505V58.3514C41.2748 58.249 41.2287 58.1422 41.1834 58.0321V58.0311C41.2287 58.1413 41.2748 58.2479 41.3211 58.3505ZM58.5808 45.5262C60.2201 47.4805 61.3403 49.2789 62.0027 50.7548C62.3536 51.5366 62.5713 52.2184 62.6736 52.7772C62.7774 53.3446 62.7547 53.7438 62.6707 53.9882C62.5743 54.2677 62.221 54.6386 61.3591 54.9081C60.5144 55.1721 59.2708 55.3063 57.5886 55.1874C53.9009 54.9266 52.8766 54.049 52.7039 53.913C52.457 53.7186 52.3636 53.5803 52.324 53.4511C52.2819 53.3132 52.2758 53.101 52.3787 52.7079L52.4314 52.5233C52.7245 51.5849 53.4317 50.4273 54.5056 49.1893C55.5638 47.9695 56.9539 46.7027 58.5808 45.5262ZM39.5838 51.497C39.6118 51.7207 39.6428 51.9457 39.6765 52.1718C39.7114 52.4055 39.7514 52.652 39.7966 52.9071L39.947 53.6962C39.8376 53.1575 39.7454 52.6403 39.6756 52.1727L39.5838 51.497ZM93.7244 51.37L93.7605 52.118C93.7462 51.782 93.7278 51.4432 93.7078 51.1014C93.7129 51.1912 93.7195 51.2807 93.7244 51.37ZM93.6795 50.6132C93.6853 50.7015 93.6897 50.7898 93.6951 50.8778C93.674 50.5372 93.6504 50.1938 93.6238 49.8475L93.6248 49.8466C93.6446 50.1037 93.6628 50.3592 93.6795 50.6132ZM56.0935 46.8807C56.1297 46.8484 56.1663 46.8164 56.2029 46.7841C56.1663 46.8164 56.1297 46.8484 56.0935 46.8807ZM65.0281 45.9169C65.1941 46.2058 65.3527 46.4951 65.5037 46.7841C65.3529 46.4953 65.194 46.2065 65.0281 45.9179V45.9169ZM39.5144 45.7128C39.4942 45.905 39.4766 46.0984 39.4607 46.2929C39.4758 46.1083 39.4912 45.9246 39.5105 45.7421L39.5144 45.7128ZM93.0388 44.6327C92.9779 44.2164 92.9125 43.7966 92.8445 43.3729L92.8455 43.372C92.9135 43.7958 92.9782 44.2161 93.0388 44.6327ZM57.3035 45.8632C57.3273 45.8443 57.3509 45.8253 57.3748 45.8065C57.3509 45.8253 57.3273 45.8443 57.3035 45.8632ZM57.9705 45.3514C57.9787 45.3453 57.9867 45.339 57.9949 45.3329L58.0427 45.2977C58.0186 45.3156 57.9945 45.3335 57.9705 45.3514ZM20.5642 43.2675C20.6044 42.6951 20.7026 42.1387 20.8601 41.5956L20.9627 41.2704C20.89 41.4861 20.8269 41.7038 20.7732 41.9237C20.7194 42.1441 20.6752 42.3667 20.6404 42.5917C20.6059 42.8145 20.5803 43.0397 20.5642 43.2675ZM40.3982 41.4305C40.4055 41.4071 40.4124 41.3836 40.4197 41.3602C40.4124 41.3836 40.4055 41.4071 40.3982 41.4305ZM40.5925 40.8309C40.6132 40.7705 40.6349 40.7104 40.656 40.6503C40.6349 40.7104 40.6132 40.7705 40.5925 40.8309ZM40.7547 40.3798C40.8222 40.1954 40.8924 40.0125 40.9646 39.8309C40.8924 40.0125 40.8223 40.1954 40.7547 40.3798ZM21.5642 39.9052C21.4909 40.039 21.4214 40.1746 21.3552 40.3114H21.3543C21.4204 40.1745 21.4908 40.0391 21.5642 39.9052ZM41.0291 39.6688C41.0493 39.6191 41.0681 39.5689 41.0886 39.5194L41.3133 38.9999C41.2147 39.2205 41.1206 39.4438 41.0291 39.6688ZM21.9734 39.2264C21.9368 39.2824 21.9006 39.3387 21.865 39.3954C21.8906 39.3546 21.916 39.3137 21.9422 39.2733L21.9734 39.2264ZM22.3601 38.6698L22.1629 38.9442C22.2875 38.765 22.4166 38.5906 22.5476 38.4208C22.4845 38.5026 22.422 38.5857 22.3601 38.6698ZM22.5857 38.372C22.6602 38.2763 22.7348 38.182 22.8103 38.0897C22.7349 38.182 22.6601 38.2763 22.5857 38.372ZM42.6834 36.411C42.708 36.3712 42.7327 36.3315 42.7576 36.2919C42.7328 36.3315 42.7079 36.3712 42.6834 36.411ZM56.3474 35.8534C56.5436 36.0199 56.7368 36.1913 56.9314 36.3622C56.7367 36.1912 56.5428 36.02 56.3465 35.8534C56.2133 35.7404 56.0795 35.6281 55.9451 35.5165C56.0797 35.6282 56.2141 35.7402 56.3474 35.8534ZM25.6267 35.3485V35.3475V35.3485ZM36.6004 32.287C37.0933 32.3281 37.5878 32.3873 38.0828 32.4647C37.5878 32.3874 37.0933 32.3281 36.6004 32.287ZM35.1902 32.2216C35.6352 32.2255 36.082 32.2454 36.53 32.2811C36.082 32.2453 35.6352 32.2256 35.1902 32.2216ZM43.6443 28.3163C43.9026 28.4084 44.1605 28.5042 44.4177 28.6034V28.6044C44.1604 28.5051 43.9027 28.4087 43.6443 28.3163ZM45.6394 27.5145V27.5136V27.5145ZM77.5896 22.2831C77.733 22.3448 77.8759 22.4081 78.0183 22.4725H78.0174C77.8749 22.4081 77.7321 22.3448 77.5886 22.2831H77.5896ZM56.8113 21.4911C56.9472 21.4496 57.083 21.4079 57.2195 21.368L57.7537 21.2177C57.438 21.304 57.1239 21.3955 56.8113 21.4911ZM62.158 20.328C61.4032 20.4272 60.655 20.5529 59.9158 20.703C59.7341 20.7399 59.5528 20.7783 59.3718 20.8182L58.8299 20.9423C59.1905 20.8564 59.553 20.7759 59.9168 20.702C60.4709 20.5895 61.0302 20.4911 61.5935 20.4071L62.158 20.328ZM45.7439 78.9921C45.4535 78.9195 45.175 78.8479 44.909 78.7782C45.1749 78.8481 45.4536 78.9192 45.7439 78.9921ZM20.5466 43.62C20.5498 43.5087 20.5558 43.3981 20.5633 43.288L20.5466 43.62ZM20.5642 43.2733L20.5633 43.288C20.5637 43.2811 20.5637 43.2743 20.5642 43.2675C20.5641 43.2694 20.5644 43.2714 20.5642 43.2733ZM21.5642 39.9052C21.6302 39.7849 21.6993 39.6662 21.7703 39.5487C21.6993 39.6662 21.6301 39.7849 21.5642 39.9052Z" fill="#D6591F"/>
<path d="M178.463 34.2665C179.573 34.2665 184.545 27.8293 192.802 27.8293C202.836 27.8293 206.476 34.1333 206.476 44.0333C206.476 50.6037 205.41 58.3283 205.41 61.6135C205.41 63.8332 206.076 66.1418 207.497 67.3848C209.051 68.8498 210.471 69.1606 210.471 71.2915C210.471 73.0673 209.184 74.266 206.387 74.266C203.857 74.266 201.149 73.9996 198.796 73.9996C195.555 73.9996 194.667 74.266 191.337 74.266C189.295 74.266 188.496 72.9785 188.496 71.4691C188.496 69.3825 189.162 67.6512 189.562 66.5413C190.449 64.0108 191.249 55.9754 191.249 48.9611C191.249 41.414 189.073 38.0844 185.122 38.0844C183.08 38.0844 179.306 40.0822 179.306 45.8091C179.306 52.3351 179.173 58.3283 179.173 61.6135C179.173 63.8332 179.351 66.053 180.638 67.3848C182.103 68.8498 183.258 69.1606 183.258 71.2915C183.258 73.0673 182.015 74.266 179.218 74.266C176.643 74.266 174.689 73.9996 172.337 73.9996C169.096 73.9996 168.208 74.266 164.878 74.266C162.836 74.266 162.037 72.9785 162.037 71.4691C162.037 69.3825 162.747 67.6512 163.102 66.5413C163.99 64.0108 164.701 55.9754 164.701 48.9611C164.701 41.414 162.525 38.0844 158.574 38.0844C156.399 38.0844 152.759 40.3485 152.759 45.4983V60.1929C152.759 64.0996 152.981 65.5646 154.224 67.1184C155.467 68.6722 156.932 69.0274 156.932 71.2915C156.932 73.0673 155.955 74.266 153.247 74.266C150.583 74.266 148.097 73.9996 145.7 73.9996C142.548 73.9996 139.485 74.266 136.022 74.266C133.846 74.266 133.047 72.9785 133.047 71.4691C133.047 69.2938 134.779 68.0951 135.533 67.1628C137.664 64.4104 137.931 61.7911 137.931 59.4826V43.323C137.931 40.4373 136.377 39.2387 135.311 38.6615C134.557 38.1732 133.403 37.5517 133.403 35.9979C133.403 33.423 136.777 33.0234 140.683 31.2476C145.744 28.9391 146.543 27.9625 148.142 27.9625C150.095 27.9625 151.205 28.7172 151.871 31.3808C152.181 32.8015 152.492 34.1333 153.114 34.1333C154.179 34.1333 158.974 27.8293 166.299 27.8293C170.96 27.8293 174.201 29.4275 176.465 32.2243C177.486 33.4674 177.886 34.2665 178.463 34.2665Z" fill="#1E1E1E"/>
<path d="M250.854 50.2929C245.882 52.8678 236.515 53.9776 232.031 54.3328C231.188 54.3772 230.833 54.5548 230.833 55.1763C230.833 58.0176 233.763 62.7678 240.955 62.7678C246.815 62.7678 250.233 60.0597 252.497 57.9732C253.119 57.4848 253.829 57.1297 254.362 57.1297C255.294 57.1297 255.871 58.0176 255.871 59.9265C255.871 66.1861 248.59 75.0207 235.982 75.0207C221.865 75.0207 213.474 65.6534 213.474 52.4238C213.474 39.1943 222.93 27.8293 237.314 27.8293C250.366 27.8293 255.072 37.6849 255.072 43.8113C255.072 47.0965 253.341 49.0055 250.854 50.2929ZM240.999 41.3252C240.999 38.0844 238.868 35.5983 235.76 35.5983C231.454 35.5983 228.746 40.0378 228.746 44.5216C228.746 46.4306 229.368 47.5404 230.699 47.5404C232.963 47.5404 238.158 46.253 240.155 43.8113C240.733 43.101 240.999 42.3463 240.999 41.3252Z" fill="#1E1E1E"/>
<path d="M278.895 11.8472C278.895 17.5297 278.496 17.4853 278.496 30.3154V60.1929C278.496 64.0996 279.162 65.5646 280.493 67.1184C281.781 68.6722 283.335 69.0274 283.335 71.2915C283.335 73.0673 282.402 74.266 279.561 74.266C276.942 74.266 273.568 73.9996 271.126 73.9996C267.885 73.9996 264.955 74.266 261.404 74.266C259.184 74.266 258.341 72.9785 258.341 71.4691C258.341 69.2938 260.116 68.0951 260.96 67.1628C263.135 64.4104 263.357 61.7911 263.357 59.4826V23.8782C263.357 21.4809 261.67 20.1934 260.56 19.5719C259.584 18.9504 258.696 18.3288 258.696 16.997C258.696 14.6441 261.936 14.1558 265.932 12.5132C270.416 10.7374 273.568 8.73962 275.743 8.73962C277.563 8.73962 278.895 9.6719 278.895 11.8472Z" fill="#1E1E1E"/>
<path d="M326.955 41.7248C324.558 48.2064 321.406 56.8189 319.408 61.3915C312.26 78.5278 306.977 93.5332 295.524 93.5332C290.196 93.5332 286.156 90.026 286.156 84.6987C286.156 80.0372 289.175 76.5301 292.904 76.5301C294.725 76.5301 295.923 77.418 296.856 78.439C298.232 79.9041 299.164 81.591 300.718 81.591C302.094 81.591 304.092 79.4157 304.092 77.2848C304.092 74.266 298.942 63.8776 296.278 57.396C294.281 52.6014 288.465 38.8391 285.934 36.2198C284.514 34.666 283.271 33.423 283.271 31.4252C283.271 29.6494 284.381 28.4508 286.6 28.4508C289.442 28.4508 291.573 28.7172 294.503 28.7172C297.299 28.7172 300.407 28.4508 303.426 28.4508C305.646 28.4508 306.889 29.1167 306.889 31.8692C306.889 33.6006 304.58 34.8436 304.58 37.4629C304.58 39.0611 305.557 41.9467 307.865 47.3629C309.908 52.2019 311.461 56.2418 312.127 56.2418C313.193 56.2418 314.969 50.1153 316.656 44.6548C317.721 41.5028 317.943 40.1266 317.943 39.2387C317.943 35.11 314.48 33.9113 314.48 31.3364C314.48 29.5163 315.768 28.4508 317.41 28.4508C319.63 28.4508 322.516 28.7172 324.558 28.7172C326.822 28.7172 328.42 28.4508 329.974 28.4508C332.282 28.4508 332.904 29.6494 332.904 31.1145C332.904 34.6216 329.841 33.9113 326.955 41.7248Z" fill="#1E1E1E"/>
<path d="M345.568 49.6714C350.895 47.7624 356.134 47.2297 357.51 46.1642C358.132 45.6759 358.709 44.6104 358.709 41.5028C358.709 37.4629 356.889 34.5328 353.382 34.5328C350.363 34.5328 348.365 37.1521 347.033 41.636C346.234 44.2552 345.08 46.2974 341.706 46.2974C338.065 46.2974 335.002 43.8113 335.002 39.1055C335.002 33.5562 341.573 27.7405 353.426 27.7405C364.125 27.7405 373.981 32.2243 373.981 45.4539C373.981 51.0032 373.537 55.2207 373.537 60.1485C373.537 61.7467 374.025 63.7001 376.067 63.7001C376.822 63.7001 377.31 63.4337 377.976 63.4337C378.553 63.4337 378.953 64.3216 378.953 65.3426C378.953 70.8476 374.247 74.8431 368.431 74.8431C363.903 74.8431 361.417 73.2893 359.908 70.67C359.686 70.3148 359.419 69.8709 359.064 69.8709C358.665 69.8709 358.309 70.2704 357.954 70.6256C355.291 73.1117 350.718 75.0651 346.367 75.0651C338.909 75.0651 333.138 71.2915 333.138 63.8332C333.138 56.8189 337.888 52.5126 345.568 49.6714ZM358.842 57.396C358.842 54.244 358.531 53.6669 358.087 53.6669C356.578 53.6669 354.98 54.022 353.382 54.7324C350.496 55.931 348.321 58.2395 348.321 61.0364C348.321 63.3005 349.786 65.1651 352.494 65.1651C356.889 65.1651 358.842 61.4803 358.842 57.396Z" fill="#1E1E1E"/>
</svg>
