<svg width="698" height="194" viewBox="0 0 698 194" fill="none" xmlns="http://www.w3.org/2000/svg">
<path fill-rule="evenodd" clip-rule="evenodd" d="M102.225 0.00338546C108.113 0.214893 180.109 20.1013 184.374 24.5669C188.636 29.0318 207.356 88.7241 206.979 99.8227C206.601 110.92 180.675 168.032 175.305 174.456C169.935 180.877 115.867 192.956 107.043 193.073C102.409 193.134 81.3306 188.056 61.3771 182.407C65.6324 175.441 69.4166 166.05 72.464 153.236C77.9339 154.934 86.6643 157.01 96.0177 158.212C119.278 161.202 140.76 158.337 155.09 146.27C169.449 134.178 176.484 112.974 171.13 79.6342C169.118 67.1034 164.604 59.3486 160.488 54.0942C147.871 37.9871 127.532 34.0023 110.019 37.559C99.3464 39.7268 89.3405 44.7004 81.5207 51.9926C66.3555 46.2301 50.1745 46.8752 37.6994 59.5747C33.4825 63.8673 25.372 73.4222 29.4855 88.8579C31.6833 97.1032 36.679 104.193 38.1281 106.245C41.7755 111.41 46.1971 116.598 50.4181 121.479C54.6477 126.37 58.6673 130.944 61.547 134.912C63.0075 136.924 64.0109 138.455 64.6632 139.572C65.3289 140.712 65.5964 141.368 65.6457 141.652C65.6543 141.702 65.6632 141.832 65.6642 142.06C65.6652 142.278 65.6587 142.559 65.6457 142.892C65.6195 143.557 65.5671 144.416 65.4923 145.376C65.3428 147.297 65.1075 149.606 64.8322 151.541C63.2751 162.484 57.4312 173.838 53.5177 180.134C38.596 175.721 25.7339 171.329 22.9982 169.051C16.2447 163.428 2.1139 124.42 0.799951 119.387C-0.51385 114.352 -0.257823 68.5369 1.92886 62.1997C4.11571 55.8636 32.5584 20.091 40.3058 14.7934C48.0542 9.49583 96.3382 -0.207618 102.225 0.00338546ZM114.316 149.326C113.911 149.322 113.507 149.317 113.104 149.308C113.507 149.317 113.911 149.322 114.316 149.326ZM117.518 149.303C117.109 149.313 116.701 149.319 116.293 149.324C116.701 149.319 117.109 149.313 117.518 149.303ZM118.907 149.258C118.482 149.275 118.057 149.289 117.632 149.3C118.057 149.289 118.482 149.275 118.907 149.258ZM120.381 149.187C119.956 149.211 119.531 149.233 119.106 149.25C119.531 149.233 119.956 149.211 120.381 149.187ZM122.922 149.003C122.17 149.07 121.417 149.125 120.664 149.17C121.117 149.143 121.57 149.113 122.023 149.079C122.323 149.056 122.622 149.03 122.922 149.003ZM123.81 148.92C123.585 148.943 123.36 148.963 123.135 148.984C123.36 148.963 123.585 148.943 123.81 148.92ZM124.747 148.821C124.536 148.845 124.324 148.867 124.112 148.889C124.324 148.867 124.536 148.845 124.747 148.821ZM89.3507 55.5688C100.112 47.1352 114.536 43.1443 127.571 44.5229C135.463 45.3576 144.026 48.2539 151.035 54.5102C154.459 57.5662 161.858 65.1375 164.2 80.7924C166.257 94.5352 167.155 112.618 160.092 126.558C152.106 142.318 136.341 147.751 120.501 148.681C104.664 149.61 88.8762 146.025 81.0646 143.873C77.9131 143.004 75.3216 142.158 73.8097 141.642C73.0429 137.037 70.49 132.241 67.133 127.34C63.6991 122.327 59.3786 117.141 55.1779 111.885C47.9237 102.809 45.876 99.4817 43.8839 96.2329C38.2596 87.0603 36.8264 80.2484 39.6974 74.3051C41.5798 70.409 45.2576 67.1254 46.6378 65.977C54.561 59.3869 64.2334 58.5237 73.8429 60.9721C65.7777 72.9809 62.701 88.8241 68.2443 107.271C73.6023 125.1 91.4633 132.468 109.072 131.189L110.097 131.105C131.585 129.138 151.633 114.497 150.554 90.2876C150.123 80.6161 146.825 75.5158 146.342 74.729C142.556 68.5667 136.768 65.8222 130.22 65.5747C123.801 65.3321 116.654 67.4846 109.89 71.1284C107.969 69.1509 105.947 67.2646 103.882 65.5122C99.3797 61.6906 94.4707 58.2992 89.3507 55.5688ZM125.672 148.71C125.443 148.739 125.214 148.767 124.985 148.793C125.214 148.767 125.443 148.739 125.672 148.71ZM126.471 148.607C126.3 148.63 126.13 148.652 125.959 148.674C126.13 148.652 126.3 148.63 126.471 148.607ZM66.1378 141.566C66.1461 141.614 66.1531 141.68 66.1574 141.762L66.1642 142.058C66.1632 141.83 66.1545 141.662 66.1378 141.566ZM154.75 135.208C154.901 135.043 155.052 134.877 155.2 134.708L155.701 134.127C155.39 134.496 155.072 134.856 154.75 135.208ZM61.1623 133.555C61.4333 133.914 61.6973 134.268 61.9513 134.618V134.619C61.6972 134.269 61.4334 133.914 61.1623 133.555ZM60.3292 132.471C60.527 132.725 60.7209 132.977 60.9113 133.226C60.7209 132.976 60.5269 132.725 60.3292 132.471ZM59.6759 131.639C59.7257 131.702 59.775 131.764 59.8244 131.827C59.775 131.764 59.7257 131.702 59.6759 131.639ZM105.281 130.829C105.121 130.829 104.961 130.83 104.801 130.829C104.961 130.83 105.121 130.829 105.281 130.829ZM106.083 130.822C105.906 130.825 105.729 130.826 105.552 130.828C105.729 130.826 105.906 130.825 106.083 130.822ZM104.512 130.825C104.35 130.822 104.188 130.821 104.027 130.817C104.188 130.82 104.35 130.823 104.512 130.825ZM106.579 130.813C106.467 130.816 106.355 130.817 106.243 130.819C106.429 130.815 106.615 130.811 106.801 130.805C106.727 130.807 106.653 130.811 106.579 130.813ZM107.398 130.785C107.284 130.789 107.171 130.792 107.058 130.796C107.223 130.79 107.389 130.783 107.555 130.776C107.502 130.778 107.45 130.782 107.398 130.785ZM110.053 130.607C109.714 130.638 109.376 130.666 109.036 130.691C108.612 130.722 108.189 130.745 107.765 130.766C108.189 130.745 108.612 130.721 109.036 130.69L110.053 130.607ZM118.1 129.252C118.069 129.26 118.038 129.268 118.007 129.276C118.038 129.268 118.069 129.26 118.1 129.252ZM119.04 129.012C119.02 129.018 119 129.021 118.98 129.027C119.048 129.009 119.116 128.99 119.185 128.971C119.136 128.984 119.089 128.999 119.04 129.012ZM120.012 128.743C119.966 128.756 119.919 128.768 119.872 128.781C119.937 128.762 120.002 128.745 120.067 128.726C120.048 128.731 120.03 128.737 120.012 128.743ZM121.055 128.429C121.009 128.443 120.964 128.457 120.918 128.471C120.964 128.457 121.009 128.443 121.055 128.429ZM161.783 124.095C161.591 124.551 161.391 125.003 161.184 125.451C161.287 125.227 161.389 125.002 161.488 124.776L161.783 124.095ZM108.532 122.538L107.858 122.582C108.179 122.563 108.5 122.539 108.821 122.514C108.725 122.522 108.629 122.531 108.532 122.538ZM109.879 122.42C109.558 122.453 109.237 122.48 108.916 122.506C109.237 122.48 109.558 122.453 109.879 122.42ZM81.3839 63.5512C88.748 66.6921 95.7341 71.4514 101.439 76.6333C97.2068 79.9168 93.361 83.8067 90.7863 87.9165C88.1172 92.177 86.7793 96.729 87.8781 101.091C88.8816 105.074 91.5497 107.481 94.3185 108.944C97.0784 110.402 99.9706 110.94 101.5 111.19C109.632 112.517 113.824 111.295 114.932 110.977C120.198 109.463 122.688 105.908 123.678 102.757L123.783 102.405C124.83 98.7455 124.394 94.6977 122.946 90.5747C121.511 86.4857 119.07 82.2913 116.037 78.268C120.501 76.2088 125.296 74.8365 129.548 74.8882C133.958 74.9418 137.738 76.5195 140.025 80.4145L140.137 80.5991C140.601 81.3911 142.347 84.7218 142.627 90.7807C143.055 100.026 139.187 107.239 133.217 112.414C127.235 117.599 119.137 120.737 111.156 121.771C96.9664 123.61 81.8113 119.027 76.3986 107.037C75.0653 104.083 73.9247 99.2308 73.4142 95.812C71.4729 82.8121 74.9171 71.9239 81.3839 63.5512ZM125.245 118.165C125.013 118.277 124.78 118.387 124.546 118.494V118.493C124.78 118.386 125.013 118.276 125.245 118.165ZM106.891 111.261C107.274 111.278 107.643 111.288 107.997 111.292C107.82 111.29 107.639 111.287 107.454 111.282L106.891 111.261ZM113.493 110.822C113.307 110.861 113.104 110.902 112.883 110.941C113.104 110.902 113.307 110.861 113.493 110.822ZM113.872 110.74C113.795 110.758 113.714 110.774 113.629 110.792C113.764 110.763 113.889 110.735 114.004 110.707C113.961 110.717 113.918 110.729 113.872 110.74ZM116.152 110.037C115.722 110.206 115.269 110.36 114.793 110.497C114.643 110.54 114.431 110.599 114.154 110.668C114.431 110.598 114.643 110.539 114.793 110.496C115.325 110.343 115.828 110.167 116.302 109.974C116.252 109.994 116.202 110.017 116.152 110.037ZM116.673 109.817C116.594 109.852 116.514 109.886 116.434 109.919C116.514 109.886 116.594 109.852 116.673 109.817ZM117.409 109.465C117.269 109.538 117.127 109.609 116.982 109.678C116.923 109.706 116.863 109.73 116.804 109.757C117.011 109.663 117.213 109.567 117.409 109.465ZM75.174 105.284C75.1358 105.174 75.0993 105.063 75.0617 104.952C75.0992 105.063 75.1358 105.174 75.174 105.284ZM122.545 104.254C122.486 104.376 122.425 104.497 122.36 104.619L122.36 104.62C122.424 104.498 122.486 104.376 122.545 104.254ZM74.8937 104.442C74.8664 104.357 74.8387 104.271 74.8117 104.185C74.8386 104.271 74.8664 104.357 74.8937 104.442ZM122.647 104.04C122.622 104.093 122.596 104.144 122.571 104.197C122.609 104.119 122.645 104.042 122.68 103.964C122.668 103.989 122.658 104.015 122.647 104.04ZM122.858 103.554C122.844 103.586 122.83 103.618 122.817 103.651C122.83 103.618 122.844 103.586 122.858 103.554ZM74.6281 103.581C74.6019 103.493 74.5748 103.405 74.549 103.316C74.5748 103.405 74.6019 103.493 74.6281 103.581ZM123.304 102.266C123.271 102.38 123.237 102.494 123.201 102.607C123.257 102.429 123.309 102.249 123.358 102.069C123.34 102.135 123.323 102.201 123.304 102.266ZM123.608 100.957C123.548 101.283 123.479 101.605 123.397 101.924C123.389 101.955 123.379 101.985 123.371 102.016C123.464 101.667 123.542 101.314 123.608 100.957ZM107.731 83.103C110.901 86.8339 113.065 90.2796 114.335 93.1098C114.99 94.5688 115.403 95.8547 115.599 96.9233C115.796 98.0007 115.763 98.8154 115.575 99.3608C115.334 100.06 114.531 100.802 112.895 101.314C111.275 101.82 108.934 102.067 105.811 101.846C98.9614 101.362 96.9957 99.7232 96.6037 99.4145C96.1179 99.0321 95.8731 98.7129 95.7648 98.3598C95.654 97.9982 95.6612 97.5192 95.8585 96.7651C96.3479 94.8944 97.7329 92.5777 99.8566 90.1294C101.893 87.7818 104.582 85.3448 107.731 83.103ZM123.7 100.398C123.677 100.557 123.651 100.716 123.623 100.874C123.651 100.716 123.677 100.557 123.7 100.398ZM123.853 98.6196C123.845 98.901 123.83 99.1807 123.808 99.4585C123.788 99.6985 123.763 99.9371 123.733 100.174C123.727 100.219 123.719 100.264 123.713 100.309C123.79 99.7537 123.836 99.1903 123.853 98.6196ZM123.86 98.0014C123.861 98.1861 123.858 98.37 123.854 98.5532C123.858 98.37 123.861 98.1861 123.86 98.0014ZM117.591 81.3091C117.747 81.5414 117.902 81.7734 118.053 82.0063C117.902 81.7734 117.747 81.5413 117.591 81.3091ZM117.07 80.5473C117.191 80.721 117.311 80.8948 117.429 81.0688C117.311 80.8948 117.191 80.721 117.07 80.5473ZM116.429 79.6391C116.598 79.8729 116.763 80.1077 116.928 80.3423L116.429 79.6391ZM117.029 77.2778C117.298 77.1628 117.568 77.0515 117.839 76.9419L117.029 77.2778ZM118.017 76.8696C118.145 76.8182 118.274 76.7674 118.402 76.7173C118.274 76.7674 118.145 76.8182 118.017 76.8696ZM118.532 76.6665C118.677 76.6107 118.822 76.5565 118.967 76.5024C118.822 76.5565 118.677 76.6107 118.532 76.6665ZM120.118 76.0913C119.779 76.2067 119.44 76.3267 119.102 76.4516C119.44 76.3267 119.779 76.2067 120.118 76.0913ZM120.245 76.0473C120.398 75.9959 120.551 75.9463 120.704 75.8969C120.551 75.9463 120.398 75.9959 120.245 76.0473ZM120.775 75.8735C120.943 75.8194 121.112 75.7669 121.281 75.7153C121.112 75.7669 120.943 75.8194 120.775 75.8735ZM121.343 75.6967C121.411 75.6762 121.478 75.6554 121.546 75.6352L121.706 75.5893C121.585 75.6247 121.464 75.66 121.343 75.6967ZM98.9845 73.8442C99.024 73.8767 99.0633 73.9093 99.1027 73.9419C99.0633 73.9093 99.024 73.8767 98.9845 73.8442ZM75.6408 50.6196C75.9748 50.7081 76.309 50.7987 76.6427 50.894H76.6417C76.3084 50.7988 75.9745 50.708 75.6408 50.6196ZM74.6164 50.3589C74.8623 50.4187 75.1079 50.4817 75.3537 50.5454C75.1079 50.4817 74.8623 50.4188 74.6164 50.3589ZM73.5802 50.1186C73.8283 50.1737 74.0764 50.2306 74.3244 50.2895C74.0764 50.2306 73.8283 50.1737 73.5802 50.1186ZM71.6193 49.7221C72.0981 49.8083 72.577 49.9025 73.0558 50.0034C73.1307 50.0192 73.2055 50.0361 73.2804 50.0522C72.6323 49.9125 71.9842 49.7859 71.3361 49.6733C71.4304 49.6896 71.5249 49.7052 71.6193 49.7221ZM70.9015 49.5991C70.9937 49.6142 71.0857 49.6304 71.1779 49.646C70.9158 49.6013 70.6537 49.5601 70.3917 49.52C70.5616 49.546 70.7317 49.5712 70.9015 49.5991ZM68.1212 49.229C68.785 49.2966 69.4495 49.3794 70.1144 49.477C69.4495 49.3793 68.785 49.2967 68.1212 49.229ZM142.434 48.1782C142.556 48.2375 142.679 48.2962 142.801 48.3569C142.679 48.2963 142.556 48.2374 142.434 48.1782ZM141.616 47.7934C141.752 47.8554 141.888 47.9164 142.023 47.9799C141.888 47.9164 141.752 47.8554 141.616 47.7934ZM140.836 47.4458C140.957 47.498 141.078 47.5495 141.198 47.603C141.078 47.5495 140.957 47.498 140.836 47.4458ZM139.986 47.0874C140.138 47.1496 140.291 47.2127 140.444 47.2768C140.291 47.2126 140.138 47.1496 139.986 47.0874ZM139.257 46.7993C139.37 46.8429 139.483 46.8874 139.596 46.9321C139.483 46.8874 139.37 46.8429 139.257 46.7993ZM137.562 46.186C137.637 46.2113 137.711 46.2364 137.786 46.2622C137.711 46.2364 137.637 46.2113 137.562 46.186ZM127.624 44.0258C127.205 43.9815 126.785 43.942 126.363 43.9087C126.785 43.9418 127.205 43.9806 127.624 44.0249C127.873 44.0512 128.123 44.0804 128.373 44.1108C128.123 44.0804 127.873 44.0522 127.624 44.0258ZM117.382 44.0014L116.735 44.0669C117.138 44.0231 117.54 43.9843 117.943 43.9497C117.756 43.9658 117.569 43.9834 117.382 44.0014ZM118.084 43.938C118.25 43.9241 118.417 43.9112 118.583 43.8989C118.417 43.9113 118.25 43.924 118.084 43.938ZM118.89 43.8774C119.009 43.8693 119.128 43.8603 119.247 43.853C119.128 43.8604 119.009 43.8692 118.89 43.8774ZM147.083 43.1821C147.161 43.2261 147.239 43.2694 147.317 43.3139C147.239 43.2694 147.161 43.2262 147.083 43.1821ZM146.481 42.8452C146.525 42.8693 146.568 42.8941 146.612 42.9184C146.549 42.8833 146.485 42.8478 146.421 42.813C146.441 42.8238 146.461 42.8343 146.481 42.8452ZM144.829 41.9868C144.895 42.0192 144.96 42.0517 145.026 42.0844C144.96 42.0517 144.895 42.0192 144.829 41.9868ZM144.096 41.6313C144.154 41.6588 144.212 41.6866 144.27 41.7143C144.212 41.6866 144.154 41.6588 144.096 41.6313ZM154.675 135.291C154.508 135.473 154.342 135.653 154.172 135.831C154.342 135.653 154.508 135.473 154.675 135.291Z" fill="#F4F0E4"/>
<path d="M329.504 62.9771C331.544 62.9771 340.682 51.1464 355.858 51.1464C374.298 51.1464 380.988 62.7323 380.988 80.9271C380.988 93.0025 379.03 107.199 379.03 113.237C379.03 117.317 380.254 121.559 382.865 123.844C385.72 126.536 388.331 127.108 388.331 131.024C388.331 134.288 385.965 136.491 380.825 136.491C376.174 136.491 371.197 136.001 366.873 136.001C360.917 136.001 359.285 136.491 353.166 136.491C349.412 136.491 347.944 134.124 347.944 131.35C347.944 127.516 349.168 124.333 349.902 122.294C351.534 117.643 353.002 102.875 353.002 89.9837C353.002 76.1132 349.004 69.9939 341.743 69.9939C337.99 69.9939 331.054 73.6655 331.054 84.1907C331.054 96.1846 330.81 107.199 330.81 113.237C330.81 117.317 331.136 121.396 333.502 123.844C336.195 126.536 338.316 127.108 338.316 131.024C338.316 134.288 336.031 136.491 330.891 136.491C326.159 136.491 322.569 136.001 318.245 136.001C312.288 136.001 310.657 136.491 304.537 136.491C300.784 136.491 299.316 134.124 299.316 131.35C299.316 127.516 300.621 124.333 301.274 122.294C302.906 117.643 304.211 102.875 304.211 89.9837C304.211 76.1132 300.213 69.9939 292.951 69.9939C288.953 69.9939 282.263 74.155 282.263 83.6196V110.626C282.263 117.806 282.671 120.499 284.956 123.354C287.24 126.21 289.933 126.863 289.933 131.024C289.933 134.288 288.138 136.491 283.161 136.491C278.265 136.491 273.696 136.001 269.29 136.001C263.497 136.001 257.867 136.491 251.503 136.491C247.505 136.491 246.037 134.124 246.037 131.35C246.037 127.352 249.219 125.149 250.606 123.436C254.522 118.377 255.012 113.563 255.012 109.321V79.6216C255.012 74.3182 252.156 72.1152 250.198 71.0546C248.811 70.1571 246.689 69.0148 246.689 66.1591C246.689 61.4268 252.89 60.6925 260.07 57.4289C269.372 53.1861 270.84 51.3911 273.778 51.3911C277.368 51.3911 279.407 52.7782 280.631 57.6736C281.202 60.2846 281.773 62.7323 282.916 62.7323C284.874 62.7323 293.686 51.1464 307.148 51.1464C315.715 51.1464 321.671 54.0836 325.833 59.2239C327.709 61.5084 328.444 62.9771 329.504 62.9771Z" fill="#F4F0E4"/>
<path d="M462.55 92.4314C453.412 97.1637 436.196 99.2034 427.955 99.8562C426.405 99.9378 425.752 100.264 425.752 101.406C425.752 106.628 431.137 115.358 444.355 115.358C455.125 115.358 461.407 110.381 465.569 106.547C466.711 105.649 468.016 104.996 468.995 104.996C470.709 104.996 471.77 106.628 471.77 110.137C471.77 121.641 458.389 137.878 435.217 137.878C409.271 137.878 393.85 120.662 393.85 96.3478C393.85 72.0337 411.229 51.1464 437.665 51.1464C461.652 51.1464 470.301 69.2596 470.301 80.5191C470.301 86.5569 467.119 90.0653 462.55 92.4314ZM444.437 75.95C444.437 69.9939 440.52 65.4248 434.809 65.4248C426.895 65.4248 421.917 73.5839 421.917 81.8246C421.917 85.333 423.06 87.3728 425.507 87.3728C429.669 87.3728 439.215 85.0066 442.886 80.5191C443.947 79.2137 444.437 77.8266 444.437 75.95Z" fill="#F4F0E4"/>
<path d="M514.085 21.7736C514.085 32.2173 513.35 32.1357 513.35 55.7155V110.626C513.35 117.806 514.574 120.499 517.022 123.354C519.388 126.21 522.244 126.863 522.244 131.024C522.244 134.288 520.53 136.491 515.309 136.491C510.495 136.491 504.294 136.001 499.806 136.001C493.85 136.001 488.465 136.491 481.938 136.491C477.858 136.491 476.308 134.124 476.308 131.35C476.308 127.352 479.572 125.149 481.122 123.436C485.12 118.377 485.528 113.563 485.528 109.321V43.8848C485.528 39.4789 482.427 37.1127 480.388 35.9704C478.593 34.8282 476.961 33.6859 476.961 31.2382C476.961 26.9139 482.917 26.0164 490.26 22.9975C498.501 19.7338 504.294 16.0623 508.292 16.0623C511.637 16.0623 514.085 17.7757 514.085 21.7736Z" fill="#F4F0E4"/>
<path d="M602.412 76.6843C598.006 88.5966 592.213 104.425 588.542 112.829C575.405 144.323 565.696 171.901 544.646 171.901C534.855 171.901 527.43 165.455 527.43 155.664C527.43 147.097 532.978 140.652 539.832 140.652C543.177 140.652 545.38 142.283 547.093 144.16C549.623 146.853 551.336 149.953 554.192 149.953C556.721 149.953 560.393 145.955 560.393 142.039C560.393 136.491 550.928 117.398 546.033 105.486C542.361 96.6741 531.673 71.3809 527.022 66.5671C524.411 63.7114 522.126 61.4268 522.126 57.7552C522.126 54.4916 524.166 52.2886 528.246 52.2886C533.468 52.2886 537.384 52.7782 542.769 52.7782C547.909 52.7782 553.621 52.2886 559.169 52.2886C563.248 52.2886 565.533 53.5125 565.533 58.5711C565.533 61.7532 561.29 64.0377 561.29 68.8516C561.29 71.7889 563.085 77.0923 567.328 87.0464C571.081 95.9398 573.937 103.365 575.161 103.365C577.119 103.365 580.382 92.105 583.483 82.0693C585.441 76.2764 585.849 73.7471 585.849 72.1152C585.849 64.5273 579.485 62.3243 579.485 57.5921C579.485 54.2468 581.851 52.2886 584.87 52.2886C588.949 52.2886 594.253 52.7782 598.006 52.7782C602.167 52.7782 605.104 52.2886 607.96 52.2886C612.203 52.2886 613.345 54.4916 613.345 57.1841C613.345 63.6298 607.715 62.3243 602.412 76.6843Z" fill="#F4F0E4"/>
<path d="M636.62 91.2891C646.411 87.7807 656.039 86.8016 658.568 84.8434C659.71 83.9459 660.771 81.9878 660.771 76.2764C660.771 68.8516 657.426 63.4666 650.98 63.4666C645.432 63.4666 641.76 68.2805 639.313 76.5212C637.844 81.335 635.723 85.0882 629.522 85.0882C622.831 85.0882 617.202 80.5191 617.202 71.8705C617.202 61.6716 629.277 50.9832 651.062 50.9832C670.725 50.9832 688.839 59.2239 688.839 83.538C688.839 93.7369 688.023 101.488 688.023 110.545C688.023 113.482 688.92 117.072 692.673 117.072C694.06 117.072 694.958 116.582 696.182 116.582C697.242 116.582 697.977 118.214 697.977 120.091C697.977 130.208 689.328 137.551 678.64 137.551C670.317 137.551 665.748 134.696 662.974 129.882C662.566 129.229 662.077 128.413 661.424 128.413C660.69 128.413 660.037 129.147 659.384 129.8C654.489 134.369 646.085 137.959 638.089 137.959C624.382 137.959 613.775 131.024 613.775 117.317C613.775 104.425 622.505 96.5109 636.62 91.2891ZM661.016 105.486C661.016 99.693 660.445 98.6323 659.629 98.6323C656.855 98.6323 653.918 99.285 650.98 100.59C645.677 102.793 641.679 107.036 641.679 112.176C641.679 116.338 644.371 119.764 649.348 119.764C657.426 119.764 661.016 112.992 661.016 105.486Z" fill="#F4F0E4"/>
</svg>
