<svg width="512" height="512" viewBox="0 0 512 512" fill="none" xmlns="http://www.w3.org/2000/svg">
<rect width="512" height="512" fill="#D6591F"/>
<path d="M189.255 437.964L121.573 418.533L84.0552 386.129L59.2029 257.265V141.747L184.877 70.8716L363.875 80.5364L422.324 163.378L439.813 282.117L378.602 393.493L189.255 437.964Z" fill="#F4F0E4"/>
<path fill-rule="evenodd" clip-rule="evenodd" d="M253.121 15.7347C266.49 16.214 430.009 61.3795 439.689 71.5199C449.369 81.6611 491.882 217.227 491.024 242.431C490.166 267.634 431.285 397.343 419.09 411.927C406.896 426.511 284.105 453.943 264.065 454.207C253.493 454.347 205.222 442.709 159.718 429.807C169.449 413.926 178.113 392.421 185.073 362.929C197.41 366.81 217.525 371.634 239.104 374.408C291.861 381.188 340.427 374.666 372.771 347.429C405.144 320.168 421.122 272.281 408.983 196.681C404.432 168.341 394.231 150.827 384.941 138.968C356.474 102.63 310.559 93.6042 270.948 101.649C246.686 106.577 223.953 117.915 206.243 134.539C171.851 121.361 135.234 122.76 107.032 151.47C97.5055 161.168 79.2853 182.641 88.5386 217.364V217.365C93.4979 235.971 104.782 251.99 108.072 256.649C116.335 268.351 126.357 280.111 135.945 291.199C145.541 302.296 154.693 312.709 161.253 321.746C164.578 326.327 166.869 329.822 168.365 332.383C169.874 334.967 170.54 336.546 170.673 337.318C170.703 337.49 170.723 337.833 170.725 338.352C170.727 338.86 170.713 339.507 170.683 340.268C170.623 341.789 170.502 343.75 170.332 345.936C169.991 350.308 169.456 355.565 168.829 359.977C165.288 384.858 152.053 410.635 143.136 425.012C108.98 414.927 79.445 404.858 73.1929 399.653C57.8554 386.882 25.7645 298.296 22.7798 286.864C19.7957 275.433 20.3768 171.374 25.3432 156.985C30.311 142.594 94.9028 61.3537 112.498 49.3226C130.092 37.2915 239.752 15.2555 253.121 15.7347ZM155.979 402.192L155.407 403.415C155.686 402.823 155.963 402.225 156.24 401.622C156.152 401.812 156.067 402.003 155.979 402.192ZM158.758 395.929C158.4 396.774 158.039 397.612 157.673 398.442V398.441C158.038 397.611 158.4 396.773 158.758 395.929ZM222.729 142.032C247.379 122.362 280.676 113.028 310.751 116.208C328.775 118.115 348.358 124.732 364.397 139.048C372.248 146.055 389.152 163.375 394.5 199.117C399.174 230.345 401.244 271.585 385.108 303.434C366.823 339.52 330.74 351.909 294.666 354.026C258.597 356.142 222.662 347.977 204.897 343.082C197.468 341.036 191.405 339.047 188.023 337.887C186.384 327.455 180.604 316.53 172.9 305.284C165.119 293.924 155.332 282.174 145.779 270.222C129.287 249.589 124.621 242.01 120.083 234.609C107.278 213.726 103.879 198.003 110.545 184.203C114.884 175.222 123.331 167.691 126.474 165.076C144.912 149.74 167.456 147.937 189.7 153.809C171.119 181.004 163.905 217.057 176.557 259.161C188.606 299.258 228.801 315.924 268.626 313.032C318.094 309.439 364.714 276.187 362.246 220.804C361.274 198.984 353.837 187.507 352.772 185.773C344.301 171.984 331.365 165.84 316.676 165.285C302.116 164.734 285.833 169.672 270.409 178.052C265.96 173.45 261.267 169.064 256.473 164.995C246.029 156.129 234.622 148.285 222.729 142.032ZM312.368 352.594C312.14 352.631 311.912 352.671 311.684 352.707C311.912 352.671 312.14 352.632 312.368 352.594ZM314.282 352.268C314.005 352.317 313.729 352.367 313.452 352.414C313.729 352.367 314.005 352.317 314.282 352.268ZM316.006 351.953C315.745 352.002 315.484 352.051 315.223 352.099C315.484 352.051 315.745 352.002 316.006 351.953ZM317.869 351.587C317.586 351.645 317.304 351.702 317.021 351.757C317.304 351.702 317.586 351.645 317.869 351.587ZM319.573 351.231C319.306 351.288 319.04 351.345 318.773 351.401C319.04 351.345 319.306 351.288 319.573 351.231ZM367.819 350.723L367.026 351.31C367.479 350.978 367.928 350.641 368.375 350.302C368.19 350.443 368.005 350.584 367.819 350.723ZM323.138 350.411C323.041 350.435 322.943 350.459 322.845 350.483C322.943 350.459 323.041 350.435 323.138 350.411ZM171.166 337.232C171.176 337.286 171.184 337.351 171.191 337.425L171.166 337.232C171.158 337.186 171.147 337.138 171.136 337.088C171.147 337.138 171.159 337.186 171.166 337.232ZM357.846 335.432C357.522 335.654 357.197 335.876 356.871 336.093H356.87C357.197 335.875 357.522 335.654 357.846 335.432ZM358.872 334.719C358.58 334.925 358.288 335.129 357.995 335.33C358.288 335.128 358.58 334.925 358.872 334.719ZM359.435 334.317C359.287 334.423 359.139 334.53 358.991 334.635C359.139 334.53 359.287 334.423 359.435 334.317ZM360.093 333.839C359.994 333.912 359.895 333.984 359.796 334.056C359.896 333.984 359.994 333.912 360.093 333.839ZM386.305 332.807L385.672 333.593C385.884 333.332 386.095 333.07 386.304 332.807L386.93 332.013C386.723 332.279 386.515 332.544 386.305 332.807ZM360.857 333.273C360.747 333.355 360.637 333.437 360.527 333.519C360.637 333.437 360.747 333.355 360.857 333.273ZM361.537 332.759C361.448 332.827 361.36 332.894 361.271 332.961C361.36 332.894 361.448 332.827 361.537 332.759ZM362.266 332.194C362.185 332.257 362.105 332.32 362.024 332.383C362.105 332.32 362.185 332.257 362.266 332.194ZM165.494 326.926C165.588 327.067 165.682 327.205 165.774 327.342C165.682 327.205 165.588 327.066 165.494 326.926ZM368.928 326.386C368.64 326.665 368.352 326.944 368.061 327.218H368.06C368.351 326.944 368.64 326.665 368.928 326.386ZM369.756 325.572C369.528 325.8 369.298 326.026 369.067 326.251C369.298 326.026 369.528 325.8 369.756 325.572ZM164.289 325.161C164.4 325.323 164.511 325.483 164.62 325.641C164.511 325.483 164.4 325.323 164.289 325.161ZM370.251 325.075C370.184 325.143 370.115 325.212 370.047 325.281C370.115 325.212 370.184 325.143 370.251 325.075ZM370.917 324.39C370.839 324.472 370.76 324.554 370.681 324.635C370.76 324.554 370.839 324.472 370.917 324.39ZM371.613 323.66C371.507 323.772 371.401 323.884 371.294 323.995C371.401 323.884 371.507 323.772 371.613 323.66ZM162.997 323.32C163.154 323.541 163.308 323.759 163.459 323.975C163.308 323.759 163.154 323.541 162.997 323.32ZM372.243 322.982C372.11 323.126 371.977 323.27 371.843 323.413C371.977 323.27 372.11 323.126 372.243 322.982ZM395.497 319.134L394.974 320.05C395.149 319.746 395.323 319.441 395.496 319.134L396.011 318.21C395.841 318.52 395.669 318.828 395.497 319.134ZM397.02 316.337L396.519 317.278C396.768 316.815 397.014 316.35 397.257 315.881C397.178 316.033 397.1 316.186 397.02 316.337ZM398.688 313.032C398.461 313.501 398.232 313.968 397.999 314.431C397.781 314.866 397.559 315.298 397.336 315.728C397.796 314.84 398.247 313.941 398.688 313.032ZM399.87 310.517C399.568 311.18 399.261 311.838 398.95 312.491C398.888 312.619 398.825 312.746 398.763 312.874C398.982 312.422 399.199 311.966 399.413 311.508L399.87 310.517ZM220.899 305.715C220.717 305.642 220.535 305.57 220.354 305.496L219.54 305.16C219.99 305.349 220.444 305.533 220.899 305.715ZM386.3 302.154C386.056 302.658 385.807 303.161 385.554 303.661C385.344 304.075 385.13 304.486 384.915 304.894C385.13 304.486 385.343 304.075 385.553 303.661L386.3 302.154ZM406.135 293.495C406.026 293.872 405.915 294.249 405.803 294.623C405.691 294.998 405.577 295.372 405.462 295.744C405.347 296.115 405.231 296.486 405.114 296.855C405.466 295.748 405.806 294.628 406.135 293.495ZM205.584 159.276C222.793 166.54 239.109 177.687 252.326 189.799C242.516 197.323 233.599 206.281 227.681 215.728C221.67 225.324 218.719 235.48 221.156 245.156C223.378 253.977 229.282 259.318 235.463 262.583C241.636 265.844 248.118 267.055 251.578 267.62C269.934 270.615 279.358 267.853 281.803 267.151C293.526 263.781 299.04 255.89 301.236 248.905C303.859 240.559 302.946 231.222 299.582 221.637C296.275 212.218 290.589 202.525 283.507 193.232C293.893 188.349 305.168 185.045 315.181 185.166C325.355 185.29 334.179 188.942 339.514 198.031H339.515C339.651 198.261 344.777 205.996 345.512 221.865C346.495 243.08 337.608 259.643 323.921 271.506C310.222 283.379 291.71 290.545 273.488 292.906C241.396 297.065 206.894 286.844 194.184 259.718L193.888 259.074C190.825 252.288 188.225 241.205 187.062 233.416C182.597 203.516 190.6 178.476 205.584 159.276ZM188.068 281.136C187.818 280.801 187.572 280.462 187.328 280.121C187.572 280.462 187.818 280.801 188.068 281.136ZM187.242 280.001C187.171 279.903 187.1 279.805 187.03 279.705C186.944 279.585 186.862 279.462 186.777 279.34C186.931 279.562 187.085 279.782 187.242 280.001ZM186.389 278.779C186.249 278.573 186.11 278.365 185.972 278.158C186.11 278.365 186.249 278.573 186.389 278.779ZM185.658 277.683C185.617 277.621 185.575 277.56 185.535 277.497C185.393 277.279 185.253 277.06 185.114 276.839C185.293 277.122 185.475 277.403 185.658 277.683ZM184.987 276.638C184.792 276.329 184.601 276.017 184.411 275.703C184.601 276.017 184.792 276.329 184.987 276.638ZM183.661 274.439L183.66 274.438C183.509 274.177 183.36 273.916 183.212 273.653C183.15 273.541 183.089 273.429 183.027 273.317C183.235 273.694 183.446 274.068 183.661 274.439ZM410.902 270.347C410.788 271.217 410.669 272.08 410.543 272.938C410.522 273.084 410.498 273.23 410.476 273.376C410.625 272.375 410.768 271.365 410.901 270.347H410.902ZM180.337 267.92L180.72 268.764C180.493 268.271 180.27 267.774 180.052 267.273C180.146 267.489 180.241 267.705 180.337 267.92ZM264.999 268.454C264.568 268.442 264.127 268.426 263.678 268.407C264.128 268.426 264.568 268.442 265 268.454H264.999ZM350.031 267.636C349.873 267.891 349.713 268.145 349.552 268.398L350.031 267.636ZM251.659 267.125C251.713 267.134 251.767 267.142 251.821 267.151C251.767 267.142 251.712 267.134 251.658 267.125C251.589 267.114 251.52 267.101 251.45 267.089C251.521 267.101 251.59 267.114 251.659 267.125ZM179.988 267.125C179.979 267.106 179.971 267.087 179.962 267.068C179.882 266.88 179.803 266.692 179.723 266.503C179.811 266.711 179.899 266.919 179.988 267.125ZM412.248 255.438C412.223 255.907 412.197 256.374 412.169 256.84C412.115 257.772 412.054 258.697 411.987 259.616C411.953 260.075 411.919 260.533 411.882 260.99C411.773 262.359 411.651 263.714 411.515 265.055C411.832 261.926 412.075 258.72 412.247 255.438H412.248ZM179.355 265.611C179.318 265.52 179.28 265.429 179.244 265.338C179.195 265.217 179.148 265.095 179.1 264.973C179.184 265.186 179.269 265.399 179.355 265.611ZM178.98 264.666C178.931 264.542 178.882 264.417 178.834 264.291C178.882 264.417 178.931 264.542 178.98 264.666ZM178.671 263.861C178.616 263.715 178.561 263.568 178.507 263.421C178.561 263.568 178.616 263.715 178.671 263.861ZM178.289 262.82C178.26 262.741 178.232 262.662 178.204 262.583C178.232 262.662 178.26 262.741 178.289 262.82ZM108.481 256.36C108.738 256.724 108.997 257.09 109.258 257.454C108.997 257.09 108.738 256.725 108.48 256.36C108.274 256.069 108.038 255.733 107.774 255.356C108.038 255.733 108.275 256.069 108.481 256.36ZM356.662 254.164C356.498 254.597 356.332 255.027 356.162 255.455C356.332 255.027 356.498 254.597 356.662 254.164ZM356.909 253.503C356.897 253.534 356.886 253.565 356.874 253.596C356.886 253.565 356.897 253.534 356.909 253.503ZM357.59 251.575C357.473 251.921 357.353 252.267 357.231 252.611L357.59 251.575ZM265.735 203.604C273.172 212.282 278.239 220.32 281.204 226.925C282.705 230.272 283.663 233.24 284.119 235.73C284.576 238.229 284.52 240.203 284.042 241.588C283.398 243.456 281.339 245.238 277.543 246.424C273.765 247.605 268.36 248.163 261.22 247.659C245.555 246.551 240.965 242.791 239.962 242.001C238.81 241.094 238.141 240.272 237.841 239.294C237.539 238.309 237.589 237.085 238.049 235.325C239.196 230.94 242.412 225.592 247.263 219.999C252.027 214.507 258.341 208.813 265.735 203.604ZM412.424 236.345C412.487 238.386 412.525 240.402 412.538 242.392C412.525 240.402 412.487 238.387 412.424 236.346V236.345ZM117.915 231.96C118.375 232.748 118.849 233.543 119.337 234.345C119.047 233.868 118.761 233.395 118.481 232.923L117.915 231.96ZM412.272 232.406C412.283 232.653 412.296 232.899 412.306 233.146C412.296 232.899 412.283 232.653 412.272 232.406ZM412.201 230.927C412.209 231.089 412.217 231.251 412.225 231.412C412.217 231.251 412.209 231.089 412.201 230.927ZM115.783 228.18C116.114 228.79 116.454 229.405 116.803 230.024C116.632 229.72 116.462 229.417 116.294 229.115L115.783 228.18ZM412.109 229.244C412.117 229.379 412.125 229.514 412.132 229.649C412.125 229.514 412.117 229.379 412.109 229.244ZM412.022 227.778C412.035 227.991 412.047 228.204 412.06 228.416C412.041 228.105 412.022 227.793 412.002 227.481L412.022 227.778ZM411.328 218.912C411.379 219.459 411.428 220.003 411.476 220.546C411.584 221.768 411.683 222.982 411.774 224.187L411.904 225.989C411.735 223.547 411.531 221.071 411.293 218.56C411.305 218.678 411.317 218.795 411.328 218.912ZM410.995 215.562C411.058 216.164 411.118 216.765 411.177 217.364C411.118 216.765 411.058 216.164 410.995 215.562ZM410.863 214.329C410.888 214.56 410.914 214.79 410.938 215.02C410.914 214.79 410.888 214.56 410.863 214.329ZM410.626 212.21C410.66 212.502 410.693 212.793 410.726 213.084C410.693 212.793 410.66 212.502 410.626 212.21ZM272.261 211.007L272.829 211.788C272.529 211.372 272.222 210.954 271.91 210.533C272.027 210.691 272.145 210.849 272.261 211.007ZM410.011 207.196L410.229 208.9C410.13 208.11 410.027 207.316 409.921 206.52C409.951 206.745 409.982 206.971 410.011 207.196ZM409.544 203.757C409.651 204.517 409.754 205.273 409.855 206.027C409.754 205.273 409.651 204.517 409.544 203.757ZM339.524 197.083C339.666 197.311 339.808 197.542 339.946 197.777V197.778C339.808 197.543 339.666 197.311 339.524 197.083ZM336.205 192.795L336.521 193.132C336.312 192.905 336.099 192.684 335.883 192.467C335.991 192.575 336.098 192.684 336.205 192.795ZM407.217 189.799C407.339 190.391 407.459 190.987 407.576 191.589C407.459 190.987 407.339 190.391 407.217 189.799ZM286.045 191.533C286.166 191.48 286.287 191.427 286.409 191.374C286.287 191.427 286.166 191.48 286.045 191.533ZM107.687 190.635C107.637 190.838 107.59 191.042 107.543 191.245C107.584 191.069 107.623 190.891 107.666 190.715L107.687 190.635ZM289.065 190.271C289.212 190.212 289.36 190.152 289.507 190.094C289.36 190.152 289.212 190.212 289.065 190.271ZM406.833 187.993C406.913 188.358 406.991 188.725 407.069 189.094C406.991 188.725 406.913 188.358 406.833 187.993ZM406.42 186.157C406.531 186.633 406.639 187.113 406.746 187.596C406.639 187.113 406.531 186.633 406.42 186.157ZM405.977 184.291C406.073 184.682 406.168 185.075 406.261 185.47C406.299 185.63 406.335 185.79 406.373 185.951C406.242 185.393 406.111 184.84 405.976 184.291H405.977ZM316.216 184.692C316.816 184.713 317.412 184.746 318.002 184.793C317.704 184.77 317.404 184.75 317.103 184.733C316.809 184.716 316.513 184.702 316.216 184.692ZM315.284 184.668C315.559 184.672 315.834 184.679 316.108 184.688C315.834 184.679 315.559 184.672 315.284 184.668ZM315.073 184.665C314.789 184.663 314.504 184.663 314.218 184.665C314.504 184.663 314.789 184.663 315.073 184.665ZM269.465 177.795L270.314 178.672L269.464 177.795C269.18 177.504 268.895 177.214 268.609 176.924C268.895 177.214 269.181 177.504 269.465 177.795ZM237.174 176.773C237.52 177.024 237.865 177.277 238.208 177.531C237.865 177.277 237.52 177.024 237.174 176.773ZM236.102 175.999C236.302 176.142 236.501 176.286 236.7 176.43C236.501 176.286 236.302 176.142 236.102 175.999ZM235.06 175.259C235.325 175.446 235.59 175.634 235.854 175.823C235.59 175.634 235.325 175.446 235.06 175.259ZM234.027 174.536C234.264 174.701 234.501 174.867 234.738 175.033C234.501 174.867 234.264 174.701 234.027 174.536ZM402.439 172.264C402.674 172.942 402.906 173.629 403.134 174.326C403.02 173.977 402.904 173.632 402.789 173.288L402.439 172.264ZM232.366 173.397C232.8 173.691 233.232 173.987 233.663 174.285C233.232 173.987 232.8 173.691 232.366 173.397ZM231.113 172.557C231.409 172.754 231.705 172.952 231.999 173.151C231.705 172.952 231.409 172.754 231.113 172.557ZM229.714 171.637C230.01 171.829 230.304 172.022 230.598 172.216C230.304 172.022 230.01 171.829 229.714 171.637ZM228.326 170.743C228.704 170.984 229.082 171.226 229.458 171.47C229.082 171.226 228.704 170.984 228.326 170.743ZM401.576 169.856C401.746 170.317 401.916 170.783 402.083 171.253C401.916 170.783 401.746 170.317 401.576 169.856ZM227.075 169.953C227.344 170.122 227.614 170.291 227.882 170.461C227.614 170.291 227.344 170.122 227.075 169.953ZM225.561 169.018C225.13 168.755 224.697 168.495 224.263 168.236C224.697 168.495 225.13 168.755 225.561 169.018ZM400.99 168.299C401.114 168.621 401.236 168.945 401.359 169.271C401.4 169.381 401.441 169.492 401.482 169.603C401.319 169.165 401.155 168.73 400.989 168.299H400.99ZM222.833 167.391C223.192 167.601 223.551 167.812 223.909 168.025C223.551 167.812 223.192 167.601 222.833 167.391ZM329.076 167.787L329.695 167.98C329.489 167.914 329.282 167.85 329.075 167.787L328.452 167.604C328.66 167.664 328.868 167.725 329.076 167.787ZM220.042 165.799C220.93 166.294 221.813 166.797 222.691 167.308C221.813 166.797 220.93 166.294 220.042 165.799ZM324.636 166.69C324.852 166.732 325.066 166.775 325.281 166.82C325.495 166.865 325.708 166.912 325.921 166.959C325.495 166.864 325.066 166.774 324.635 166.69H324.636ZM96.1255 165.801C95.9863 166.023 95.8478 166.247 95.7095 166.473C95.8133 166.304 95.9155 166.134 96.02 165.967L96.1255 165.801ZM218.58 164.995C219.002 165.224 219.424 165.456 219.845 165.69C219.424 165.456 219.002 165.224 218.58 164.995ZM216.925 164.109C217.376 164.346 217.825 164.586 218.274 164.828C217.825 164.586 217.376 164.346 216.925 164.109ZM215.267 163.246C215.73 163.484 216.192 163.724 216.654 163.966C216.192 163.724 215.73 163.484 215.267 163.246ZM213.663 162.437C214.171 162.689 214.677 162.945 215.183 163.203C214.677 162.945 214.171 162.689 213.663 162.437ZM210.504 160.915C211.506 161.383 212.505 161.864 213.499 162.356C212.992 162.105 212.484 161.856 211.975 161.612C211.486 161.376 210.995 161.145 210.504 160.915ZM208.865 160.162C209.293 160.356 209.721 160.551 210.148 160.749C209.721 160.551 209.293 160.356 208.865 160.162ZM207.292 159.464C207.748 159.663 208.203 159.864 208.657 160.068C208.203 159.864 207.748 159.663 207.292 159.464ZM205.427 158.665C205.905 158.866 206.382 159.07 206.859 159.276C206.382 159.07 205.905 158.866 205.427 158.665ZM225.366 139.366C224.565 139.962 223.773 140.569 222.989 141.186V141.185C223.773 140.568 224.565 139.961 225.366 139.365V139.366ZM356.122 131.92C356.928 132.475 357.729 133.045 358.523 133.631V133.632C357.729 133.046 356.929 132.475 356.123 131.921L356.122 131.92ZM147.434 129.038L146.652 129.219C147.172 129.096 147.694 128.979 148.216 128.867C147.955 128.923 147.695 128.98 147.434 129.038ZM359.584 116.556L360.419 117.096C360.142 116.915 359.863 116.735 359.584 116.557L358.746 116.026C359.026 116.201 359.306 116.378 359.584 116.556ZM292.942 115.256C293.463 115.229 293.984 115.205 294.504 115.185C293.984 115.205 293.463 115.229 292.942 115.256ZM294.709 115.176C294.765 115.174 294.82 115.172 294.875 115.17L296.338 115.127C295.796 115.14 295.253 115.156 294.709 115.176ZM264.262 103.695V103.694V103.695ZM179.654 266.338C179.568 266.134 179.485 265.929 179.401 265.723C179.485 265.929 179.568 266.134 179.654 266.338ZM225.561 169.018C225.916 169.235 226.27 169.454 226.624 169.673C226.27 169.454 225.916 169.235 225.561 169.018Z" fill="#D6591F"/>
</svg>
