<svg width="83" height="83" viewBox="0 0 83 83" fill="none" xmlns="http://www.w3.org/2000/svg">
<g clip-path="url(#clip0_250_489)">
<path d="M3.01364 80.3781C-0.483213 77.4789 -0.548521 73.801 0.859316 69.6989C1.37682 68.1903 2.58377 66.6419 3.88579 65.7623C4.36113 65.4407 5.47384 64.977 5.82354 64.6719C6.19306 64.3495 6.43858 62.7862 6.47743 62.2704C6.60474 60.5765 6.47413 58.7206 6.56506 57.0201C6.60887 56.1983 6.68658 55.5544 6.70642 54.7095C6.77834 51.6086 6.41956 48.5127 6.36583 45.4052C6.2286 37.5475 6.842 29.6602 6.41626 21.8C6.3369 20.3318 6.4981 19.506 5.29859 18.5487C1.85546 15.8008 -0.342685 13.8787 0.0780959 8.84916C0.288073 6.33603 3.0029 2.6573 5.29115 1.71901C7.64305 0.754268 11.659 1.30071 13.7919 2.66804C16.0611 4.12218 16.6464 6.279 19.653 6.64523C24.561 7.24209 29.5848 6.96185 34.5407 6.9635C37.5416 6.9635 40.5508 7.05691 43.5541 7.01144C47.0741 6.9577 50.6718 6.98747 54.2323 7.04533C56.6793 7.08502 59.9323 7.55706 62.2404 6.86594C65.0891 6.01364 65.8464 3.10041 68.123 1.48754C72.3986 -1.54144 78.4937 0.311164 81.0457 4.73475C83.6886 9.3154 83.1008 14.3996 79.294 18.0138C78.6062 18.6669 77.877 18.9595 77.2239 19.8135C76.1402 21.2313 76.0236 21.7727 75.9376 23.5708C75.7657 27.1643 75.9137 30.8208 75.807 34.4243C75.5648 42.5828 75.2474 51.0093 75.6334 59.1588C75.6805 60.1483 75.807 62.8433 76.0459 63.6749C76.5576 65.4548 78.2275 65.5879 79.5618 66.3881C82.3742 68.0745 82.6933 70.7042 82.4147 73.7465C82.1088 77.0863 80.691 81.1089 77.2893 82.2423C74.6108 83.1351 70.6824 82.2356 68.4711 80.4856C66.8442 79.1976 65.9637 77.24 63.9871 76.5696C55.2186 76.3042 46.4805 77.0821 37.7226 76.9738C31.8482 76.9011 25.2984 76.1347 19.5216 76.7514C19.1917 76.787 17.3317 77.4136 17.1234 77.5938C16.9705 77.7261 16.524 78.6578 16.3372 78.9264C13.1884 83.4467 7.1363 83.7972 3.01282 80.3781H3.01364ZM17.3954 69.9131C17.8525 70.796 18.1898 71.4358 18.8693 71.7268C20.0267 72.2229 21.3783 72.1907 23.3995 72.2551C32.126 72.5337 41.0773 72.1881 49.7939 71.9599C53.089 71.8739 56.3842 71.6921 59.6727 71.5879C60.6308 71.5582 62.2891 71.5879 63.1902 71.4441C64.0062 71.3126 64.6675 71.3126 65.2057 69.6775C65.4041 69.0756 65.7802 68.4689 66.1489 67.9274C66.7326 67.0726 67.6692 66.0409 68.5794 65.5614C69.101 65.2861 70.3055 64.9431 70.6899 64.6033C71.3 64.0635 71.7431 62.1447 71.777 61.3098C71.8051 60.6369 71.7472 59.0769 71.7571 58.4024C71.8108 54.7641 71.9729 51.1399 72.0167 47.5017C72.0944 41.1485 72.1308 34.7302 71.8886 28.3763C71.7935 25.8954 72.0117 22.3721 70.4534 20.3227C69.9864 19.7085 68.4611 19.2555 67.7237 18.7727C66.4821 17.9593 65.4223 16.6225 64.7593 15.2849C64.0657 13.8854 64.2194 12.9966 62.767 12.0261C61.0996 10.9125 56.8248 10.9373 54.754 10.8696C43.4416 10.4984 32.1078 10.9026 20.7889 10.8762C20.5442 10.9101 19.0338 11.2953 18.2063 12.3973C18.0807 12.5651 17.8839 13.1512 17.7318 13.4026C17.4425 13.8812 17.2606 14.474 16.9671 14.932C16.5761 15.542 16.1628 15.8884 15.6453 16.4754C14.3739 17.9179 12.1493 18.4644 11.2928 20.1252C10.5802 21.5074 10.7985 26.5658 10.7472 28.3713C10.6687 31.1135 10.4984 33.8647 10.4835 36.601C10.462 40.5178 10.7968 44.4322 10.8786 48.3441C10.958 52.1534 10.8977 55.9297 11.0093 59.7317C11.0349 60.6121 10.853 62.3076 11.0076 63.0648C11.2721 64.3619 13.1859 65.1878 14.0986 65.9177C15.3543 66.9221 16.6464 68.4622 17.3954 69.9098V69.9131Z" fill="black"/>
</g>
<defs>
<clipPath id="clip0_250_489">
<rect width="83" height="83" fill="white"/>
</clipPath>
</defs>
</svg>
