<svg width="79" height="79" viewBox="0 0 79 79" fill="none" xmlns="http://www.w3.org/2000/svg">
<path d="M49.1025 47.0188C49.8513 47.7052 50.703 48.3187 51.4602 49.02C53.2705 50.6976 55.0267 52.4802 56.8042 54.2135C56.9317 54.2973 57.0523 54.1822 56.9553 54.378C57.2591 54.6131 57.5728 54.8811 57.8483 55.1499C58.2879 55.58 58.681 56.0674 59.1145 56.4984C59.1992 56.583 59.4022 56.6574 59.4381 56.6998C59.4847 56.753 59.4755 56.8588 59.5518 56.9466C59.6442 57.0532 60.0632 57.3987 60.2013 57.5178C61.2676 58.4338 62.4842 59.2808 63.5267 60.2125C64.2159 60.8284 64.7578 61.6119 65.5256 62.1362C65.9966 61.9771 66.4331 61.6527 66.9157 61.4717C68.5753 60.8479 70.705 61.0509 72.3897 61.4936C74.4872 62.0445 77.1975 64.3176 78.1376 66.3146C78.9105 67.9558 79.2331 69.0684 78.8177 70.8722C78.6965 71.3976 78.63 71.7103 78.5405 72.2534C78.1995 74.3232 77.2627 75.8196 75.7808 77.2377C74.6735 78.2982 72.2073 79.1113 70.705 78.9875C70.1764 78.9434 70.1902 78.8104 69.8051 78.6294C69.3666 78.424 68.2402 78.4023 67.6787 78.2917C65.8255 77.9276 63.4054 76.6722 62.4375 74.9585C60.9256 72.2824 61.1042 70.4088 61.7576 67.4963C61.946 66.6576 62.2895 65.9025 62.6765 65.1466L58.8291 62.2591C57.1012 60.9866 55.6449 59.4156 54.1429 57.8861C51.1587 54.849 48.2798 51.7124 45.3658 48.6141C45.2376 48.4778 45.0163 48.2435 44.8873 48.1228C44.7698 48.0131 44.0592 47.4286 43.9676 47.4403C42.2748 48.2427 40.5354 48.6266 38.6785 48.2599C37.3864 48.0053 36.256 47.2774 35.1349 46.6121C34.4892 47.1849 33.8686 47.7921 33.2558 48.4002C32.1217 49.5262 31.0623 50.7392 29.9289 51.8628C28.7093 53.0718 27.3721 54.168 26.1403 55.363C25.1359 56.3378 24.2177 57.4073 23.2301 58.3977C21.5357 60.0973 19.849 61.7843 18.1745 63.5027C17.2648 64.4359 16.3084 65.319 15.4048 66.2586C15.3583 66.3758 15.7147 67.0184 15.7803 67.1974C16.8046 69.9795 16.0497 72.6188 14.6996 75.1001C13.9715 76.4385 12.8816 77.3641 11.4956 77.9197C9.16242 78.8552 7.1391 79.0106 5.08758 77.3634C4.62888 76.9947 4.12286 76.8236 3.62143 76.476C2.16596 75.4661 0.275463 73.3272 0.036575 71.4852C-0.234369 69.3936 1.04174 65.9374 2.48423 64.4399C4.42586 62.4245 6.82086 61.8462 9.53794 62.0288C10.3584 62.0836 11.1361 62.3767 11.8879 62.6924C12.9243 61.7467 13.9966 60.8433 15.0102 59.8716C15.5078 59.3945 15.9254 58.8977 16.4237 58.4181C16.6145 58.2347 17.0175 57.966 17.161 57.7865C17.1907 57.7497 17.1618 57.6463 17.2327 57.5797C17.267 57.5476 17.3419 57.5907 17.4021 57.546C17.5495 57.4387 17.7326 57.1895 17.8799 57.05C20.4329 54.6531 23.0019 52.2122 25.5366 49.8357C27.0066 48.4574 28.3651 47.0188 29.8007 45.5801C30.3647 45.0144 31.7843 43.8446 32.1071 43.2623C32.1308 43.2193 32.2239 43.2091 32.2339 43.1644C32.2437 43.1197 31.9423 42.4599 31.9019 42.3143C31.5996 41.218 31.6164 38.9323 31.7859 37.7922C31.8484 37.3707 31.9614 36.9656 32.0636 36.555C31.1997 35.5332 30.0991 34.7786 29.1153 33.8979C28.3994 33.257 27.7461 32.5345 27.0355 31.8897C26.1586 31.0936 25.1924 30.3962 24.3299 29.5836C23.6728 28.9646 23.0966 28.2571 22.4173 27.66C20.6856 26.1391 18.7225 24.7607 16.9656 23.261C15.7818 22.251 14.8209 21.0372 13.6799 20.0131C12.8938 19.3079 11.9764 18.7124 11.1987 17.99C10.972 17.8763 10.5614 18.1263 10.3179 18.1858C7.05214 18.9859 2.04385 16.5991 0.745609 13.3442C-0.776254 9.52819 1.19133 4.89025 4.52966 2.84514C5.73403 2.10702 8.05728 1.32659 9.45624 1.45431C12.255 1.71054 13.9272 2.64298 15.762 4.76253C17.2457 6.47698 17.2136 8.52522 17.0938 10.7028C17.0106 12.2143 16.658 13.8088 15.6773 14.9716C16.1558 15.3666 16.6641 15.72 17.1343 16.1258C17.7334 16.6422 18.3379 17.3412 18.9439 17.8175C19.1331 17.9665 19.0942 17.9366 19.2759 18.1137C19.9643 18.7861 20.9038 19.3588 21.6655 19.9747C23.9346 21.8098 25.9129 23.7406 27.9552 25.8201C28.9658 26.849 29.9801 27.9052 30.9898 28.9458C31.7889 29.7693 32.6322 30.683 33.4443 31.5049C33.9236 31.9907 34.4327 32.4452 34.88 32.9655C37.6604 31.1194 41.1582 31.4493 44.1791 32.4452C44.7552 31.9273 45.3216 31.3905 45.9085 30.8859C49.6613 27.6584 52.9423 24.2083 56.457 20.7411C57.8399 19.3769 59.4091 18.0777 60.8425 16.7433C61.5278 16.1055 62.22 15.4802 62.926 14.8658C62.3971 14.1473 61.8201 13.3912 61.5537 12.5144C61.2202 11.4181 61.4171 9.30173 61.4904 8.09586C61.611 6.10635 63.3984 2.97521 64.9303 1.7599C68.0901 -0.747518 71.0665 -0.393343 74.318 1.67449C77.1304 3.46337 79.2614 7.54108 78.4207 10.9543C77.6287 14.1716 75.9862 15.6282 73.4022 17.378C71.6649 18.5541 69.1599 19.1465 67.2159 18.149C66.7945 17.9327 66.4904 17.6201 66.1066 17.3615C65.3683 18.149 64.5784 18.8981 63.8183 19.6699C62.5581 20.9503 61.3897 21.8764 60.0945 23.0659C57.943 25.0413 55.9601 27.3638 53.8338 29.4113C51.8174 31.3537 49.7055 33.1794 47.6105 35.0278C48.2333 35.9282 48.7401 36.9296 48.8759 38.0446C48.9896 38.9762 48.821 39.9628 48.653 40.8803C48.3775 42.3863 47.96 43.6956 46.9709 44.8734C47.7631 45.4987 48.3638 46.3371 49.1041 47.0148L49.1025 47.0188Z" fill="black"/>
<path d="M69.2596 29.6612C71.754 29.4849 74.7435 30.0679 76.3578 32.1733C77.972 34.2787 78.6817 37.08 78.0352 39.7818C77.6922 41.2149 77.3354 42.8158 76.5237 44.0397C74.4394 47.1833 70.7975 48.6619 67.178 47.5351C66.5163 47.3291 65.8988 47.0744 65.2138 46.8606C62.312 45.9578 61.0466 43.3862 60.7382 40.4337C60.4299 37.4812 61.2511 35.813 62.9088 33.4372C64.3177 31.4172 66.8119 29.8344 69.259 29.6612H69.2596Z" fill="black"/>
<path d="M47.5751 73.8466C47.3531 74.3127 47.047 74.9427 46.7669 75.3871C45.7854 76.9454 42.6592 78.9625 40.8283 78.9474C38.8645 78.9309 34.5455 77.1146 33.1098 75.7196C29.4761 72.1889 31.072 65.674 35.1628 63.3022C39.9612 60.5205 46.1357 62.0422 48.1316 67.6017C48.9818 69.9704 48.6162 71.6636 47.5751 73.846V73.8466Z" fill="black"/>
<path d="M3.99935 35.302C6.70957 32.489 11.714 31.812 15.0798 33.6988C17.5359 35.0755 18.5036 36.4162 18.7128 39.3671C18.8112 40.7556 18.4571 43.8813 17.7076 45.0402C17.1275 45.9374 14.3509 48.3656 13.4152 48.9204C10.6798 50.5431 6.2623 49.4454 4.31761 46.9685C3.48417 45.9068 2.0081 43.1369 1.9043 41.8001C1.73563 39.6273 2.49199 36.866 3.99858 35.302H3.99935Z" fill="black"/>
<path d="M36.2872 16.6478C36.2169 16.5796 35.8529 16.122 35.8193 16.0389C35.743 15.8501 35.7452 15.5264 35.6315 15.3776C35.5179 15.2287 34.5585 14.6677 34.2974 14.4404C31.9391 12.3812 31.859 9.15211 32.674 6.28271C33.2984 4.0848 34.8668 2.74411 36.7443 1.66201C38.4219 0.695084 39.1241 0.795381 40.9901 0.91292C43.1668 1.05083 45.0131 1.33213 46.5715 3.07792C48.9521 5.74596 49.1215 8.79562 48.0072 12.114C47.3241 14.1489 44.9298 16.0366 43.1508 17.0811C41.2573 18.1929 37.9403 18.2439 36.2872 16.6478Z" fill="black"/>
</svg>
