<svg width="84" height="84" viewBox="0 0 84 84" fill="none" xmlns="http://www.w3.org/2000/svg">
<path d="M82.2411 39.53C82.2733 39.5767 82.4462 39.626 82.5155 39.7081C82.575 39.779 83.009 40.3506 83.0209 40.3913C83.0601 40.5331 82.9453 40.943 82.96 41.1168C82.9768 41.3088 83.1602 41.544 83.0671 41.7619C82.7388 42.0351 82.5092 42.7909 82.2516 43.0313C81.8078 43.4472 80.6941 43.6219 80.1068 43.5985C73.9146 43.353 67.6845 43.6894 61.4804 43.3158C58.1642 43.116 54.8664 43.0728 51.5511 43.0304C50.2163 43.0131 48.8569 42.9362 47.5334 42.9431C47.1856 42.9448 46.773 43.0088 46.4157 43.0088C47.9012 44.4641 49.971 45.1732 51.4066 46.7081C52.8282 48.2291 54.1823 49.7952 55.702 51.2349C57.2314 52.6842 58.9446 53.9407 60.5029 55.358C63.283 57.8864 65.8976 60.67 68.4053 63.4423C70.9683 66.2752 73.7053 69.0968 76.4976 71.7169C77.6624 72.8096 79.0435 73.7385 80.1999 74.8501C80.8894 75.5123 81.4809 76.2613 82.1319 76.95C82.6863 77.5366 83.3184 77.8278 83.7188 78.5887C83.8315 78.8036 84.0163 79.5022 83.9988 79.7297C83.9813 79.9565 83.7552 80.4066 83.7517 80.5774C83.7475 80.786 83.9078 81.0037 83.8966 81.2326C83.8875 81.4216 83.5347 82.3428 83.4136 82.5031C82.8991 83.1919 80.7627 83.9885 79.9129 83.9997C79.3557 84.0074 78.7488 83.8527 78.1937 83.8177C77.1304 83.7519 76.0006 83.789 74.9485 83.7113C74.0434 83.6448 73.1789 83.4271 72.2276 83.3809C62.9344 82.9315 53.549 83.3424 44.197 83.2409C39.305 83.1884 34.4657 82.9938 29.5396 83.1492C26.1638 83.2556 22.944 83.2136 19.556 83.1016C17.7262 83.0414 16.2713 83.0428 14.4504 83.1016C13.1313 83.1443 11.9628 82.9623 10.6778 82.9098C8.11232 82.8041 5.18414 82.9364 2.66153 82.5745C1.20139 82.3652 -0.295537 81.6127 0.267672 79.8956C0.659202 78.7014 2.30416 77.1264 3.27642 76.313C4.67261 75.1447 6.51289 74.1746 7.83547 72.9888C9.0889 71.8646 10.2942 70.4625 11.5344 69.287C14.0413 66.9107 16.6655 64.5837 19.295 62.3346C20.8454 61.0089 22.5236 59.8079 24.017 58.4174C25.16 57.3529 26.0973 56.1059 27.2439 55.051C27.5556 54.7639 28.1565 54.3886 28.3931 54.111C28.7776 53.6588 29.1989 52.7612 29.6176 52.2086C31.0645 50.2985 33.0581 48.8768 34.7188 47.1569C35.8952 45.9385 36.8438 44.5229 38.1331 43.4092C38.2777 43.2846 38.5203 43.212 38.5859 43.0079C37.7661 43.0581 36.948 42.982 36.1247 42.982C32.9845 42.982 29.8208 42.8108 26.6719 42.886C24.991 42.9258 23.0693 42.9197 21.4182 43.0296C20.756 43.0737 20.0448 43.2769 19.3686 43.3158C18.7948 43.3486 18.18 43.3028 17.5983 43.3158C14.5187 43.3841 11.4214 43.5544 8.33828 43.6928C6.75902 43.7637 5.47844 43.391 3.99028 43.2673C3.35174 43.2146 2.61423 43.4092 1.93803 43.3599C0.830006 43.2803 -0.0397644 42.4061 0.00140321 41.2647C0.00490684 41.1721 0.283436 40.4985 0.342998 40.3731C0.639931 39.7445 1.57716 38.9801 2.08081 38.4586C5.54414 34.8717 8.93392 31.1395 12.4638 27.5908C14.9067 25.1349 17.7175 22.8416 20.3435 20.5683C21.6266 19.458 23.0614 18.3814 24.2132 17.1284C24.9542 16.3225 25.5901 15.3211 26.3364 14.51C26.8742 13.9263 27.5127 13.4395 28.0567 12.861C29.5238 11.301 30.991 9.767 32.4721 8.21566C35.2821 5.27386 37.2563 2.42372 40.9413 0.454739C41.4914 0.160732 41.515 -0.0191311 42.2858 0.00162235C44.3319 0.0561001 45.1684 1.97839 46.4884 3.14923C47.6962 4.22062 48.8901 5.10956 50.0463 6.283C52.872 9.15128 55.7932 11.9184 58.6416 14.7686C62.006 18.1341 65.2223 21.6829 68.6217 24.9982C69.5808 25.9339 70.5112 26.7589 71.389 27.7819C71.6648 28.1027 71.907 28.5177 72.1828 28.8359C74.5145 31.5209 77.0758 33.9992 79.4362 36.666C80.069 37.3811 81.0203 38.8504 81.861 39.2221C81.9541 39.2628 82.0948 39.2464 82.1634 39.3009C82.2425 39.3649 82.2068 39.4773 82.2425 39.5283L82.2411 39.53ZM44.9529 7.32933C44.6061 6.98689 44.2251 6.6799 43.8835 6.33488C43.5699 6.01839 42.757 4.9176 42.5188 4.75935C41.748 4.24656 40.999 4.51377 40.2239 4.81556C38.7988 6.7145 37.2117 8.48544 35.6744 10.2944C34.9326 11.1678 34.2861 12.1112 33.454 12.9103C33.1177 13.2337 32.7165 13.5086 32.3775 13.8278C30.8114 15.3003 29.9233 16.9693 28.1767 18.4489C22.6988 23.0889 17.4573 28.0066 12.4191 33.1094C11.4924 34.0485 10.514 34.9703 9.60046 35.9362C9.26327 36.2925 7.33448 38.3056 7.27316 38.5416C7.11727 39.1435 7.20659 39.3873 7.85654 39.4513C9.49273 39.6122 11.3829 39.1435 13.1129 39.1651C15.4462 39.1936 17.7823 39.2291 20.1288 39.2118C23.9601 39.185 27.7633 39.3303 31.5927 39.2628C32.6097 39.2447 33.6406 39.2888 34.6488 39.2628C36.567 39.2135 38.6218 38.9567 40.5664 38.8824C44.7593 38.7207 49.0758 39.0725 53.267 39.1175C58.0276 39.1686 62.747 39.4427 67.4962 39.5456C69.487 39.5888 71.7033 39.7237 73.6584 39.6753C74.5299 39.6537 75.3895 39.5119 76.261 39.4738C76.3464 39.4106 76.2729 39.4064 76.2358 39.3562C75.932 38.948 75.5526 38.699 75.2096 38.3427C73.3889 36.455 71.4982 34.6504 69.7183 32.7332C68.8161 31.7613 68.0453 30.6441 67.1422 29.7136C61.9341 24.3532 56.8696 18.8267 51.4565 13.6617C50.3818 12.6361 49.2028 11.7048 48.164 10.643C47.0928 9.54734 46.0636 8.42321 44.9547 7.32933H44.9529ZM44.6332 46.5351C44.2793 46.2697 43.8651 46.057 43.5287 45.763C43.3947 45.6462 43.0067 45.1196 42.8832 45.1723C42.8271 45.1957 42.1912 45.9178 42.0484 46.0483C41.8058 46.2697 41.4957 46.466 41.2583 46.6831C40.3018 47.5599 39.4005 48.7333 38.5124 49.7234C38.1673 50.1082 37.3212 51.3119 36.8683 51.4468C36.6555 51.51 36.2657 51.42 36.0126 51.5221C35.7147 52.1637 35.4222 52.8381 34.9545 53.376C34.0978 54.3618 32.6053 55.7921 31.5901 56.6542C30.9147 57.2284 30.1221 57.6841 29.4634 58.279C28.139 59.475 26.9548 60.8983 25.5709 62.1201C21.8579 65.4 17.9987 68.4715 14.4688 71.9486C13.408 72.9944 12.4542 74.1445 11.4329 75.221C10.4729 76.2318 9.34818 76.9983 8.23839 77.7697C7.56135 78.2401 6.87114 78.6951 6.20983 79.1858C6.47085 79.1984 6.73799 79.1697 6.99989 79.1837C8.58965 79.2719 10.1794 79.2838 11.7727 79.3748C13.366 79.4658 14.8156 79.4091 16.4509 79.4231C18.2474 79.4378 20.0535 79.5876 21.8465 79.659C25.2976 79.7976 28.9738 79.2425 32.4476 79.1872C37.8336 79.1025 43.1941 79.4077 48.5906 79.4189C54.4179 79.4322 60.3085 79.2705 66.1621 79.2782C69.5448 79.2824 72.9178 79.7052 76.2848 79.7969C77.0156 79.8165 77.752 79.8179 78.4814 79.8445C78.7789 79.855 79.1072 79.9579 79.411 79.9404C78.5682 78.9478 77.717 77.9573 76.7622 77.0641C75.8732 76.2333 74.868 75.506 73.9902 74.6632C71.3617 72.1362 68.7399 69.5516 66.255 66.8839C64.85 65.375 63.5922 63.8582 62.1023 62.4037C58.0433 58.4399 53.5832 54.936 49.6854 50.8086C49.2755 50.3746 48.9129 49.8029 48.4916 49.3948C47.5202 48.4531 45.7658 47.3861 44.6323 46.5343L44.6332 46.5351Z" fill="black"/>
</svg>
