<svg width="78" height="78" viewBox="0 0 78 78" fill="none" xmlns="http://www.w3.org/2000/svg">
<path d="M26.9799 52.0204C24.8984 54.4211 22.7207 56.695 20.5124 58.9712C19.0223 60.5072 17.6937 62.2124 16.221 63.7541C15.3176 64.7002 14.2135 65.5733 13.2991 66.5256C10.3434 69.6033 7.46483 72.8181 4.45635 75.8322C3.97987 76.3095 3.16868 77.0436 2.42523 76.8259C2.39451 76.8165 1.92591 76.5654 1.86448 76.5296C1.40769 76.2629 1.29428 75.4185 1.37462 74.9455C1.47779 74.3386 3.09623 72.7196 3.57113 72.1349C4.58315 70.8891 5.40617 69.5166 6.45204 68.2972C8.91713 65.423 11.8091 63.0492 14.4442 60.3437C17.0267 57.6934 19.5524 54.9295 22.1419 52.3168C23.2902 51.1577 25.0259 49.0256 26.7318 48.8023C27.3587 48.7203 27.7808 48.7538 28.0053 49.4332C28.3566 50.4957 27.6091 51.2939 26.9799 52.0204Z" fill="black"/>
<path d="M70.035 67.6399C72.2095 70.0057 74.4028 72.3046 76.6922 74.5742C76.9476 74.8268 77.2972 75.0374 77.5319 75.3191C77.962 75.837 78.1543 76.5376 77.8555 77.1369C77.8169 77.2142 77.8452 77.3372 77.7721 77.3951C77.6911 77.4592 77.5738 77.4083 77.4885 77.4545C77.3877 77.5092 77.2703 77.8692 77.0776 77.8569C76.7926 77.7787 76.3238 77.92 76.082 77.8267C75.5322 77.6166 74.4871 76.6804 74.0098 76.2587C71.8353 74.3377 69.8776 72.2749 67.8718 70.1965C66.1888 68.4518 64.3144 66.805 62.6743 65.0343C61.6184 63.8941 60.6661 62.6483 59.606 61.5113C58.4997 60.3245 57.2378 59.2196 56.1702 58.0129C55.4116 57.1558 54.7656 56.1937 54.0249 55.3225C53.3638 54.5469 52.5779 53.8293 51.9197 53.0608C51.4273 52.4865 51.1672 52.1665 51.1262 51.374C51.1083 51.0286 51.236 51.0932 51.2534 51.0282C51.2633 50.9905 51.2054 50.7469 51.2633 50.6767C51.2761 50.6611 51.3557 50.6804 51.3708 50.6611C51.4005 50.6225 51.3934 50.5513 51.424 50.5212C51.6525 50.2908 52.0351 50.4656 52.1906 50.3638C52.2589 50.319 52.2118 50.1061 52.5204 50.0726C52.7292 50.0491 52.8875 50.1626 52.994 50.1565C53.0552 50.1522 53.1056 50.082 53.1669 50.0764C53.664 50.0321 53.7672 50.442 54.2383 50.5438C56.9387 53.2818 59.4265 56.1904 62.008 59.0386C64.6419 61.9444 67.3827 64.7563 70.0345 67.6418L70.035 67.6399Z" fill="black"/>
<path d="M75.7551 3.27717C75.1096 3.91336 74.3698 4.49399 73.7083 5.1482C72.308 6.53482 71.0749 8.07325 69.7179 9.5037C68.4434 10.8473 66.9761 12.1329 65.7445 13.493C65.2191 14.0728 64.789 14.7333 64.2857 15.3295C63.1036 16.7287 61.8955 18.1051 60.7222 19.5121C59.2644 21.2602 57.8476 23.1594 56.215 24.7628C55.3146 25.6471 54.0019 27.0532 52.619 26.7559C52.1732 26.6604 51.678 26.4061 51.7463 25.8685C51.7666 25.7089 52.3952 24.6126 52.5243 24.4232C53.2838 23.312 54.4848 22.0498 55.3508 20.959C57.8759 17.7804 60.2497 14.5939 63.1036 11.6783C63.7693 10.9983 64.5845 10.492 65.2309 9.82296C66.1459 8.87609 67.0454 7.77665 67.9345 6.79147C69.8461 4.6732 71.6794 2.66602 73.7248 0.661206C74.1564 0.237864 74.7284 -0.0571458 75.3588 0.00936817C75.7292 0.0484941 75.7292 0.16822 75.9403 0.327072C76.0694 0.424888 76.3898 0.618951 76.4595 0.749632C76.5561 0.93274 76.476 1.42416 76.6626 1.65814C76.508 1.94924 76.4458 2.425 76.2941 2.68011C76.2159 2.81157 75.8814 3.15197 75.7551 3.2756V3.27717Z" fill="black"/>
<path d="M5.42821 2.75368C7.27659 4.69824 8.91633 6.80322 10.7687 8.73447C14.0843 12.1924 17.4692 15.6089 20.692 19.1435C22.4301 21.0505 24.4982 22.6563 26.16 24.5492C26.7342 25.2034 27.3603 25.8075 27.2083 26.745C27.1957 26.8224 26.9177 27.3804 26.8657 27.4281C26.3821 27.8749 25.0598 27.1323 24.6219 26.8044C23.669 26.0907 22.5372 24.9655 21.6355 24.1392C20.3352 22.9474 19.5729 22.0741 18.4521 20.7305C15.2035 16.8328 11.0593 13.4992 7.61131 9.78383C6.22365 8.28846 5.02734 6.48315 3.62074 5.04253C2.94974 4.3555 1.0777 2.85932 0.903647 1.98133C0.854027 1.73093 0.857966 1.09474 0.964287 0.869374C0.998942 0.795037 1.08557 0.822422 1.12889 0.776256C1.18165 0.71913 1.17457 0.616621 1.21867 0.565758C1.25175 0.528196 1.56677 0.219883 1.5904 0.20971C1.63214 0.189365 2.45751 0.00469017 2.50476 0.00390755C2.55989 0.00312492 3.44118 0.356825 3.51284 0.410817C3.97357 0.755128 4.43351 1.72467 4.84381 2.20357C5.01867 2.40781 5.25492 2.57057 5.42821 2.75368Z" fill="black"/>
<path d="M33.0377 53.2026C33.0581 53.213 33.0763 53.2893 33.118 53.3124C33.2866 53.4029 33.3763 53.3303 33.559 53.5155C33.8292 53.7902 33.693 53.8868 33.7441 54.0965C33.7898 54.2863 33.9709 54.3123 33.9063 54.701C33.7118 55.8733 32.1257 57.8932 31.4445 58.9972C30.1371 61.1156 28.9337 63.2849 27.624 65.4004C25.7102 68.4932 23.7098 71.5639 21.7661 74.6435C21.0872 75.7187 20.1138 78.191 18.6056 77.9884C18.467 77.9695 17.9298 77.6227 17.8235 77.4818C16.9572 76.3322 18.0503 75.1783 18.6166 74.2015C19.9066 71.9762 21.2565 69.797 22.5662 67.5853C24.6375 64.0882 26.4726 60.5035 28.7478 57.1271C29.2676 56.3562 31.0554 53.6375 31.6972 53.2724C32.1501 53.0146 32.5683 52.967 33.0385 53.2017L33.0377 53.2026Z" fill="black"/>
<path d="M56.0788 77.1492C56.0312 77.1812 56.0048 77.291 55.9077 77.3424C55.707 77.4507 54.9296 77.4394 54.7345 77.3245C54.702 77.3056 54.1776 76.9061 54.1517 76.8801C53.9194 76.6483 53.3657 75.5731 53.1928 75.2291C51.1493 71.1497 49.3033 66.9727 47.2697 62.8924C46.594 61.5373 45.8514 60.308 45.2985 58.8765C45.089 58.3342 44.963 57.7537 44.7306 57.2218C44.5936 56.9079 44.2046 56.3779 44.1313 56.0674C44.1053 55.9562 44.0856 55.167 44.114 55.0737C44.2077 54.7632 44.4321 54.5394 44.5921 54.3099C44.6676 54.201 44.6558 53.989 44.685 53.9428C44.6929 53.9306 44.8543 53.7709 44.8811 53.7449C45.1701 53.4688 45.7387 53.4943 46.1042 53.5946C47.4299 53.9584 47.9755 55.7465 48.4589 56.8453C50.2484 60.9106 51.8895 65.0522 53.7394 69.0954C54.6195 71.0168 55.7763 73.0099 56.4835 74.9893C56.6574 75.476 56.7874 75.8864 56.6993 76.4198C56.6187 76.9042 56.4072 76.9254 56.0802 77.1492H56.0788Z" fill="black"/>
<path d="M58.6768 0.523449C58.7098 0.544581 58.7037 0.697171 58.7334 0.723774C58.78 0.7629 59.0863 0.771509 59.1928 0.928014C59.2738 1.04774 59.2361 1.1972 59.2691 1.31849C59.417 1.85139 59.4142 1.91633 59.263 2.48288C58.7762 4.30771 57.7444 5.59573 56.8868 7.20616C56.4156 8.08886 56.0816 9.04196 55.6415 9.93795C55.094 11.0499 54.4179 12.1337 53.8666 13.2527C53.0444 14.921 52.4257 16.6129 51.7044 18.3164C51.2082 19.4862 49.7721 22.5975 48.6954 23.179C48.1046 23.4982 46.9894 23.7956 46.5948 23.0999C45.7624 21.6335 47.2697 18.4666 48.0122 17.0792C48.7369 15.7262 49.7608 14.4765 50.5321 13.1392C51.6384 11.2197 52.519 9.18359 53.5655 7.23434C54.2044 6.04491 55.0422 4.98853 55.7108 3.81864C56.2441 2.88588 57.0183 0.593875 58.1915 0.476501C58.2278 0.472585 58.6556 0.511712 58.6759 0.524236L58.6768 0.523449Z" fill="black"/>
<path d="M1.24943 56.9734C1.21399 56.9522 0.689474 56.4141 0.668997 56.3779C0.327984 55.7701 0.572128 54.7957 1.11082 54.3669C1.64952 53.9381 2.09606 53.8976 2.63869 53.6238C3.58692 53.1447 4.56271 52.3818 5.53456 51.8503C6.571 51.284 7.65626 50.8533 8.6919 50.294C10.7325 49.1929 12.703 47.9269 14.7593 46.8501C15.995 46.203 17.3165 45.7131 18.5483 45.0683C19.1925 44.7311 19.9832 44.0409 20.6739 43.8945C20.8613 43.8546 21.1622 43.8828 21.3417 43.8327C21.6371 43.7514 21.7773 43.5432 22.2104 43.501C22.8736 43.4368 23.6753 43.4806 23.7769 44.2897C23.8919 45.2092 23.1342 46.0129 22.4412 46.5042C20.5306 47.8595 18.2774 48.6247 16.162 49.567C15.4996 49.862 14.89 50.2761 14.2458 50.6078C11.6587 51.9389 9.07153 53.3223 6.57416 54.8046C5.44715 55.4727 3.06398 57.1784 1.81727 57.1176C1.71803 57.1129 1.32819 57.022 1.24865 56.9744L1.24943 56.9734Z" fill="black"/>
<path d="M26.6665 1.44447C26.7185 1.49769 26.865 1.52272 26.9564 1.60489C27.2399 1.86077 27.3076 2.55643 27.4391 2.91796C28.1716 4.92511 29.0701 6.8697 29.7569 8.89405C30.1798 10.1398 30.5011 11.4185 30.8934 12.6728C31.11 13.3654 31.425 14.0251 31.6132 14.7316C31.7928 15.4093 31.8951 16.1081 32.0763 16.7897C32.4197 18.0754 32.9229 19.415 33.2104 20.6992C33.4238 21.6507 33.4647 23.294 32.2881 23.6414C32.0786 23.7032 31.9322 23.6813 31.7676 23.5421C30.7453 22.6789 30.32 21.2367 29.8514 20.0692C29.5081 19.2147 29.0993 18.3759 28.7677 17.519C27.9731 15.4657 27.3493 13.2793 26.6319 11.1916C26.3956 10.5053 26.0656 9.84795 25.8514 9.14995C25.356 7.53405 25.1528 5.79843 24.6677 4.18094C24.3928 3.2654 23.9132 2.75989 24.3156 1.80052C24.3479 1.72227 24.3329 1.59315 24.3755 1.52899C24.4283 1.44995 24.5865 1.48595 24.659 1.4163C24.7196 1.35762 24.7102 1.18546 24.8078 1.13773C24.8354 1.12442 25.3544 0.964005 25.3978 0.956183C25.6891 0.906884 26.331 1.036 26.55 1.24102C26.6311 1.31692 26.6374 1.41474 26.6665 1.44447Z" fill="black"/>
<path d="M22.4167 30.17C22.571 30.3609 22.69 30.4994 22.8057 30.7436C23.0735 31.3093 23.3247 32.2038 22.5238 32.4581C20.8061 33.0035 19.4295 32.1013 17.9063 31.5175C13.4046 29.7913 8.91629 28.0642 4.45867 26.2339C3.59314 25.8787 0.940626 24.9474 0.401144 24.4201C0.0380773 24.0655 -0.191891 23.0936 0.217642 22.7259C0.26017 22.6883 0.365704 22.7071 0.411382 22.6625C0.446823 22.6281 0.453911 22.5052 0.505892 22.4364C0.698056 22.1828 0.878408 22.2869 1.1194 22.2353C1.2021 22.2173 1.2714 22.1429 1.35331 22.1265C2.01959 21.9935 5.37696 23.4693 6.2378 23.7823C10.7686 25.4303 15.6381 26.8388 20.028 28.7685C20.7959 29.1058 21.9017 29.5338 22.4167 30.1716V30.17Z" fill="black"/>
<path d="M77.5215 20.6733C77.6068 20.8392 77.5917 21.4175 77.5215 21.6154C77.2586 22.3502 75.5869 23.1734 74.8707 23.5467C73.9368 24.0342 72.9379 24.3942 72.0074 24.8833C70.0091 25.9334 68.0259 27.0868 66.039 28.1698C65.3751 28.5322 64.7206 29.0173 64.052 29.353C62.8991 29.9313 61.739 30.3859 60.5865 31.0299C59.9632 31.3781 59.3068 31.9627 58.6067 32.0926C58.3447 32.1411 58.0427 32.1121 57.8127 32.1568C57.6247 32.1936 57.3331 32.4252 57.1182 32.4909C56.582 32.656 55.936 32.4706 55.4922 32.1396C55.0163 31.7859 54.9763 31.2811 55.2133 30.7678C55.8658 29.3538 58.3447 28.6182 59.6795 27.9945C61.2184 27.2754 62.7417 26.453 64.2353 25.6525C65.1815 25.1454 66.0399 24.8864 67.011 24.4842C69.2199 23.5694 71.3906 22.2595 73.5392 21.1569C74.522 20.653 75.4955 19.8305 76.6909 20.0277C77.0546 20.088 77.1879 20.3063 77.358 20.5598C77.3995 20.6216 77.5121 20.6553 77.5215 20.6733Z" fill="black"/>
<path d="M39.9927 54.5681C40.0376 54.6166 40.0636 54.7631 40.1541 54.8555C40.2376 54.9398 40.3424 54.9587 40.414 55.0237C40.6062 55.1994 40.7007 56.0706 40.7346 56.3694C40.8732 57.5925 40.9472 58.9754 40.9945 60.2085C41.1355 63.9223 41.2875 67.6738 41.5954 71.3494C41.7167 72.7912 41.9183 74.3117 41.9821 75.7455C41.9994 76.1281 41.986 76.7336 41.7679 77.061C41.6915 77.1751 41.2402 77.4936 41.1103 77.5708C40.9945 77.6401 40.6393 77.7626 40.5219 77.7113C40.325 77.6236 40.4983 77.6415 40.2046 77.5987C39.6029 77.511 39.8557 77.5101 39.5186 77.1925C39.3438 77.0271 39.1933 77.0436 39.0831 76.7501C38.5389 75.297 38.6483 73.9112 38.5452 72.419C38.2081 67.5296 38.0238 62.6223 37.7308 57.7344C37.6875 57.0168 37.5765 55.6122 37.9513 55.0096C38.0978 54.774 38.7625 54.3419 39.0421 54.3395C39.1374 54.3386 39.9525 54.5242 39.9927 54.5681Z" fill="black"/>
<path d="M55.4083 45.1325C56.8704 45.0613 58.4799 46.0097 59.771 46.6224C61.3824 47.3869 63.015 48.2689 64.6349 49.0007C67.8874 50.4693 71.0961 51.9719 74.2384 53.6658C74.9786 54.0649 75.9224 54.3692 76.5806 54.7518C77.0918 55.0487 77.3793 55.5957 77.2459 56.1819C77.2384 56.2153 77.1366 56.4518 77.1201 56.4745C77.0405 56.5833 76.9462 56.54 76.8892 56.5861C76.7658 56.6865 76.6932 56.9522 76.5198 56.9876C75.5426 57.1831 74.2921 56.5626 73.3988 56.1668C70.1029 54.7043 66.8268 53.2036 63.5187 51.7759C61.1397 50.7487 58.9101 49.4417 56.607 48.276C55.7471 47.8402 55.4305 47.8543 54.7539 47.0448C54.3948 46.6154 53.9161 45.8485 54.5037 45.3861C54.6422 45.2765 55.2288 45.1427 55.4093 45.1341L55.4083 45.1325Z" fill="black"/>
<path d="M1.26124 37.4208C1.29825 37.3989 1.32739 37.3363 1.41166 37.2948C2.23939 36.891 5.98739 36.9614 7.09706 36.9786C8.26661 36.9966 9.26838 37.1039 10.4466 37.0561C11.2003 37.0256 11.5744 37.0647 12.2974 37.1352C12.9188 37.1962 13.8268 36.9716 14.4821 36.9278C15.5705 36.855 16.6573 36.9153 17.7465 36.9294C19.1082 36.9466 21.4394 36.7775 22.4892 37.8019C23.1752 38.4709 22.3876 39.165 21.8151 39.5234C19.9942 40.6628 15.7445 40.4382 13.5779 40.3826C11.6712 40.3341 9.77635 40.1377 7.87125 40.0414C6.66471 39.9804 5.46839 40.1956 4.265 40.2151C3.32072 40.2308 1.57941 40.2989 0.809962 39.8051C0.769794 39.7793 0.431144 39.3622 0.429569 39.3317C0.424056 39.2558 0.505964 39.2002 0.504386 39.1251C0.501239 38.9545 0.242917 38.8152 0.358689 38.4654C0.371289 38.4263 0.717032 37.7706 0.745383 37.7401C0.783972 37.6993 1.16988 37.4755 1.26124 37.4208Z" fill="black"/>
<path d="M56.2852 39.1831C56.3243 38.9233 56.1443 38.7433 56.1952 38.4866C56.2046 38.4405 56.4727 37.9913 56.5127 37.949C56.5387 37.9217 57.0522 37.5899 57.0838 37.5781C57.2365 37.5226 57.4033 37.5859 57.5324 37.5586C59.148 37.219 60.1403 37.5187 61.7112 37.4834C65.0118 37.4099 68.3694 37.1376 71.6695 37.4396C72.1562 37.4842 72.6562 37.6071 73.1311 37.6517C74.2902 37.7597 76.5796 37.5899 77.2963 38.6329C77.588 39.0563 77.6374 39.9038 77.2925 40.2974C77.2454 40.3514 77.1389 40.3545 77.0767 40.4242C76.9735 40.5407 76.9363 40.7113 76.7973 40.7873C76.7577 40.8084 76.0529 40.9844 76.0072 40.9852C75.6491 40.9915 75.0738 40.8365 74.6756 40.8115C74.2346 40.7841 73.7738 40.8264 73.345 40.8107C69.9903 40.6894 66.644 40.6472 63.3005 40.5572C61.6702 40.5134 57.7925 40.3835 56.5179 39.399C56.4251 39.327 56.4647 39.1729 56.2856 39.1831H56.2852Z" fill="black"/>
<path d="M40.163 22.7838C39.9346 23.0631 39.8866 22.9974 39.6298 23.1077C39.6062 23.1179 39.5975 23.2094 39.5526 23.2235C39.4447 23.258 39.403 23.1203 39.3321 23.1038C39.2069 23.0741 39.0612 23.2071 38.8305 23.0913C38.7966 23.0741 38.3304 22.5717 38.313 22.5388C37.9106 21.7673 38.1626 21.3244 38.2043 20.5591C38.3878 17.1786 38.4358 13.7793 38.4587 10.4004C38.476 7.83141 38.4682 5.09807 38.7186 2.54626C38.7383 2.34202 38.8746 1.35213 38.9564 1.24571C39.0517 1.12285 39.3471 0.91627 39.4589 0.762893L40.4127 0.519531C41.2916 1.10094 41.4869 2.57912 41.5539 3.56744C41.7192 6.01206 41.772 8.63505 41.5514 11.0804C41.5089 11.553 41.3774 12.0179 41.3381 12.4905C41.2499 13.5454 41.3184 14.6691 41.253 15.7356C41.2113 16.4172 41.0876 17.1027 41.0372 17.7835C40.9348 19.1607 41.0537 21.6914 40.163 22.783V22.7838Z" fill="black"/>
</svg>
