<svg width="140" height="140" viewBox="0 0 140 140" fill="none" xmlns="http://www.w3.org/2000/svg">
<path d="M59.7417 137.737C59.2678 137.232 59.5386 136.85 59.4879 136.336C59.4695 136.148 59.3553 136.024 59.3356 135.87C59.0591 133.707 63.5741 129.497 64.7744 127.609C65.2991 126.785 65.7012 125.899 66.2654 125.094C67.1554 123.822 68.3374 122.777 69.2344 121.518C70.0666 120.351 71.2881 118.631 72.0033 117.432C72.6365 116.372 73.0019 115.103 73.7072 114.051C74.6888 112.585 75.7002 111.902 76.49 110.135C78.2815 106.129 79.8838 101.892 81.558 97.874C82.4199 95.8032 83.259 93.6005 84.1069 91.4737C85.7402 87.3729 87.3439 83.5602 88.0788 79.1163C88.4173 77.0654 88.6726 75.5079 89.1423 73.4743C89.9618 69.9184 90.1537 66.2375 90.5387 62.6138C90.8166 60.0028 90.5796 57.2577 90.5444 54.6863C90.5204 52.857 90.6981 51.0288 90.6318 49.203C90.6262 49.0653 90.4724 49.0969 90.471 49.049C90.4372 48.3175 90.5387 47.4927 90.4781 46.7355C90.4668 46.5943 90.3201 46.6317 90.3173 46.5804C90.0338 41.6722 89.3482 36.7523 88.705 31.8582C88.6105 31.1348 88.6909 30.2295 88.5443 29.5505C87.949 26.7762 84.8854 20.8635 83.3057 18.3797C82.5058 17.1244 78.6708 12.6829 77.3407 12.4029C77.1545 12.3632 76.9937 12.4892 76.7665 12.4518C76.5817 12.4215 76.3941 12.2185 76.2109 12.1555C74.0456 11.4112 71.6959 10.332 69.5589 9.41851C68.9256 9.14785 68.3684 8.72668 67.7083 8.49801C66.4952 8.07801 64.3597 7.73735 63.0493 7.54018C55.4129 6.40268 48.2898 10.6984 42.6041 15.3149C38.862 18.3529 35.948 20.7469 33.1241 24.7777C30.3003 28.8085 28.7601 33.7062 26.7162 38.1675C25.1618 41.559 23.4325 44.9003 22.3225 48.489C21.6018 50.8188 21.3831 52.9492 20.359 55.2324C18.7426 58.835 16.1261 62.013 13.3009 64.7325C11.6718 66.3017 6.5714 69.3117 4.40204 69.8425C3.19466 70.1389 1.09723 70.1062 0.655741 68.6408C0.336967 67.5838 0.875785 67.5803 1.4019 66.9503C3.58254 64.3393 6.40637 63.2835 8.66035 61.082C14.0428 55.8262 16.0513 49.1225 19.0515 42.4317C20.8344 38.4557 22.5651 34.531 24.2308 30.5072C26.097 25.998 31.0619 17.3903 34.766 14.315C35.7646 13.4867 36.9028 12.8019 37.948 12.0318C42.0597 9.00552 46.0585 6.29418 50.7428 4.19768C53.2831 3.06251 57.4272 1.54934 60.2058 1.83168C60.8406 1.89701 61.7193 2.33219 62.2158 2.36836C62.5275 2.38936 62.9013 2.22368 63.2158 2.20968C66.5531 2.05918 69.7126 2.99252 72.8285 4.05535C78.9895 6.15652 84.9729 9.88284 88.1466 15.7593C89.7417 18.7145 93.6869 26.3503 93.5431 29.4572C93.5347 29.6543 93.3907 29.8072 93.4006 30.0697C93.4275 30.8175 94.1017 32.354 94.2977 33.187C96.2865 41.6197 95.9762 50.1748 96.3923 58.7685C96.4417 59.7753 96.7097 60.8965 96.7055 61.9313C96.7013 62.965 96.4445 64.1667 96.3923 65.2388C96.2471 68.257 96.2541 70.9368 95.6039 73.9317C95.4022 74.8627 95.0284 75.7808 94.8167 76.6897C94.4035 78.4607 94.2949 80.2935 93.8972 82.0902C92.8534 86.7988 90.6727 90.7422 88.9012 95.1242C88.2551 96.7214 87.7939 98.3897 87.1268 99.9763C85.6795 103.42 83.9911 106.793 82.5172 110.237C81.7837 111.952 81.345 113.734 80.2956 115.334C79.7667 116.142 78.9458 116.849 78.4916 117.69C77.9514 118.69 77.6242 119.905 77.0572 120.954C76.2827 122.388 75.0105 124.614 74.0824 125.913C73.3263 126.971 72.2741 127.906 71.5252 128.977C70.6308 130.255 69.9862 131.651 68.982 132.906C68.1456 133.952 67.3303 134.911 66.5136 135.982C65.0114 137.95 64.3597 139.649 61.519 139.231C61.4556 139.221 60.6021 138.836 60.5627 138.802C60.3821 138.647 60.447 138.382 60.3342 138.182C60.2213 137.983 59.8744 137.879 59.7417 137.736V137.737Z" fill="black"/>
<path d="M45.8487 130.952C46.3621 130.339 46.7965 129.484 47.3044 128.827C49.7402 125.679 52.3949 122.687 54.6728 119.405C59.0298 113.129 62.4023 106.339 65.7029 99.4688C66.2417 98.3488 66.6296 97.1483 67.2121 96.0481C68.4125 93.7801 69.6312 92.1876 70.7314 89.7003C72.6581 85.3404 74.3705 81.1043 75.836 76.5414C77.0462 72.7731 77.9912 67.9863 78.3242 63.9321C78.475 62.0911 78.3791 60.2268 78.4765 58.3788C78.6288 55.4714 79.1973 51.8198 78.9391 48.9766C78.8601 48.1004 78.5046 48.0374 78.1591 47.3678C77.2606 45.6248 77.0941 44.0894 76.7895 42.1878C76.5878 40.9266 76.2986 39.9186 76.0433 38.6936C75.7881 37.4686 75.7795 36.1234 75.5356 34.8844C74.5566 29.9203 72.4043 26.8788 68.6367 23.6821C67.1162 22.3929 61.7818 21.0209 59.7534 20.8704C56.371 20.6208 48.0363 21.6988 45.4213 23.9213C44.1673 24.9876 42.9699 27.5566 42.0177 28.9893C41.2801 30.1011 40.3279 31.1336 39.6326 32.2268C37.7594 35.1773 36.3264 38.7951 34.6887 41.9194C33.3615 44.4511 31.6336 46.9793 30.4304 49.5249C29.0989 52.3413 28.9903 55.2264 27.9607 58.0743C25.9196 63.7139 23.701 70.7898 20.6669 75.8963C18.1238 80.1779 10.6411 86.0463 5.46875 85.6356C2.71263 85.4174 -0.476501 83.9614 0.059491 80.6843C0.106038 80.3996 0.592649 79.9294 0.822562 79.7451C2.61532 78.3136 5.40531 78.5201 7.57043 78.0289C9.84698 77.5133 13.0785 75.8356 14.8119 74.2641C15.867 73.3098 16.1985 72.0603 16.8741 70.8586C19.0266 67.0308 20.4427 63.6264 22.2819 59.7029C22.8179 58.5608 23.5514 57.5481 24.0521 56.3896C24.6545 54.9943 24.969 53.4881 25.5177 52.0764C27.1679 47.8333 29.8085 43.9809 31.7169 39.8649C32.298 38.6131 32.3629 37.6763 32.7691 36.4478C33.133 35.3476 33.8919 34.4959 34.3023 33.4366C34.5068 32.9069 34.5942 32.3341 34.8143 31.7904C35.3545 30.4558 36.3236 29.4688 36.971 28.2473C37.2841 27.6569 37.4774 26.9161 37.83 26.3316C38.4492 25.3049 40.4859 23.3204 41.4705 22.5796C42.455 21.8388 45.3409 19.8286 46.3636 19.3899C46.8784 19.1694 47.4426 19.1636 47.9743 18.9991C49.5413 18.5173 51.1719 17.4498 52.7588 16.8571C58.1003 14.8656 65.1952 15.6578 70.3576 17.9491C71.6849 18.5371 75.1646 21.2951 76.2507 22.3719C79.3213 25.4204 81.1593 29.6216 81.8405 33.8846C82.0126 34.9626 81.9985 36.0756 82.1946 37.1548C82.502 38.8406 83.0085 40.1449 83.0988 41.9544C83.1565 43.1118 82.9506 44.4838 83.0254 45.5699C83.0705 46.2361 83.6403 47.3001 83.8265 48.0106C84.615 51.0101 84.3498 54.6618 84.3287 57.7686C84.2807 64.8316 83.8378 71.2529 81.8095 78.0663C80.1973 83.4819 78.059 89.6909 75.3691 94.6633C74.5242 96.2243 73.2844 97.4714 72.4705 98.9274C71.6101 100.466 70.9021 102.423 70.0642 104.071C64.4265 115.17 58.4784 125.474 50.9054 135.365C50.1662 136.33 48.0476 139.051 47.0293 139.42C46.2197 139.714 45.1604 139.74 44.3577 139.401C44.2759 139.368 43.1165 138.447 43.0715 138.377C42.936 138.162 42.4099 136.444 42.4325 136.199C42.6637 133.664 44.4508 132.621 45.8487 130.95V130.952Z" fill="black"/>
<path d="M61.6882 95.0169C60.973 96.5254 60.2678 98.1435 59.516 99.6637C57.8263 103.079 55.6499 106.194 53.8332 109.541C51.0756 114.624 47.744 119.886 44.0005 124.279C38.4699 130.393 32.0606 135.846 23.8077 137.726C22.3901 138.048 19.95 138.602 18.6001 138.089C17.7834 137.778 16.7453 136.581 16.916 135.679C17.0528 134.951 17.4619 134.951 17.8793 134.633C20.0374 132.999 21.1065 133.079 23.558 132.311C25.4213 131.725 27.4201 130.76 29.1155 129.787C31.4244 128.463 32.8715 126.742 34.8011 125.001C37.1172 122.914 39.4996 121.072 41.4475 118.559C43.4942 115.919 46.0287 112.324 47.7834 109.492C49.0487 107.447 50.0346 105.082 51.2448 103.016C55.1858 96.2827 58.2988 89.2582 61.471 82.1182C62.6939 79.366 63.8012 76.4412 64.7927 73.5747C65.1651 72.4967 65.3513 71.3312 65.7335 70.2777C66.1158 69.223 66.4825 68.6689 66.7519 67.5209C68.185 61.4297 68.8141 55.1577 68.1638 48.909C67.8733 46.1254 67.4896 43.1142 65.9296 40.7389C65.0368 39.3785 62.7743 36.9857 61.2693 36.3895C58.8037 35.4154 55.8572 34.937 53.2943 34.2044C51.1334 35.3115 48.3279 36.1095 46.9639 38.2714C46.6818 38.7159 46.5295 39.2677 46.2714 39.7344C45.5323 41.0667 44.4843 42.343 43.8073 43.7407C43.5519 44.2669 43.4419 44.9634 43.1964 45.5187C42.9384 46.1009 42.4758 46.6247 42.2232 47.1649C41.9144 47.8252 41.7944 48.6955 41.5052 49.3757C40.5899 51.5364 39.4304 53.6457 38.7196 55.9114C38.3965 56.9392 38.3853 58.1105 38.0722 59.1944C37.8648 59.9142 37.4967 60.5675 37.285 61.2582C36.7561 62.9767 36.4148 64.3499 35.7998 66.0905C35.3075 67.4824 35.0466 68.9699 34.5515 70.3127C34.1256 71.4677 33.4033 72.611 32.9026 73.7485C31.3723 77.2205 30.3101 80.871 29.1338 84.4655C28.3142 86.9715 26.0222 90.4552 23.8613 91.9788C23.2224 92.428 22.5411 92.7652 21.8923 93.2412C18.3152 95.8697 15.5083 99.0699 11.1936 100.709C8.48397 101.739 1.44695 103.107 0.0717146 99.6205C-0.0820305 99.232 0.154953 97.6582 0.338319 97.2254C1.30452 94.9469 6.83791 93.6262 8.99457 92.645C9.82958 92.2647 10.6844 91.6452 11.501 91.2264C12.4165 90.7574 13.4166 90.4109 14.322 89.8905C15.2276 89.3702 16.0273 88.6959 16.9597 88.2187C17.9583 87.7089 19.9767 87.2515 20.6087 86.4804C21.0615 85.9262 21.4775 85.1399 21.9627 84.5215C22.8613 83.3759 23.2097 82.9372 23.8599 81.5675C25.6018 77.8972 27.2239 74.1755 28.987 70.5169C30.2932 67.8067 31.3948 63.7234 32.1141 60.7752C32.3695 59.731 32.9167 58.7884 33.1805 57.7582C33.4443 56.7292 33.4908 55.7667 33.8181 54.7739C34.2948 53.333 35.1637 51.2144 35.787 49.8097C36.1256 49.0467 36.6828 48.2825 36.9677 47.5242C37.1919 46.928 37.2737 46.3225 37.5319 45.6995C37.79 45.0754 38.2682 44.4815 38.5065 43.9005C38.7011 43.4269 38.7407 42.861 38.9142 42.3827C39.1808 41.6547 40.0525 39.9269 40.4488 39.2187C40.9665 38.2947 41.5392 37.5515 42.0907 36.547C43.5717 33.845 45.7086 32.893 48.3575 31.5735C50.1601 30.6752 50.8654 30.8152 52.7498 30.7417C53.3295 30.7195 54.3071 30.296 54.994 30.2085C57.5625 29.8819 62.9463 31.0065 65.0748 32.494C71.4588 36.9565 73.1049 43.631 73.5322 51.058C73.9215 57.8375 72.9045 63.5927 71.4404 70.14C69.4714 78.946 65.5262 86.9167 61.6854 95.0133L61.6882 95.0169Z" fill="black"/>
<path d="M30.9284 111.056C31.3036 110.585 31.6125 109.933 31.9721 109.44C35.2333 104.972 39.5014 101.038 42.4 96.3795C43.5355 94.5548 43.9515 92.5154 44.9107 90.6476C45.7217 89.0679 46.9277 87.5629 47.8277 86.0148C49.5032 83.1378 51.2016 79.7661 52.6825 76.7724C53.5232 75.0738 53.9506 73.0601 54.7829 71.3206C55.2638 70.3149 56.0579 69.3816 56.4698 68.3864C57.0664 66.9409 57.2611 64.9728 57.663 63.4141C58.5616 59.9409 59.807 56.9426 59.7972 53.2104C59.7944 51.8629 59.6717 48.4574 58.5122 47.6373C54.5416 44.8268 53.1635 49.3453 52.5909 52.3903C51.8673 56.2368 52.0196 59.4369 50.5485 63.2193C50.0153 64.5913 49.128 65.8618 48.6993 67.3026C47.2126 72.3111 47.2818 76.9346 44.812 81.7564C42.6469 85.9856 40.3915 88.7214 37.6622 92.4758C35.3573 95.6468 33.3544 99.0394 30.4995 101.794C29.9226 102.352 29.1103 102.843 28.5248 103.399C28.0326 103.869 27.6292 104.499 27.1623 104.964C25.3935 106.721 23.3117 108.212 21.1663 109.478C16.2465 112.379 11.3802 114.913 5.54211 115.323C3.80437 115.445 1.43474 115.195 0.942472 113.146C0.763337 112.402 1.05953 111.945 1.53346 111.418C2.91576 109.878 6.93145 109.261 8.96257 108.573C12.5156 107.369 16.9474 105.552 20.2438 103.771C22.4738 102.566 23.1988 101.449 24.9591 99.8631C25.4993 99.3766 26.237 98.9344 26.7688 98.4398C29.4093 95.9886 31.2726 92.582 33.3234 89.6688C35.8454 86.0871 38.2813 82.964 40.4774 79.107C42.4917 75.5685 43.2745 70.0513 44.5143 66.0368C45.2591 63.6264 46.6061 60.7553 46.8656 58.2166C46.9729 57.1654 46.8219 56.1049 46.9729 55.0083C47.5568 50.7919 48.5441 46.2478 52.5641 44.0369C55.8125 42.2508 61.4996 42.9566 62.8481 46.8346C63.7437 49.4106 63.0822 56.7338 62.628 59.6026C62.3346 61.4483 61.7592 63.3546 61.3558 65.1898C61.044 66.6084 60.8775 68.1158 60.5109 69.5076C60.1201 70.9904 59.4008 72.8524 58.8916 74.3621C57.2709 79.1699 54.9606 84.2951 52.4259 88.6969C51.3595 90.5484 49.9011 92.2214 49.0689 94.1978C48.1478 96.3853 47.8064 97.804 46.4003 99.8491C45.0983 101.741 43.4494 103.9 42.0304 105.722C40.933 107.13 39.5352 108.262 38.4182 109.655C35.9893 112.686 33.9708 116.332 30.9185 118.867C30.2824 119.397 29.4797 119.792 28.8126 120.303C23.5373 124.344 16.908 128.548 10.4888 130.457C7.85675 131.239 4.98073 131.916 2.97076 129.624C2.88895 129.53 2.43758 128.458 2.43617 128.392C2.43335 128.071 2.88471 127.914 2.88894 127.853C2.88894 127.839 2.76202 127.742 2.74228 127.617C2.66046 127.1 2.58569 126.77 2.92985 126.346C3.11886 126.114 3.37699 126.05 3.50253 125.918C3.64358 125.77 3.71128 125.568 3.85374 125.421C4.92713 124.309 7.51543 124.146 8.98376 123.703C9.78633 123.461 10.524 123.002 11.3083 122.719C15.0743 121.364 20.3652 119.286 23.6487 117.05C26.2215 115.299 28.9649 113.517 30.9298 111.051L30.9284 111.056Z" fill="black"/>
<path d="M137.51 123.86C137.346 124.076 136.297 125.094 136.073 125.158C133.999 125.746 132.128 125.626 130.154 124.693C129.623 124.443 129.261 124.081 128.758 123.856C126.228 122.726 124.241 122.333 121.855 120.6C116.839 116.955 114.628 111.885 111.454 106.818C110.553 105.379 109.569 104.238 108.591 102.905C105.104 98.1448 100.01 90.9301 99.7006 84.909C99.5808 82.5721 99.9715 80.7439 100.163 78.5051C100.595 73.4523 100.574 68.3749 100.859 63.3174C101.096 59.0953 102.083 54.6573 102.469 50.4363C102.778 47.06 102.527 43.4619 102.859 40.0308C103.028 38.2656 103.661 36.2298 103.708 34.4774C103.759 32.5898 103.656 30.3929 103.63 28.4668C103.573 24.0463 102.166 15.3733 99.5822 11.7764C97.9756 9.53877 94.922 7.31395 92.4507 6.12745C91.8696 5.84862 91.0134 5.68995 90.4986 5.38428C88.9639 4.47428 89.0345 2.53528 90.3971 1.47245C91.6044 0.532112 93.4099 0.753776 94.7456 1.27994C101.785 4.04728 105.724 8.88662 107.694 16.1316C109.185 21.6161 110.508 28.9929 109.354 34.5929C109.248 35.1039 108.787 36.3744 108.772 36.7139C108.728 37.6893 108.849 38.9843 108.851 40.0249C108.852 43.2158 108.822 46.7123 108.622 49.8973C108.514 51.6158 108.026 53.4358 107.789 55.1519C107.296 58.7091 106.872 62.2138 106.628 65.785C106.267 71.0699 105.877 76.3794 105.622 81.6633C105.258 89.1918 111.05 95.8849 115.101 101.697C116.83 104.176 118.362 106.813 120.018 109.334C122.14 112.568 124.225 115.152 127.642 117.111C128.926 117.847 129.495 117.914 130.848 118.291C131.641 118.511 132.487 118.997 133.224 119.145C134.959 119.497 136.135 119.342 137.368 120.927C137.545 121.154 137.952 122.004 137.864 122.24C137.826 122.346 137.66 122.431 137.645 122.529C137.578 122.928 137.868 123.386 137.511 123.858L137.51 123.86Z" fill="black"/>
<path d="M117.514 5.93982C121.331 10.3685 121.874 13.6165 122.385 19.3682C123.391 30.6918 121.786 41.5932 121.229 52.8282C121.105 55.3272 121.278 57.9825 121.082 60.4675C121.004 61.4475 120.713 62.4182 120.619 63.3947C120.534 64.2662 120.607 65.1517 120.544 66.0185C119.809 76.0833 118.784 85.3455 125.43 93.728C127.824 96.7461 132.113 101.424 135.311 103.484C136.498 104.249 138.441 104.849 139.139 106.122C139.482 106.747 139.5 108.214 139.181 108.841C139.144 108.914 138.138 109.995 138.066 110.037C137.996 110.078 136.701 110.425 136.553 110.446C134.542 110.734 130.789 107.772 129.334 106.429C126.449 103.766 123.554 100.68 121.039 97.669C116.541 92.2813 113.958 85.5147 113.847 78.433C113.753 72.4387 115.083 66.4887 115.507 60.5258C115.71 57.6652 115.256 54.5805 115.385 51.6697C115.463 49.8718 115.811 48.074 115.925 46.2738C116.386 39.0207 117.163 31.771 117.616 24.5307C117.857 20.6877 117.717 14.747 115.119 11.6927C114.571 11.0463 113.82 10.4782 113.263 9.89249C112.554 9.14583 111.881 8.21249 111.122 7.52766C109.917 6.44149 108.056 5.49415 107.252 4.08365C106.776 3.25182 106.459 2.19016 106.871 1.25916C106.92 1.14599 107.032 1.14833 107.088 1.07133C107.805 0.0936594 109.308 -0.14784 110.431 0.357327C110.891 0.563827 111.661 1.26499 112.184 1.60565C114.654 3.21099 115.524 3.62982 117.514 5.93749V5.93982Z" fill="black"/>
<path d="M103.438 114.893C102.403 111.873 98.0539 108.169 94.6518 109.528C94.0227 109.78 92.835 110.665 92.3554 111.158C91.3131 112.231 89.1226 116.713 88.5697 118.234C86.5244 123.872 85.9743 129.596 82.3084 134.625C81.4593 135.791 78.4776 138.653 77.17 139.111C75.2856 139.773 72.6719 138.464 73.4434 136.144C74.184 133.914 75.9964 132.927 77.1558 131.154C80.74 125.683 80.9699 118.83 84.1548 113.19C85.3283 111.113 86.6599 108.467 88.3962 106.88C94.302 101.48 101.003 103.065 106.085 108.575C109.621 112.408 109.321 116.153 110.754 120.78C111.768 124.055 113.943 127.117 116.035 129.75C116.893 130.83 117.414 132.033 118.385 133.099C119.998 134.871 122.563 135.949 121.449 138.789C121.389 138.941 121.01 139.042 120.844 139.187C120.565 139.43 120.464 139.841 120.036 139.918C118.313 140.222 117.266 139.659 116.003 138.574C114.07 136.915 113.262 135.648 111.772 133.718C110.99 132.704 110.239 132.095 109.482 130.926C108.382 129.222 107.068 127.05 106.277 125.194C104.858 121.87 104.6 118.286 103.436 114.893H103.438Z" fill="black"/>
<path d="M37.3112 0.159842C37.7457 0.415342 38.8261 1.21101 38.9996 1.66601C39.0263 1.73601 39.262 2.37068 39.2634 2.41151C39.2732 2.64951 39.1265 2.73234 39.1265 2.8525C39.1265 2.97267 39.2634 3.13835 39.2648 3.32968C39.269 3.88968 38.2083 4.93385 37.7541 5.20918C35.7625 6.41901 33.555 7.14468 31.7257 8.72551C31.2531 9.13385 30.7947 9.78251 30.3433 10.1932C28.322 12.0365 26.1329 13.4995 24.2654 15.5878C21.5403 18.6363 20.6687 21.0898 19.0283 24.6785C17.9577 27.0188 16.4866 29.2203 15.5979 31.647C13.9984 36.0162 14.6796 39.7075 11.9376 43.9367C10.6541 45.9188 8.58912 49.0058 6.68495 50.3125C5.62988 51.037 3.67632 52.2165 2.41111 52.157C2.28275 52.1512 0.948409 51.7755 0.853905 51.7149C-0.0417653 51.1385 0.202275 49.7887 0.594395 48.986C1.3744 47.39 2.40547 47.1112 3.61992 46.0822C4.60445 45.2492 5.29561 43.428 5.95431 42.2555C6.8514 40.6607 7.83592 39.2222 8.48758 37.4699C9.10678 35.8074 9.39452 34.0772 10.1054 32.3855C11.3227 29.4945 13.286 26.929 14.2481 23.8945C15.7376 19.1975 16.306 16.5573 19.6912 12.698C21.6828 10.4288 24.2189 8.77218 26.3445 6.72468C26.8439 6.24284 27.274 5.60235 27.7636 5.14035C29.3729 3.62252 31.1967 2.87468 33.0276 1.78268C33.517 1.49101 34.6369 0.520343 35.0178 0.379176C35.2462 0.294009 35.3803 0.381505 35.5707 0.331339C36.2506 0.147005 36.6821 -0.207657 37.3098 0.16101L37.3112 0.159842Z" fill="black"/>
<path d="M136.632 43.407C136.504 43.5341 136.467 43.8526 136.18 43.9938C135.966 44.0976 135.798 44.0533 135.609 44.1163C135.466 44.1641 135.331 44.3345 135.16 44.3531C134.857 44.3858 134.817 43.981 134.643 43.9436C134.334 43.8795 133.825 44.2341 133.405 44.1C132.86 43.9273 132.704 43.1829 132.598 43.0919C132.551 43.0535 132.391 43.0873 132.314 43.0336C131.565 42.5168 131.725 42.0816 131.534 41.2684C131.072 39.2991 131.185 37.086 131.227 35.0163C131.306 31.1581 131.617 27.251 131.695 23.38C131.761 20.1483 131.924 16.2948 130.77 13.2743C130.198 11.7786 129.313 10.3389 128.776 8.81761C127.221 8.29494 125.929 7.25778 125.345 5.68278C125.115 5.06328 125.114 4.38895 124.985 3.80795C124.945 3.62245 124.729 3.42878 124.655 3.21178C124.602 3.05428 124.466 2.54445 124.458 2.39512C124.451 2.27262 124.823 1.76512 124.789 1.53412C125.071 1.31945 125.375 1.52712 125.653 1.51895C125.93 1.51078 126.447 1.27277 126.819 1.21794C130.916 0.61244 133.285 3.21411 135.215 6.42594C138.645 12.1356 137.632 17.0566 137.763 23.3788C137.867 28.3803 138.073 32.984 137.917 38.0228C137.861 39.851 138.259 41.7526 136.96 43.2343C136.876 43.3311 136.706 43.3346 136.633 43.407H136.632Z" fill="black"/>
<path d="M135.792 88.928C137.057 90.1974 139.856 91.9147 140 93.8525C140.004 93.9179 139.893 95.0705 139.872 95.1324C139.758 95.4835 138.546 96.7704 138.191 96.8089C137.745 96.8579 137.19 97.0119 136.862 97.0352C136.251 97.0772 134.791 96.257 134.312 95.8499C130.837 92.8982 127.448 87.3472 125.921 83.0597C124.838 80.0252 124.688 76.6419 124.54 73.4172C124.36 69.5462 124.687 66.2854 125.241 62.4797C125.396 61.4192 125.71 58.7487 126.168 57.9355C126.991 56.4784 128.726 55.2394 130.063 56.8517C131.737 58.87 131.318 61.7412 131.379 64.1679C131.439 66.5992 131.581 69.0504 131.54 71.4945C131.499 73.9387 131.004 76.4284 131.148 78.7419C131.336 81.7449 133.669 86.793 135.792 88.928Z" fill="black"/>
<path d="M96.4626 124.587C96.4188 124.556 96.3088 124.587 96.2411 124.579C95.8814 126.364 95.4851 128.162 95.1847 129.96C95.062 130.697 94.8362 131.608 94.7813 132.329C94.6755 133.705 94.9647 134.736 94.3864 136.098C93.8828 137.283 92.4441 138.72 91.3438 139.369C90.5271 139.852 90.3946 139.706 89.5173 139.773C89.4001 139.781 89.2986 139.924 89.1308 139.928C88.8755 139.935 87.5243 139.013 87.3634 138.761C87.1688 138.454 86.9798 137.543 87.015 137.192C87.0319 137.022 87.7654 135.648 87.9023 135.455C88.1928 135.044 88.9121 134.61 89.0687 134.156C89.2153 133.727 89.056 132.647 89.0913 132.096C89.2408 129.816 89.9503 124.711 90.7585 122.666C92.3735 118.584 97.5641 117.118 100.467 120.763C102.533 123.356 102.199 124.902 102.713 127.918C102.916 129.114 103.501 130.597 104.017 131.699C104.708 133.174 106.648 135.752 106.473 137.268C106.433 137.614 105.728 138.914 105.469 139.035C105.336 139.098 105.178 139.048 105.062 139.09C104.58 139.27 104.182 139.448 103.584 139.382C103.143 139.333 102.339 138.948 102.009 138.649C100.79 137.543 98.3216 132.535 97.7744 130.866C97.1847 129.067 97.2877 127.205 96.8322 125.488C96.7954 125.347 96.5274 124.633 96.4626 124.587Z" fill="black"/>
<path d="M18.4879 0.677912C18.5189 0.696579 18.5175 0.850569 18.6262 0.886736C18.8786 0.974236 19.0959 0.841239 19.4217 1.09441C20.1439 1.65791 20.3583 2.66474 19.9803 3.4989C19.9535 3.5584 19.1706 4.37157 19.0803 4.4474C18.6544 4.7974 17.7136 5.23374 17.1705 5.61641C13.7162 8.05707 11.7909 10.9551 9.95298 14.7269C8.99807 16.6869 8.71881 18.7507 7.92752 20.7142C7.5509 21.6476 7.00783 22.4129 6.59456 23.3089C5.89354 24.8302 3.84269 30.1281 2.5958 30.7954C2.50553 30.8444 2.21637 30.9646 2.12891 30.9354C1.4688 30.7242 1.16837 29.6952 1.12183 29.0839C1.01322 27.6827 1.85808 21.8587 2.39407 20.5626C2.82851 19.5114 3.62547 18.4252 4.1121 17.3507C5.26166 14.8144 6.10514 12.5499 7.59885 10.1291C9.27877 7.40257 14.1943 1.69991 17.2749 0.863408C17.4399 0.817908 18.4372 0.645245 18.4893 0.677912H18.4879Z" fill="black"/>
<path d="M139.481 135.505C139.516 135.576 139.717 135.526 139.694 135.876C139.678 136.115 139.495 136.155 139.457 136.339C139.326 136.976 139.68 137.498 139.072 138.111C138.932 138.251 138.736 138.284 138.606 138.416C138.361 138.664 138.185 139.036 137.869 139.218C137.669 139.333 135.98 139.768 135.728 139.774C134.523 139.806 131.507 139.4 130.408 138.934C129.253 138.443 127.206 136.768 126.754 135.582C125.772 133.005 126.822 130.894 129.799 131.527C130.819 131.742 131.578 132.648 132.803 132.754C135.523 132.988 137.102 132.236 139.153 134.637C139.451 134.986 139.312 135.163 139.484 135.504L139.481 135.505Z" fill="black"/>
</svg>
