<svg width="80" height="80" viewBox="0 0 80 80" fill="none" xmlns="http://www.w3.org/2000/svg">
<path d="M25.9866 6.34925C26.3546 6.82725 26.5639 7.28859 26.9873 7.74192C27.0239 7.78125 27.0259 7.98325 27.1173 7.89992C27.1493 7.86992 27.3873 7.21592 27.4513 7.09326C28.0146 6.00259 28.7206 5.46592 29.5879 4.64925C30.3579 3.92459 31.0759 3.17125 32.0272 2.64259C35.6619 0.622588 39.1672 0.643257 43.1879 1.12059C46.8532 1.55592 49.0579 3.10258 51.4192 5.79725C52.0272 6.49058 52.4565 7.35859 52.8912 8.16792C53.8859 7.20526 54.4579 5.92592 55.4572 4.96926C57.2485 3.25392 60.7539 1.28658 63.1699 0.75525C67.5345 -0.20275 73.4865 1.95192 76.1832 5.53392C77.9365 7.86192 79.5278 10.1126 79.6938 13.1546C79.8178 15.4246 79.7785 17.5079 78.8378 19.5913C77.1038 23.4346 74.8285 25.4506 71.3145 27.6186C71.2158 27.6799 71.1038 27.7359 70.9892 27.7619L72.5025 28.5486C73.5078 29.2739 74.6538 29.8999 75.4505 30.8719C76.5612 32.2286 77.7445 34.0039 78.6125 35.5319C80.5791 38.9939 80.4291 43.0999 78.3278 46.4573C77.0272 48.5339 75.1372 50.6779 73.1192 52.0626C72.9178 52.2006 71.7018 52.9266 71.6592 53.0153C71.6225 53.0913 71.7125 53.0853 71.7465 53.1046C72.0898 53.3093 72.5998 53.4486 72.9832 53.6559C75.0018 54.7506 76.2265 56.1086 77.3798 58.0626C78.6725 60.2539 79.7871 62.5199 79.6945 65.1406C79.5738 68.5779 78.6952 71.0613 76.7398 73.8546C73.3892 78.6406 68.1032 79.7813 62.5385 78.9786C61.6065 78.8446 60.9752 78.5639 60.1098 78.3266C59.6659 78.2053 59.1339 78.1699 58.7185 78.0213C57.8299 77.7039 56.7972 77.2619 55.9065 76.9039C54.2772 76.2466 53.3072 74.5906 52.4059 73.1653C52.2839 72.9713 52.1465 72.6359 52.0259 72.4813C51.9925 72.4379 51.9892 72.4453 51.9345 72.4533C51.1739 73.7459 50.3165 74.9906 49.2565 76.0553C47.6899 77.6293 45.0639 78.4933 42.8899 78.7546C40.1519 79.0839 36.5959 78.8913 33.9019 78.2919C31.3799 77.7326 28.5199 75.7779 27.1179 73.5953C27.0033 73.4159 26.9186 73.1493 26.8179 73.0019C26.8013 72.9779 26.8179 72.9146 26.7406 72.9459C26.5893 73.0079 26.1393 73.7473 25.9819 73.9299C25.1513 74.8926 23.2779 76.2999 22.1979 77.0259C20.2719 78.3226 18.1406 78.7186 16.0366 79.5739C12.7006 80.9286 8.80862 78.7699 6.03996 77.0533C4.70729 76.2266 2.12863 73.6113 1.4633 72.2006C-1.5727 65.7559 0.290635 58.2919 5.43396 53.6026L7.88329 52.0553C7.26729 51.8059 6.63663 51.5453 6.05329 51.2279C4.5993 50.4359 3.6213 49.8419 2.6173 48.4986C-0.287364 44.6126 -0.774696 37.8293 1.4933 33.5493C2.4593 31.7259 4.94996 28.6133 6.66462 27.5046C7.15529 27.1873 7.71196 26.9906 8.19529 26.6913C7.41529 26.3826 6.71062 25.8233 6.06929 25.2879C2.6253 22.4113 0.194632 18.4053 0.297966 13.7866C0.423965 8.14392 2.6833 3.94859 7.67462 1.27392C10.2779 -0.120748 14.1259 -0.390748 16.9219 0.565252C19.0459 1.29125 21.8099 2.37459 23.4159 3.98726C23.5866 4.15859 23.7233 4.39792 23.9046 4.57125C24.6099 5.24058 25.3386 5.50926 25.9886 6.35259L25.9866 6.34925ZM11.9793 3.79725C10.4319 3.91258 9.05862 4.72992 7.88596 5.68925C6.14396 7.11525 4.99862 8.74926 4.51262 10.9859C3.65329 14.9353 4.57463 18.2786 7.16862 21.2966C9.51329 24.0233 14.3059 25.4306 17.8133 25.1693C18.6299 25.1086 18.9073 24.8346 19.5059 24.3606C21.1593 23.0553 22.9846 21.3099 24.2593 19.6413C25.5359 17.9706 25.7106 13.0166 24.8346 11.1499C24.5813 10.6093 24.0533 10.0633 23.6899 9.56926C23.4499 9.24392 23.2606 8.82059 22.9899 8.52659C22.5999 8.10392 21.9419 7.78726 21.4939 7.38659C20.9366 6.88792 20.7193 6.45458 20.0353 6.03058C18.9146 5.33525 18.1826 5.07259 16.9633 4.63526C16.5593 4.48992 16.1319 4.23392 15.7379 4.11926C14.6813 3.81192 13.0746 3.71592 11.9793 3.79725ZM64.2859 4.37859C62.3252 4.56326 58.5232 6.15392 57.4472 7.85792C57.1919 8.26259 56.9912 8.72925 56.7259 9.14792C56.2985 9.82125 55.3579 10.9566 55.1505 11.6839C54.8539 12.7206 54.7285 15.3859 54.8832 16.4599C55.2585 19.0653 56.0919 20.0266 58.1845 21.4713C61.2459 23.5853 63.6685 25.0513 67.5758 24.8106C69.2918 24.7046 70.2392 24.0639 71.6005 23.1186C73.4718 21.8193 74.6625 20.4173 75.5478 18.3073C76.4825 16.0833 76.3112 12.2019 74.9692 10.1473C74.0238 8.69859 72.7272 6.98725 71.2118 6.13058C69.2278 5.00858 66.5778 4.16126 64.2838 4.37792L64.2859 4.37859ZM32.7706 7.43592C31.8846 8.31326 31.5039 8.34592 31.0006 9.62125C30.1486 11.7793 29.1859 14.8219 29.6739 17.1259C29.8892 18.1413 31.2132 19.7719 31.9379 20.5386C33.9699 22.6906 35.7579 23.8599 38.5992 24.7319C40.4546 25.3013 41.7079 25.2026 43.5326 24.6413C46.2232 23.8133 49.1765 20.9413 50.2459 18.3526C50.7472 17.1373 50.5892 17.3719 50.4632 16.1466C50.3579 15.1159 50.4865 14.4593 50.5905 13.4639C50.8132 11.3306 48.9225 8.48458 47.4932 7.00458C46.6832 6.16458 46.0846 5.74725 45.0012 5.29658C43.3132 4.59525 40.0092 4.42659 38.1659 4.54526C36.6059 4.64526 34.4919 5.60125 33.3832 6.70725C33.1739 6.91592 32.9872 7.22126 32.7712 7.43592H32.7706ZM29.9459 23.9433C29.0706 23.0279 28.2059 22.0953 27.4306 21.0966C27.3926 21.2073 27.3219 21.3386 27.2519 21.4319C26.1766 22.8506 24.8046 24.3446 23.4586 25.5033C22.8253 26.0486 22.1013 26.4879 21.5399 27.1133C21.8646 27.2839 22.1119 27.5553 22.4013 27.7753C22.8846 28.1439 23.4833 28.4819 23.9899 28.8619C25.5253 30.0139 26.5592 31.6733 27.6552 33.2186L27.7472 33.1913C28.3992 32.1599 28.8752 30.9146 29.7059 30.0186C30.5372 29.1226 32.0186 27.7386 33.1479 27.2059C33.3139 27.1273 33.5066 27.1059 33.6792 27.0439C33.7639 26.9353 31.5892 25.5633 31.4259 25.4333C30.9179 25.0273 30.4052 24.4226 29.9459 23.9426V23.9433ZM57.1259 26.0006C56.2279 25.3546 55.2559 24.6713 54.4312 23.9373C53.7565 23.3373 53.0765 22.6533 52.5799 21.9026C51.9859 22.7499 51.3399 23.5273 50.5945 24.2499C49.9699 24.8559 49.1819 25.5999 48.5172 26.1499C47.7612 26.7739 46.8532 27.1846 46.1319 27.8506C46.7105 28.0533 47.1979 28.4286 47.7079 28.7546C48.8779 29.5026 50.2799 30.5113 51.2645 31.4959C51.3352 31.5666 51.3925 31.6986 51.4612 31.7459C51.6632 31.8839 51.5912 31.7206 51.6632 31.6313C53.3459 29.5473 54.2119 28.3713 56.7965 27.3353C57.2785 27.1419 57.7199 26.8513 58.2699 26.8219C57.9212 26.5066 57.5005 26.2693 57.1259 26.0006ZM11.3906 49.1626C11.6759 49.3713 11.9599 49.7419 12.3339 49.8053C13.1293 49.9386 14.7666 49.8226 15.5586 49.6146C17.8999 48.9993 20.1299 47.6839 21.6713 45.8113C23.9499 43.0426 25.6219 38.0793 23.7339 34.7553C23.2606 33.9226 22.4993 32.7186 21.7839 32.1026C21.1999 31.5999 20.4386 31.0273 19.8199 30.5366C19.3066 30.1299 18.8806 30.1246 18.3159 29.8973C17.8713 29.7186 17.4666 29.4879 17.0119 29.3253C15.4153 28.7566 13.7413 28.6446 12.0579 28.6093C11.2939 28.5933 8.69995 29.8426 8.12928 30.4013C7.23128 31.2819 5.28329 34.6833 4.90529 35.8933C3.97796 38.8633 3.82196 42.3399 5.54329 45.0699C6.78796 47.0453 9.51928 47.7939 11.3906 49.1626ZM73.5618 34.8899C73.2592 34.4859 72.5038 33.3666 72.1898 33.1119C69.9638 31.2973 67.5705 30.3019 64.7432 29.7506C62.8892 29.3886 60.1739 30.3079 58.7459 31.5273C57.6232 32.4853 56.9819 33.5666 56.1639 34.7546C55.1412 36.2399 54.4659 37.1039 54.1299 38.9786C54.0145 39.6253 53.7019 41.9813 53.7812 42.5266C54.0825 44.5739 55.6219 46.1199 57.0185 47.5133C58.8239 49.3153 61.3752 50.4926 63.8472 51.0919C67.1832 51.9006 68.6885 50.9759 71.2885 49.1546C72.3178 48.4339 72.9498 47.6493 73.7338 46.6846C75.7178 44.2433 76.7298 41.5986 75.6865 38.4633C75.3945 37.5866 74.1452 35.6673 73.5612 34.8899H73.5618ZM37.8206 29.7439C36.3412 29.8513 34.2586 30.2913 33.0772 31.2079C31.8646 32.1486 31.3886 32.8066 30.7566 34.2046C30.1786 35.4839 29.7019 37.2486 29.3632 38.6239C29.2412 39.1206 28.8899 40.5399 28.9079 40.9773C28.9166 41.1946 29.0959 41.4506 29.1572 41.6653C30.0506 44.7759 30.8139 46.4226 33.6646 48.1526C34.8506 48.8719 37.6732 49.6133 39.0439 49.4459C40.9406 49.2133 44.3759 48.2859 45.9019 47.1499C47.9699 45.6086 48.8325 43.9373 49.2779 41.4079C49.3912 40.7659 49.2212 40.2293 49.2139 39.5986C49.1952 38.0959 49.5519 37.2953 48.9185 35.7693C48.2072 34.0579 45.5966 31.7686 43.9099 31.0373C41.9392 30.1839 40.0026 29.5839 37.8199 29.7433L37.8206 29.7439ZM32.8752 52.8139C32.5626 52.7319 32.2446 52.5679 31.9686 52.4019C30.6952 51.6393 28.9886 50.2013 28.1773 48.9546C27.5346 47.9679 27.0172 46.7366 26.6712 45.6113C25.9686 46.6179 25.2966 47.6593 24.4406 48.5413C23.2286 49.7893 21.8053 51.0966 20.1339 51.7406C19.7233 51.8993 19.2753 51.9886 18.8619 52.1426L21.3753 53.4926C23.0193 54.7113 24.7146 55.8326 26.0006 57.4446C26.3866 57.9279 26.7292 58.4446 27.0959 58.9413C27.3966 58.4686 27.6612 57.9686 27.9919 57.5139C29.0686 56.0373 30.2759 54.8459 31.6939 53.7086C32.0792 53.3993 32.4886 53.1206 32.8752 52.8133V52.8139ZM52.4225 58.4946C52.7352 57.9586 53.0879 57.3653 53.4572 56.8693C54.0025 56.1366 54.5699 55.6373 55.2845 55.0773C56.1785 54.3773 57.1305 53.7679 58.1352 53.2386C57.6139 52.8626 57.0132 52.6066 56.4719 52.2679C55.5479 51.6906 54.7939 51.0159 54.0525 50.2193C53.1279 49.2266 52.3725 48.0779 51.3985 47.1326C51.3972 47.1846 51.3679 47.2306 51.3325 47.2679C50.4732 48.1673 49.2525 49.1266 48.2252 49.8353C47.2279 50.5239 46.1172 51.1499 44.9706 51.5379C47.6905 52.3259 49.6059 54.3939 51.1492 56.6626C51.3105 56.8999 51.4512 57.2173 51.6285 57.4799C51.8472 57.8039 52.1479 58.1059 52.3305 58.4659L52.4232 58.4946H52.4225ZM12.8719 54.8846C11.3693 54.8893 9.66328 55.8026 8.34262 56.5186C7.35796 57.0519 6.88329 57.5233 6.21329 58.4099C3.73796 61.6839 2.99063 65.0926 4.2113 69.0859C4.67196 70.5933 5.01996 71.3126 6.14196 72.4286C7.36729 73.6459 8.47728 74.1546 10.0393 74.8299C12.8726 76.0559 16.0759 75.9179 18.8699 74.6306C19.8859 74.1626 22.1193 72.3886 22.8973 71.5539C23.5579 70.8459 24.5393 68.9199 24.7746 67.9779C24.8953 67.4919 24.6906 66.7613 24.7053 66.2086C24.7319 65.2366 25.0026 64.7073 24.7393 63.6739C24.1739 61.4593 22.4133 59.3899 20.6673 58.0039C18.6086 56.3699 15.5479 54.8753 12.8719 54.8846ZM73.0258 72.8833C74.0458 71.8493 75.3492 69.7473 75.6978 68.3366C75.8778 67.6059 75.9905 65.2226 75.8878 64.4773C75.6598 62.8219 73.6625 59.2326 72.3938 58.1379C70.3972 56.4153 66.6032 55.3213 64.0039 55.1846C62.0125 55.0806 61.0312 55.4319 59.4612 56.5793C57.3632 58.1126 56.4399 59.6893 55.6245 62.1273C54.6665 64.9919 54.6519 67.2319 55.8519 70.0213C55.9845 70.3293 56.9712 72.4459 57.0885 72.5386C57.1832 72.6126 57.3372 72.6019 57.4525 72.6666C58.9865 73.5206 61.1525 74.9613 62.8505 75.2193C66.4112 75.7586 70.3465 75.5999 73.0265 72.8826L73.0258 72.8833ZM47.4852 58.9719C46.8259 58.1199 45.7205 56.9026 44.7492 56.4126C42.9392 55.5019 40.0792 55.2793 38.0739 55.3613C37.4132 55.3886 35.8032 56.2153 35.1666 56.5633C33.5572 57.4433 32.6499 58.2966 31.6239 59.8119C30.5099 61.4586 29.1552 65.4373 29.2212 67.4139C29.3179 70.2693 30.7472 73.2799 33.3666 74.5773C35.4299 75.6006 40.3766 75.5499 42.6672 75.2199C46.2559 74.7019 47.6059 73.1673 49.1452 70.0366C50.2499 67.7899 50.3312 66.3646 50.0139 63.8859C49.7312 61.6799 48.7759 60.6379 47.4865 58.9713L47.4852 58.9719Z" fill="black"/>
</svg>
