<svg width="93" height="74" viewBox="0 0 93 74" fill="none" xmlns="http://www.w3.org/2000/svg">
<path fill-rule="evenodd" clip-rule="evenodd" d="M11.6688 3.18173C12.8938 13.2716 18.2614 22.163 25.6638 29.6036C36.8432 40.8401 52.6642 48.7723 66.0517 52.5102C74.4655 54.8604 80.9433 53.6377 89.6238 54.1145C89.9753 54.1339 90.2447 54.4344 90.2252 54.786C90.2066 55.1362 89.9052 55.4069 89.5546 55.3861C80.7725 54.9038 74.2208 56.1147 65.7085 53.7377C52.1344 49.9475 36.0971 41.8957 24.7604 30.5021C17.1537 22.8565 11.6629 13.7046 10.4037 3.33558C10.3611 2.98624 10.6088 2.66884 10.9581 2.6263C11.3075 2.58376 11.6262 2.83239 11.6688 3.18173Z" fill="#D6591F"/>
<path fill-rule="evenodd" clip-rule="evenodd" d="M91.4195 55.842C91.3883 55.842 91.1806 55.8376 91.0065 55.8524C90.2841 55.9095 89.0292 56.125 87.4622 56.4907C82.2069 57.7235 73.4591 60.6508 69.5565 65.34C69.3313 65.6104 68.9299 65.6464 68.6594 65.4212C68.3889 65.1961 68.3507 64.795 68.5759 64.5245C72.6365 59.6455 81.7037 56.5321 87.1719 55.2507C87.9044 55.0796 88.5732 54.9388 89.1558 54.8324C87.4909 54.1237 85.8112 53.4593 84.1195 52.8122C79.249 50.9511 75.4211 48.3321 71.7741 44.5515C71.5299 44.2995 71.5372 43.8947 71.7906 43.6514C72.0426 43.4072 72.4473 43.4146 72.6906 43.6679C76.2015 47.306 79.8858 49.8301 84.5737 51.6221C86.7841 52.4682 88.9771 53.3452 91.1404 54.3052C91.3557 54.4007 91.9125 54.6551 91.9849 54.703C92.3982 54.9758 92.271 55.3761 92.2385 55.4631C92.2232 55.5052 92.002 56.0165 91.4195 55.842ZM91.741 54.6093C91.757 54.6144 91.7739 54.6182 91.7912 54.6243C91.7775 54.6187 91.7605 54.6149 91.741 54.6093Z" fill="#D6591F"/>
</svg>
