<svg width="80" height="64" viewBox="0 0 80 64" fill="none" xmlns="http://www.w3.org/2000/svg">
<g clip-path="url(#clip0_284_98)">
<g clip-path="url(#clip1_284_98)">
<path fill-rule="evenodd" clip-rule="evenodd" d="M2.11558 1.14194C3.34058 11.2318 8.70816 20.1232 16.1106 27.5638C27.29 38.8003 43.1109 46.7325 56.4985 50.4704C64.9123 52.8206 71.3901 51.5979 80.0706 52.0747C80.4221 52.0941 80.6915 52.3946 80.672 52.7462C80.6534 53.0964 80.352 53.3671 80.0014 53.3463C71.2193 52.864 64.6676 54.0749 56.1553 51.6979C42.5812 47.9077 26.5439 39.8559 15.2072 28.4623C7.60047 20.8167 2.10967 11.6648 0.850444 1.29579C0.807901 0.946444 1.05559 0.62905 1.40494 0.586506C1.75428 0.543963 2.07304 0.792591 2.11558 1.14194Z" fill="#D6591F"/>
<path fill-rule="evenodd" clip-rule="evenodd" d="M81.8663 53.8022C81.8351 53.8022 81.6274 53.7978 81.4532 53.8126C80.7309 53.8697 79.476 54.0852 77.9089 54.4509C72.6537 55.6837 63.9059 58.611 60.0033 63.3002C59.7781 63.5706 59.3766 63.6066 59.1062 63.3814C58.8357 63.1563 58.7975 62.7552 59.0227 62.4847C63.0833 57.6057 72.1505 54.4923 77.6187 53.2109C78.3512 53.0398 79.0199 52.899 79.6025 52.7926C77.9377 52.0839 76.2579 51.4195 74.5663 50.7724C69.6958 48.9113 65.8679 46.2923 62.2209 42.5117C61.9767 42.2597 61.984 41.8549 62.2373 41.6116C62.4893 41.3674 62.8941 41.3748 63.1374 41.6281C66.6483 45.2662 70.3326 47.7903 75.0204 49.5823C77.2309 50.4284 79.4239 51.3054 81.5872 52.2654C81.8025 52.3609 82.3592 52.6153 82.4317 52.6632C82.845 52.936 82.7178 53.3363 82.6853 53.4233C82.6699 53.4654 82.4488 53.9767 81.8663 53.8022ZM82.1878 52.5695C82.2038 52.5746 82.2207 52.5785 82.238 52.5845C82.2242 52.579 82.2073 52.5751 82.1878 52.5695Z" fill="#D6591F"/>
</g>
</g>
<defs>
<clipPath id="clip0_284_98">
<rect width="80" height="64" fill="white"/>
</clipPath>
<clipPath id="clip1_284_98">
<rect width="97.3509" height="93.8009" fill="white" transform="matrix(-0.566954 0.82375 0.82375 0.566954 24.1935 -33)"/>
</clipPath>
</defs>
</svg>
