<svg viewBox="0 0 114 20" fill="none" xmlns="http://www.w3.org/2000/svg" preserveAspectRatio="none">
<path fill-rule="evenodd" clip-rule="evenodd" d="M48.4171 1.85647C43.0613 2.49267 37.7684 3.27493 32.607 4.13015C25.3004 5.33996 17.9967 6.5915 10.737 8.5731C8.45179 9.19886 6.13115 9.59516 3.86024 10.3774C2.4347 10.8676 0.544477 11.5662 0.296409 11.7122C0.166659 11.7957 0.110053 11.9209 0.0917626 11.9627C-0.0368442 12.2547 -0.0133782 12.5362 0.0592132 12.7552C0.0883641 12.8491 0.162078 13.0786 0.366706 13.1099C14.0516 15.2479 28.0452 11.0761 41.7467 10.6381C65.5075 9.88719 89.9885 12.87 113.561 19.378C113.766 19.4301 113.966 19.1693 113.995 18.7834C114.029 18.408 113.881 18.0429 113.675 17.9908C90.0628 11.4724 65.5418 8.47912 41.7352 9.24047C28.966 9.64722 15.9447 13.308 3.15776 12.0565C3.45155 11.9522 3.73965 11.8479 4.00258 11.754C6.26434 10.9718 8.57526 10.5859 10.8513 9.96017C18.0956 7.97857 25.3845 6.72704 32.6813 5.52765C41.7352 4.02582 51.1835 2.73255 60.7061 2.12765C64.1128 2.22151 67.508 2.31542 70.9032 2.43014C78.2481 2.68045 85.6273 3.41051 92.955 4.39088C95.1614 4.69334 97.3677 5.00619 99.574 5.27736C100.306 5.37122 102.192 5.64234 102.455 5.62148C102.781 5.60063 102.843 5.10006 102.849 5.01662C102.866 4.82889 102.855 4.56814 102.695 4.34912C102.678 4.31783 102.575 4.21347 102.346 4.1509C89.0225 0.458875 74.7957 -0.156365 60.7176 0.730137C45.8678 0.344248 30.9608 0.1773 16.1488 0C15.9367 0 15.7635 0.312929 15.7618 0.698818C15.7607 1.08471 15.9315 1.39765 16.1436 1.40808C26.8688 1.53323 37.6484 1.65831 48.4171 1.85647Z" fill="#D6591F"/>
</svg>
