<svg width="191" height="149" viewBox="0 0 191 149" fill="none" xmlns="http://www.w3.org/2000/svg">
<path d="M178.721 143.767L167.612 95.595H151.204L144.698 143.767" stroke="black" stroke-miterlimit="10"/>
<path d="M148.32 111.469L172.009 111.125" stroke="black" stroke-miterlimit="10"/>
<path d="M119.563 97.243C113.539 103.993 108.705 111.684 103.551 119.104C100.97 122.819 94.1104 133.589 92.2669 136.031C91.2321 137.403 90.6394 139.69 92.3071 140.104C95.1425 140.807 95.6613 143.669 98.2321 142.015C102.723 139.127 109.01 131.791 112.761 127.734C120.767 119.078 129.404 110.605 137.716 102.243C138.386 101.569 139.065 100.887 139.881 100.399C140.939 99.7662 142.166 99.4922 143.364 99.2043C150.692 97.444 157.803 94.7947 164.503 91.346C170.677 88.1685 178.771 84.4142 179.098 76.3016C179.128 75.5696 179.058 74.8283 178.835 74.1309C177.542 70.0802 172.844 69.8895 169.084 70.3934C153.13 72.5295 137.947 79.7708 126.078 90.6169C123.79 92.7081 121.628 94.9284 119.563 97.243Z" fill="#EAA896"/>
<path d="M176.76 49.4062C172.374 49.4417 167.946 51.7022 165.763 55.5444C163.732 59.1192 163.654 63.3111 163.43 67.3056C163.268 70.1747 164.088 74.0646 161.08 75.2284C159.247 75.937 157.306 76.3858 155.466 77.0981C148.101 79.9513 141.282 84.2141 135.515 89.6138C133.275 91.7125 131.024 94.6928 132.084 97.574C133.045 100.184 136.181 101.153 138.921 101.631C147.544 103.136 156.626 104.068 165.304 102.469C172.905 101.067 179.924 99.3427 184.515 92.466C188.062 87.1533 189.439 80.6954 190.183 74.3515C190.694 69.9999 190.934 65.5378 189.897 61.2815C188.86 57.0242 186.39 52.953 182.559 50.8272C180.781 49.8428 178.775 49.3894 176.76 49.4062Z" fill="#D97757"/>
<path d="M94.0189 135.2C91.9866 134.4 90.9424 134.775 88.8418 134.183C86.2485 133.453 83.7675 132.39 81.2434 131.458C80.7218 131.266 80.1833 131.07 79.627 131.094C76.9431 131.209 77.8752 134.317 78.6838 135.75C79.3831 136.99 80.144 138.238 81.2658 139.114C81.9604 139.656 82.7681 140.035 83.5833 140.369C85.4156 141.123 87.3217 141.681 89.2232 142.238C90.2263 142.532 91.2294 142.826 92.2324 143.12C91.9632 144.027 91.005 144.391 90.7358 145.299C91.3976 145.68 92.7634 146.577 93.4552 146.902C96.1822 145.204 98.3052 142.461 100.636 140.275C100.752 140.165 100.876 140.042 100.893 139.884C100.912 139.705 100.789 139.544 100.667 139.412C100.2 138.91 99.6373 138.509 99.0783 138.112C98.135 137.44 97.1871 136.767 96.1569 136.238C95.84 136.076 94.3461 135.329 94.0189 135.2Z" fill="black"/>
<path d="M136.987 139.388C130.182 126.143 123.389 112.815 118.685 98.6855C117.807 96.0483 116.994 93.326 117.083 90.5477C117.237 85.765 120.433 82.1079 124.013 79.223C128.331 75.7435 133.763 73.6364 138.792 71.4245C144.216 69.0388 149.811 66.9578 155.64 65.8117C157.881 65.3705 160.252 67.5599 161.465 69.496C162.679 71.4311 162.973 73.9159 162.248 76.0819C161.167 79.3071 158.159 81.4273 155.331 83.3195C148.713 87.7469 141.215 91.4255 133.898 94.6638C134.696 96.2165 135.618 97.7413 136.113 99.4259C136.706 101.445 137.26 103.477 137.776 105.517C139.416 112.012 140.661 118.605 141.501 125.25C141.842 127.948 142.71 130.784 141.935 133.428C141.163 136.065 139.557 138.495 137.238 140.012" fill="#EAA896"/>
<path d="M136.277 133.935C135.812 134.137 135.345 134.339 134.878 134.54C134.774 134.584 134.66 134.64 134.621 134.745C134.496 135.08 134.786 135.559 134.689 135.933C134.521 136.583 133.784 137.312 133.375 137.83C132.434 139.019 131.371 140.106 130.382 141.254C128.847 143.037 127.437 145.066 127.102 147.395C127.066 147.64 127.044 147.898 127.127 148.133C127.249 148.476 127.575 148.709 127.918 148.83C129.081 149.238 130.32 148.571 131.367 147.921C133.163 146.807 134.914 145.607 136.51 144.217C137.907 143 139.497 141.586 140.214 139.874C140.603 140.607 140.769 141.577 140.94 142.395C140.907 142.24 143.246 141.251 143.443 141.155C143.707 141.026 143.984 140.888 144.153 140.647C144.317 140.414 144.357 140.117 144.367 139.833C144.422 138.363 143.915 136.722 143.726 135.256C143.54 133.808 142.824 132.456 142.519 131.034C140.47 132.083 138.383 133.019 136.277 133.935Z" fill="black"/>
<path d="M179.154 69.3822C178.519 66.9619 177.575 64.6388 176.974 62.2072C176.57 60.5731 176.889 60.7526 175.386 60.3329C174.075 59.9674 172.26 60.2198 170.895 60.1702L154.167 59.5645C151.27 63.4749 147.879 66.63 143.557 68.8652C139.234 71.1013 134.632 72.7336 130.124 74.5659C126.778 75.927 123.427 77.4302 120.655 79.7486C116.955 82.842 114.562 87.1778 113.139 91.8287C114.822 92.4101 116.401 93.3674 117.889 94.3658C119.125 95.195 120.33 96.0728 121.589 96.8674C122.914 97.7041 124.332 98.3875 125.78 98.9839C128.842 100.244 132.097 100.945 135.403 101.09C141.702 101.367 148.053 100.987 154.236 99.7281C158.553 95.7073 163.672 92.4503 168.879 89.6215C173.594 87.06 177.226 84.0723 179.127 78.8858C180.414 75.3698 180.063 72.8448 179.154 69.3822Z" fill="#3C8775"/>
<path d="M124.955 115.448C128.361 112.048 134.494 105.818 137.715 102.243" stroke="black" stroke-width="0.5" stroke-miterlimit="10"/>
<path d="M171.042 38.4892C171.08 38.3293 171.111 38.1564 171.134 37.9675C171.259 36.9878 171.077 35.9988 170.945 35.02C170.69 33.1148 170.609 30.6926 170.917 28.7939C171.123 27.531 171.855 26.957 172.594 26.053C173.391 25.0761 173.753 23.6682 174.015 22.452C174.578 19.8325 174.001 19.5652 173.078 17.0458C171.679 13.2288 167.814 11.1581 164.541 11.9313C163.384 12.2042 162.215 12.4847 161.151 13.0288C160.248 13.4906 159.212 13.8421 158.663 14.7676C158.307 15.3649 158.262 16.0913 158.248 16.7859C158.208 19.0239 158.422 21.2675 158.887 23.4569C159.025 24.1094 159.191 24.7694 159.54 25.3369C160.039 26.1446 161.039 26.5765 161.876 26.956C162.135 27.0738 162.414 27.1935 162.572 27.43C162.728 27.6628 162.735 27.961 162.737 28.2405C162.757 31.6564 162.777 35.0723 162.797 38.4882C162.805 39.7335 162.44 41.1245 164.014 41.1722C165.548 41.2189 167.331 40.4654 168.868 40.256C170.092 40.0906 170.762 39.6605 171.042 38.4892Z" fill="#EAA896"/>
<path d="M156.571 54.3723C161.32 47.9481 166.86 38.1939 160.52 34.7892C157.482 33.1579 156.216 36.184 154.785 38.1388C150.578 43.8862 141.107 51.0218 140.671 58.5613C140.572 60.2796 141.63 61.6398 142.948 62.7466C144.354 63.9273 146.489 63.8665 148.149 63.0822C149.808 62.2979 151.099 60.919 152.339 59.5653C153.252 58.5669 154.86 56.686 156.571 54.3723Z" fill="#EAA896"/>
<path d="M119.815 96.7C118.957 97.5067 118.177 98.3976 117.492 99.3549" stroke="black" stroke-width="0.5" stroke-miterlimit="10"/>
<path d="M165.662 16.8617C163.342 15.8193 160.261 16.9037 157.831 16.0755C157.376 15.9203 156.924 15.6838 156.659 15.2818C156.347 14.8069 156.355 14.1843 156.493 13.6327C156.85 12.2033 158.047 11.018 159.48 10.6758C161.109 10.2878 162.783 10.9291 164.448 11.1049C166.154 11.2853 167.888 10.9721 169.59 11.1937C171.942 11.5003 174.134 12.8792 175.428 14.8676C176.186 16.0324 176.674 17.4188 177.742 18.3079C178.329 18.7958 179.06 19.1043 179.581 19.6615C180.518 20.6618 180.556 22.1931 181.176 23.4158C182.377 25.7847 185.835 27.1832 185.939 30.1486C185.971 31.0441 185.68 31.9192 185.328 32.7437C183.557 36.8878 180.613 37.2693 176.581 37.4992C174.556 37.6151 172.768 36.7682 171.715 34.9939C170.72 33.3195 170.4 31.3424 170.098 29.4185C169.636 26.4756 169.172 23.5252 168.364 20.658C168.099 19.7157 167.782 18.7575 167.156 18.004C166.712 17.4702 166.208 17.1066 165.662 16.8617Z" fill="black"/>
<path d="M158.642 32.9343C158.043 33.1961 157.481 33.5981 156.91 34.0431C153.009 37.0906 151.567 42.6773 150.695 47.3262C149.642 52.9418 149.562 58.7117 148.423 64.3104C153.691 64.3245 158.959 64.2861 164.226 64.1955C169.328 64.1076 174.371 64.6283 179.491 64.1777C178.893 60.4449 178.296 56.7111 177.697 52.9783C177.08 49.1202 176.229 31.6078 172.324 31.476C164.303 31.2058 161.24 31.7966 158.642 32.9343Z" fill="#5077D9"/>
<mask id="mask0_343_84" style="mask-type:luminance" maskUnits="userSpaceOnUse" x="157" y="11" width="18" height="31">
<path d="M171.041 38.4893C171.079 38.3294 171.11 38.1565 171.134 37.9676C171.258 36.9879 171.077 35.9988 170.945 35.0201C170.69 33.1149 170.608 30.6927 170.917 28.794C171.123 27.5311 171.854 26.9571 172.593 26.0531C173.39 25.0762 173.752 23.6683 174.014 22.4521C174.578 19.8326 174.415 17.0505 173.492 14.5311C172.094 10.7142 167.813 11.1582 164.54 11.9304C163.292 12.2249 162.026 12.5296 160.908 13.1578C157.122 15.2818 156.278 20.9582 158.675 24.4405C159.454 25.5716 160.623 26.3896 161.875 26.9561C162.135 27.0739 162.414 27.1936 162.572 27.4301C162.728 27.6629 162.734 27.9611 162.736 28.2406C162.757 31.6565 162.776 35.0724 162.797 38.4883C162.804 39.7335 162.44 41.1246 164.013 41.1723C165.547 41.219 167.331 40.4655 168.868 40.2561C170.091 40.0907 170.762 39.6606 171.041 38.4893Z" fill="white"/>
</mask>
<g mask="url(#mask0_343_84)">
<path d="M161.567 27.0187C163.164 27.2459 164.803 27.1767 166.375 26.8149C165.944 27.6862 164.995 28.1555 164.103 28.5388C163.212 28.9211 162.284 29.2848 161.316 29.2913" fill="black"/>
</g>
<path d="M153.801 55.1098C153.828 55.0172 153.954 55.1864 153.865 55.2229C153.776 55.2594 153.688 55.1705 153.632 55.092C151.238 51.7191 149.428 48.0499 147.133 44.6078C146.967 44.3591 149.439 40.8759 150.138 39.9663C151.321 38.4266 152.605 36.9542 154.084 35.6912C156.731 33.4308 160.138 31.8481 163.608 32.108C163.156 32.0743 161.778 33.5374 161.415 33.8449C160.665 34.4816 159.937 35.15 159.28 35.8857C158.066 37.2468 157.028 38.952 156.614 40.7366C156.068 43.0877 156.019 45.6183 155.555 48.0031C155.092 50.3991 154.511 52.7736 153.801 55.1098Z" fill="#5077D9"/>
<path d="M183.127 60.0916C185.031 74.5162 178.093 90.1991 163.654 95.0182" stroke="black" stroke-width="0.5" stroke-miterlimit="10"/>
<path d="M141.725 70.1467C141.229 71.1377 128.59 80.0598 128.59 80.0598L153.868 89.7251L166.508 77.3338L141.725 70.1467Z" fill="white"/>
<path d="M182.138 69.6045C180.906 71.189 179.416 72.6184 177.907 73.8888C175.034 76.3082 171.793 78.2303 168.658 80.2813C167.659 80.9348 166.658 81.5891 165.591 82.122C163.486 83.1709 161.589 84.6676 159.583 85.9427C157.472 87.2842 153.626 88.6678 151.89 85.9885C151.349 85.1556 151.3 84.0281 151.764 83.1513C152.603 81.5658 154.681 81.1432 155.981 79.9083C156.067 79.827 156.154 79.7316 156.167 79.6138C156.185 79.4512 156.054 79.31 155.914 79.2259C155.369 78.9005 154.649 79.1043 154.06 78.8688C153.897 78.8033 153.735 78.6883 153.697 78.5163C153.655 78.3256 153.782 78.1358 153.933 78.0124C154.586 77.4786 155.586 77.7264 156.349 77.4581C157.276 77.1328 158.163 76.7018 159.019 76.2203C160.701 75.2733 162.257 74.1226 163.857 73.0484C166.298 71.4106 170.511 67.6263 172.271 65.2537C173.696 63.3335 173.882 62.0939 174.751 58.7491C175.415 56.197 176.06 53.8225 176.307 51.2068C176.367 50.572 176.431 49.9214 176.707 49.3464C177.15 48.4247 178.074 47.8311 179.013 47.4281C180.373 46.8448 181.863 46.5737 183.341 46.6176C184.487 46.6513 186.419 46.7551 187.186 47.7179C188.263 49.0716 187.532 51.1498 187.421 52.6969C187.273 54.7424 186.998 56.7794 186.563 58.7837C185.875 61.9537 184.916 65.3687 183.174 68.1358C182.855 68.6388 182.509 69.1286 182.138 69.6045Z" fill="#EAA896"/>
<path d="M145.382 80.07C145.11 81.1712 144.625 82.193 143.78 83.0381C142.402 84.2366 140.097 84.5787 138.815 83.2793C138.036 82.4894 137.809 81.2909 137.905 80.1859C138 79.0809 138.373 78.0208 138.636 76.9429C139.664 72.7137 138.975 68.2676 139.355 63.9318C139.753 59.3969 141.191 53.2353 144.733 50.1307C144.993 49.9026 145.402 49.6876 145.65 49.9279C145.721 49.9961 145.761 50.0905 145.798 50.1812C146.727 52.4351 148.725 53.7196 149.139 56.2783C149.621 59.2651 149.544 60.5533 148.912 63.5177C148.551 65.2088 148.381 68.6939 148.02 70.385C147.681 71.9761 147.353 73.3391 147.83 74.9452C148.179 76.1184 148.535 77.1168 148.186 78.3415C148.065 78.7677 147.666 79.1791 147.236 79.0753C146.848 78.9809 146.665 78.5322 146.625 78.1349C146.587 77.7375 146.628 77.3141 146.442 76.9616C146.381 76.8476 146.293 76.741 146.173 76.6943C145.727 76.5223 145.705 77.186 145.699 77.4496C145.673 78.3405 145.589 79.2286 145.382 80.07Z" fill="#EAA896"/>
<path d="M172.322 31.4769C178.178 31.7592 183.964 35.4117 186.277 40.8459C187.651 44.0749 188.004 47.6824 187.631 51.1722C187.592 51.533 178.925 51.9107 178.059 52.1098C176.632 52.4389 172.745 54.7423 172.074 52.623C171.637 51.2432 171.328 49.7989 170.579 48.5612C169.25 46.3624 166.787 45.178 164.694 43.6878C162.601 42.1977 160.641 39.84 161.175 37.3272C161.495 35.823 162.658 34.6339 163.928 33.7663C166.463 32.0341 169.402 31.3358 172.322 31.4769Z" fill="#5077D9"/>
<path d="M159.75 22.636C160.234 23.1801 161.041 23.511 161.849 23.498C162.658 23.4839 163.448 23.1259 163.905 22.5659" stroke="black" stroke-width="0.5" stroke-miterlimit="10"/>
<path d="M170.348 21.3256C170.348 22.4203 169.474 23.3084 168.396 23.3084C167.318 23.3084 166.444 22.4212 166.444 21.3256C166.444 20.2309 167.318 19.3428 168.396 19.3428C169.475 19.3437 170.348 20.2309 170.348 21.3256Z" fill="#EAA896"/>
<path d="M169.109 20.2767C168.674 20.2468 168.229 20.4216 167.931 20.7404C167.633 21.0592 167.488 21.5145 167.548 21.9473" fill="black"/>
<path d="M179.27 69.036C180.65 68.8948 181.842 67.6842 181.963 66.3025Z" fill="black"/>
<path d="M46.3339 143.767L35.902 98.6118H20.4949L14.3848 143.767" stroke="black" stroke-miterlimit="10"/>
<path d="M17.7866 113.518L40.0312 113.195" stroke="black" stroke-miterlimit="10"/>
<path d="M74.2403 123.657C76.3568 122.816 78.4069 121.811 80.3672 120.651C80.5215 120.56 80.6823 120.461 80.7711 120.305C80.8879 120.098 81.4694 120.88 81.4301 120.647C80.1232 113.025 77.874 104.869 73.3783 98.5779C72.9502 97.9796 71.0618 97.1663 70.3897 96.8662C68.6611 96.094 66.4568 98.0516 65.4677 99.2603C63.627 101.511 64.8358 103.309 65.6379 105.872C66.167 107.56 72.6473 124.29 74.2403 123.657Z" fill="#EAA896"/>
<path d="M79.0548 120.203C80.2523 119.868 81.2077 119.571 81.4685 119.435C81.9098 120.108 82.409 120.928 83.2148 121.177C84.0421 121.432 85.0116 121.547 85.8651 121.721C88.1779 122.19 90.4495 122.85 92.6801 123.621C93.0849 123.761 93.5009 123.912 93.8178 124.201C95.6304 125.855 91.4741 126.936 90.4402 127.16C88.9426 127.484 82.7277 128.159 81.1684 128.39C78.9117 128.724 76.1455 129.341 74.7732 126.876C73.9075 125.143 73.2774 123.364 72.437 121.622C72.5567 121.867 76.4008 120.943 79.0548 120.203Z" fill="black"/>
<path d="M86.3989 120.935C86.899 121.045 87.1608 121.665 87.0196 122.158C86.8784 122.65 86.4447 123.008 85.9819 123.227" fill="#EB845E"/>
<path d="M83.9775 120.406C84.4374 120.612 84.6581 121.181 84.5767 121.678C84.4954 122.175 84.1701 122.603 83.7905 122.935" fill="#EB845E"/>
<path d="M48.1526 130.171C48.8331 132.344 52.5753 131.271 54.8339 131.559C55.0124 131.581 55.1994 131.602 55.3658 131.532C55.5846 131.442 55.564 132.416 55.6762 132.206C59.3221 125.387 62.5519 117.567 62.8632 109.84C62.8932 109.105 61.9004 107.304 61.5545 106.654C60.6636 104.984 57.7216 105.176 56.1997 105.524C53.3653 106.171 53.2157 108.333 52.2761 110.849C51.6563 112.507 47.4206 127.836 48.1526 130.171Z" fill="#EAA896"/>
<path d="M63.769 118.809C67.7832 117.843 70.8317 116.981 74.5318 115.289C75.6863 114.761 79.5239 113.112 80.6737 112.57C80.0595 108.007 77.0334 103.049 75.6872 98.6464C75.1376 96.8496 74.5215 95.0584 73.7662 93.3365C72.6621 90.8199 71.1411 88.1359 69.3303 86.0568C67.5298 83.989 60.4802 81.8613 57.9683 80.847C51.9348 78.4117 49.6547 78.0668 43.6895 75.4473C40.9635 74.2498 42.1059 72.8344 40.9336 70.9246C40.2184 69.7588 38.6666 69.4167 37.3017 69.4989C34.8515 69.6466 32.5948 70.861 30.985 72.6867C29.076 74.8518 29.6631 77.4367 30.8261 79.9131C31.9974 82.4091 33.7689 84.7612 35.1525 87.1132C36.6137 89.5962 39.4313 91.5659 42.0311 92.6765C44.9674 93.931 48.1889 94.304 51.3028 95.0089C54.3046 95.6885 57.4429 96.5112 58.8545 99.3372C61.1729 103.979 63.0379 108.177 63.5483 113.432C63.7203 115.22 63.7792 117.014 63.769 118.809Z" fill="white"/>
<path d="M13.8607 55.1032C18.246 55.1388 22.6744 57.3992 24.8572 61.2414C26.8886 64.8162 26.9662 69.0081 27.1906 73.0027C27.3523 75.8726 26.5325 79.7616 29.5408 80.9254C31.3731 81.6341 33.3147 82.0828 35.1545 82.7951C42.5192 85.6483 49.3389 89.9111 55.105 95.3108C57.3458 97.4095 59.5969 100.39 58.5368 103.27C57.5758 105.88 54.4394 106.849 51.6993 107.327C43.0764 108.833 33.9944 109.764 25.3162 108.165C17.715 106.764 10.6963 105.039 6.10525 98.1621C2.55846 92.8494 1.18142 86.3915 0.437283 80.0476C-0.0731406 75.6959 -0.313395 71.2349 0.723345 66.9776C1.76008 62.7203 4.23088 58.6491 8.06186 56.5242C9.83899 55.5389 11.8452 55.0864 13.8607 55.1032Z" fill="#3C8775"/>
<path d="M51.3199 102.662C50.4514 108.554 48.6752 115.74 46.8943 121.43C52.3538 122.589 56.6802 123.692 62.2482 124.063C63.4092 121.266 64.9751 116.516 65.8501 113.642C66.7494 110.685 67.8507 107.796 68.8266 104.864C69.5932 102.562 70.3018 100.187 70.2242 97.763C70.0905 93.5899 67.3019 90.3983 64.1777 87.8808C60.4103 84.8444 55.6697 83.0056 51.2806 81.0761C47.085 79.2307 41.5461 78.3903 37.9329 75.7269C34.0075 72.8336 29.6091 69.5579 24.4085 70.3394C23.7542 70.4376 23.0951 70.6096 22.5445 70.977C21.5442 71.6435 21.0459 72.8551 20.8253 74.0358C20.098 77.9369 21.8676 81.9679 24.5413 84.9005C27.2149 87.8322 30.7103 89.8636 34.1468 91.8473C38.0788 94.1171 41.9013 96.7038 46.2072 98.1491C47.9282 98.7268 49.5838 99.5037 51.1282 100.457C51.2684 100.544 51.4152 100.64 51.4834 100.79C51.5461 100.929 51.5302 101.089 51.5115 101.242C51.4535 101.715 51.39 102.189 51.3199 102.662Z" fill="white"/>
<path d="M54.0728 130.398C55.2236 130.869 56.1603 131.221 56.4501 131.274C56.3856 132.076 56.2763 133.031 56.7596 133.721C57.256 134.43 57.9506 135.116 58.519 135.777C60.0577 137.568 61.4459 139.483 62.7332 141.459C62.9669 141.818 63.2016 142.193 63.2754 142.617C63.6914 145.035 59.7464 143.338 58.7929 142.88C57.4112 142.217 52.09 138.936 50.7177 138.161C48.7312 137.039 46.1688 135.829 46.5979 133.04C46.9774 131.141 47.572 129.349 47.9777 127.458C47.9206 127.724 51.5235 129.354 54.0728 130.398Z" fill="black"/>
<path d="M22.9658 52.6186C22.317 51.1948 22.5807 49.1344 22.6667 47.5667C22.9359 42.6457 23.2051 37.7237 23.4744 32.8027C23.5314 31.7613 23.5912 30.7021 23.9446 29.7196C25.4048 25.6577 29.9117 26.2887 32.9798 28.0107C36.6444 30.0664 37.4615 35.5605 35.1412 38.9306C34.3877 40.0253 33.2556 40.8171 32.0441 41.3649C31.7926 41.479 31.5234 41.5949 31.3701 41.8239C31.2196 42.0492 31.213 42.3381 31.2111 42.6092C31.1915 45.9158 31.1719 49.2214 31.1522 52.5279C31.1448 53.7338 31.4972 55.08 29.9753 55.1258C28.4898 55.1707 26.7641 54.4424 25.2768 54.2396C24.0437 54.0713 23.3472 53.4553 22.9658 52.6186Z" fill="#EAA896"/>
<path d="M46.4924 73.2073C47.1281 73.3298 47.7703 73.3419 48.392 73.1624C50.0168 72.695 51.0115 71.0777 51.6827 69.5259C52.094 68.5733 52.4502 67.5253 52.2174 66.5148C51.8902 65.0901 50.5487 64.2515 49.2998 63.7018C47.6946 62.9951 46.8636 62.0518 45.6735 60.7132C43.1663 57.8918 40.7927 54.9527 38.5631 51.9069C37.3142 50.2018 36.2101 47.5609 33.5589 48.9846C30.4552 50.6514 31.2853 54.8648 31.8313 57.6946C32.539 61.3601 35.7782 65.6454 38.3462 68.2489C40.1336 70.0616 42.2623 71.5349 44.5881 72.5707C45.1958 72.8409 45.8409 73.0821 46.4924 73.2073Z" fill="#EAA896"/>
<path d="M64.66 40.7609C64.33 40.5683 63.4802 40.5917 62.9118 40.7871C62.1163 41.0601 61.5245 41.7313 61.0617 42.4334C60.5981 43.1354 60.2195 43.9001 59.6529 44.5218C59.5987 44.5816 59.5361 44.6433 59.4557 44.6536C59.2426 44.6807 59.179 44.3685 59.2229 44.1581C59.3024 43.7805 59.4445 43.3981 59.3697 43.0204C59.2949 42.6428 58.8724 42.3006 58.533 42.4838C58.3339 42.5913 58.2479 42.8279 58.1834 43.0447C57.8571 44.1441 57.6552 45.28 57.5813 46.4242C57.5552 46.8318 57.5439 47.2478 57.4121 47.6339C57.2298 48.1677 56.8335 48.5958 56.4483 49.0081C54.1794 51.4331 52.1667 54.5695 50.0381 57.1179C48.1086 59.4278 46.5296 61.5032 44.7983 63.9534C44.716 64.0703 44.6319 64.1862 44.5459 64.3002C46.482 66.8542 47.2233 70.3477 49.2939 72.7924C50.0577 73.6935 55.2059 64.4816 55.4807 63.9216C57.4458 59.9186 59.5146 55.954 61.9826 52.2333C63.1193 50.5197 64.3505 48.8361 65.0666 46.9084C65.5957 45.4819 67.5552 42.4492 64.66 40.7609Z" fill="#EAA896"/>
<path d="M28.4041 31.6529C30.1279 30.632 32.0846 31.7118 34.0935 31.6912C35.3958 31.6781 36.884 31.0499 37.157 29.7766C37.3374 28.9362 36.9149 28.0649 36.31 27.4545C35.6687 26.8085 34.8134 26.3785 33.9122 26.2485C33.1241 26.1354 32.3229 26.2476 31.532 26.3392C29.294 26.5982 26.6634 26.1466 24.5086 26.8599C22.8268 27.4162 22.4865 29.2653 22.0509 30.9209C21.447 33.2169 20.9066 35.7521 21.949 37.8845C22.2098 38.4183 22.6221 38.9456 23.2064 39.0568C23.7953 39.169 24.3936 38.81 24.7404 38.3211C25.5575 37.1722 25.8389 35.3623 26.4933 34.0638C26.7765 33.501 27.0645 32.9317 27.4739 32.4531C27.7749 32.1016 28.0853 31.8417 28.4041 31.6529Z" fill="black"/>
<path d="M33.9596 47.4909C34.5195 47.5993 34.9729 48.0695 35.4703 48.4584C38.874 51.118 40.1333 55.9923 40.8942 60.0495C41.8132 64.95 41.8823 69.9841 42.877 74.8696C38.2804 74.8817 33.6838 74.8481 29.0872 74.7695C24.6354 74.6929 20.2342 75.1472 15.7666 74.7546C16.2882 71.4967 16.8099 68.2397 17.3325 64.9818C17.8719 61.6145 18.6132 46.3335 22.0216 46.2185C29.0189 45.982 31.6916 47.0515 33.9596 47.4909Z" fill="#D97757"/>
<mask id="mask1_343_84" style="mask-type:luminance" maskUnits="userSpaceOnUse" x="19" y="26" width="18" height="30">
<path d="M23.1727 52.5288C23.1363 52.3745 23.1063 52.2063 23.083 52.024C22.9624 51.076 23.1381 50.1188 23.2653 49.1718C23.5121 47.3273 23.5915 44.9837 23.2924 43.1458C23.0933 41.923 22.3847 41.3677 21.6704 40.4927C20.8983 39.5466 20.5486 38.1846 20.2953 37.0076C19.7493 34.4723 19.9073 31.78 20.8001 29.341C22.1538 25.6455 26.297 26.0755 29.4651 26.8244C30.6729 27.1095 31.8985 27.4049 32.9801 28.0116C36.6447 30.0673 37.4618 35.5614 35.1415 38.9315C34.388 40.0262 33.2559 40.818 32.0444 41.3658C31.7929 41.4799 31.5237 41.5958 31.3704 41.8248C31.2199 42.0501 31.2133 42.339 31.2114 42.6101C31.1918 45.9166 31.1722 49.2222 31.1525 52.5288C31.1451 53.7347 31.4975 55.0809 29.9756 55.1267C28.4901 55.1716 26.7644 54.4433 25.2771 54.2405C24.0926 54.0778 23.4438 53.6618 23.1727 52.5288Z" fill="white"/>
</mask>
<g mask="url(#mask1_343_84)">
<path d="M32.3426 41.4255C30.7964 41.6452 29.2109 41.5779 27.689 41.2283C28.1059 42.0715 29.0239 42.5258 29.8886 42.897C30.7506 43.2672 31.648 43.6196 32.5857 43.6252" fill="#52303C"/>
</g>
<path d="M35.2336 86.7634C36.4218 87.5852 37.6156 88.4004 38.9674 88.8902C41.3821 89.7662 44.1829 89.5595 46.3555 90.93C47.5614 91.691 48.5093 93.0886 48.2326 94.4871C47.9634 95.851 46.6004 96.784 45.2252 96.9916C43.8501 97.1991 42.46 96.8345 41.1222 96.4549C37.7876 95.5108 32.8694 94.6068 29.4685 93.8551C26.132 93.1176 21.6242 90.9665 19.06 88.6509C17.1351 86.9121 16.5564 85.6697 15.2187 83.4466C12.8161 79.4539 12.4141 76.2521 10.9857 71.8022C9.76199 67.9899 8.141 62.3566 9.89289 58.5106C10.5744 57.0149 12.072 55.7622 13.7108 55.8978C15.0541 56.009 16.6817 55.622 17.3258 56.8064C18.8786 59.6614 18.7926 59.5203 19.6797 62.6305C20.7511 66.383 22.0094 75.2761 23.0798 79.0286C23.1714 79.3492 23.2658 79.6755 23.4518 79.9512C23.7024 80.3233 24.095 80.5711 24.4811 80.7992C27.5642 82.623 30.9399 83.9318 33.9426 85.8866C34.3773 86.1698 34.8055 86.4671 35.2336 86.7634Z" fill="#EAA896"/>
<path d="M22.022 46.2184C18.8575 46.3708 15.0097 47.7067 12.8465 50.141C10.6711 52.5894 9.61566 56.3951 9.22209 59.5895C8.84535 62.6473 8.98837 65.7417 9.13234 68.8192C13.6018 69.1744 18.0704 69.5296 22.5399 69.8858C23.0101 69.9232 23.1157 61.8321 23.5429 61.1263C24.7021 59.208 26.8514 58.1741 28.678 56.8737C30.5038 55.5734 32.2145 53.5167 31.749 51.3236C31.4704 50.0111 30.4552 48.9734 29.3474 48.2162C27.1355 46.7045 24.5713 46.0959 22.022 46.2184Z" fill="#D97757"/>
<path d="M38.1834 66.8402C38.1591 66.7598 38.0498 66.9066 38.1274 66.9393C38.2049 66.972 38.2816 66.8935 38.3302 66.8252C40.4196 63.8823 41.9985 60.6805 44.001 57.6769C44.1459 57.46 41.9882 54.4208 41.3778 53.6271C40.3457 52.2828 39.2249 50.9993 37.9338 49.8962C35.6248 47.9237 32.652 46.5429 29.624 46.7691C30.0176 46.7392 31.2198 48.0162 31.5367 48.2845C32.192 48.8398 32.8268 49.4241 33.3999 50.0654C34.459 51.2536 35.3649 52.7409 35.7257 54.2983C36.2016 56.3503 36.2455 58.5584 36.6493 60.6394C37.0569 62.7306 37.5646 64.8022 38.1834 66.8402Z" fill="#D97757"/>
<path d="M7.49364 65.7886C5.58937 80.2132 15.4641 93.932 29.9037 98.7511" stroke="black" stroke-width="0.5" stroke-miterlimit="10"/>
<path d="M59.423 135.483C59.7511 135.876 59.5763 136.527 59.1621 136.829C58.7489 137.132 58.1862 137.149 57.686 137.037" fill="#EB845E"/>
<path d="M57.8348 133.58C58.0713 134.026 57.8965 134.609 57.5272 134.952C57.158 135.295 56.6382 135.432 56.1353 135.462" fill="#EB845E"/>
<path d="M40.4131 77.7725C44.6339 79.2261 49.0155 80.204 53.1606 81.8615C57.3057 83.5189 61.3003 85.9617 63.8 89.6599C66.8383 94.1537 67.2973 99.9338 66.7214 105.328C66.1465 110.722 65.3622 112.681 64.8452 118.082" stroke="black" stroke-width="0.5" stroke-miterlimit="10"/>
<path d="M23.0352 69.4475C23.5306 65.7941 23.7634 62.1052 23.7307 58.4182" stroke="black" stroke-width="0.5" stroke-miterlimit="10"/>
<path d="M46.2472 61.5759C46.1238 62.7529 46.0004 63.9308 45.877 65.1078" stroke="black" stroke-width="0.5" stroke-miterlimit="10"/>
<path d="M78.879 5.52011C74.4759 2.87451 69.037 2.74083 63.9113 3.0699C57.7423 3.46627 48.6752 3.26995 44.5461 8.65651C40.8366 13.4943 41.7817 20.2841 47.8788 22.6361C49.3567 23.2064 50.9815 23.6579 52.695 24.0113C51.5106 27.2393 49.4502 30.1485 46.7682 32.3043C49.5839 32.3875 52.3426 31.0946 54.3469 29.1155C55.6192 27.8591 56.6046 26.3456 57.3422 24.7124C63.9094 25.3677 71.0984 24.8302 76.5962 23.5757C79.4932 22.9138 82.3015 21.2675 83.6869 18.6388C86.0801 14.0945 83.2812 8.16572 78.879 5.52011Z" fill="#9EB5AB"/>
<path d="M52.1772 20.0402C52.7484 18.5229 53.2681 16.9346 53.169 15.3164C53.07 13.6982 52.222 12.0295 50.73 11.3957C49.238 10.7609 47.1758 11.5836 46.8888 13.1794C46.7775 13.7964 46.9271 14.4367 47.187 15.0079C48.163 17.1515 50.7057 18.349 53.0428 18.0564C55.3799 17.7638 57.4338 16.1634 58.6126 14.1245C59.2016 13.1064 59.5998 11.8678 59.2053 10.7591C58.8108 9.65127 57.3459 8.91461 56.3905 9.59984C55.5117 10.2299 55.5594 11.5396 55.7913 12.5951C56.2755 14.7938 57.4282 17.145 59.5858 17.7881C62.3249 18.6042 64.9387 16.2858 66.728 14.0581C67.919 12.5755 68.937 10.1346 67.3815 9.04081C66.1409 8.16767 64.3442 9.22217 63.7262 10.6085C62.4698 13.4308 64.7957 17.0739 67.8666 17.4039C70.9385 17.7339 73.887 15.0182 74.1235 11.9379C74.1544 11.5331 74.1432 11.1078 73.959 10.746C73.2466 9.34277 70.9422 10.2496 70.3159 11.693C69.1857 14.2993 71.118 17.6909 73.9207 18.1546C76.7233 18.6183 79.6026 16.1615 79.698 13.3224C79.7288 12.4025 79.4718 11.4125 78.7613 10.8273C78.0508 10.2421 76.8271 10.2617 76.3223 11.032C76.0802 11.4013 76.0353 11.8631 76.0306 12.3043C76.0007 15.1566 77.4665 17.9835 79.8139 19.6036" stroke="black" stroke-width="0.5" stroke-miterlimit="10"/>
<path d="M32.4922 37.0148C33.5382 36.0566 33.8187 40.1082 32.2472 39.3005C32.0771 39.2126 31.9827 39.0172 31.9659 38.8265C31.949 38.6358 31.9967 38.4451 32.0435 38.2591C32.0967 38.0478 32.15 37.8365 32.2042 37.6252C32.2603 37.4037 32.3239 37.169 32.4922 37.0148Z" fill="black"/>
<path d="M107.403 32.2681C104.219 32.7663 101.781 35.5138 101.781 38.8372C101.781 42.1606 104.219 44.9081 107.403 45.4063V32.2681Z" fill="#E8BC92"/>
<path d="M113.025 32.2681C109.841 32.7663 107.403 35.5138 107.403 38.8372C107.403 42.1606 109.841 44.9081 113.025 45.4063V32.2681Z" fill="#3C8775"/>
<path d="M87.0899 67.5469C86.5917 64.3629 83.8442 61.9248 80.5208 61.9248C77.1974 61.9248 74.4499 64.3629 73.9517 67.5469H87.0899Z" fill="#9EB5AB"/>
<path d="M81.4278 52.3418C78.2437 52.8401 75.8057 55.5876 75.8057 58.9109C75.8057 62.2343 78.2437 64.9818 81.4278 65.4801V52.3418Z" fill="#3C8775"/>
<path d="M113.972 51.0284C113.474 47.8443 110.726 45.4062 107.403 45.4062C104.08 45.4062 101.332 47.8443 100.834 51.0284H113.972Z" fill="#9EB5AB"/>
<path d="M105.036 75.3801H92.0166V88.3997H105.036V75.3801Z" fill="#E8BC92"/>
<path d="M99.3459 77.1553C98.9121 73.9815 96.1974 71.5332 92.9039 71.5332C89.6105 71.5332 86.8957 73.9806 86.4619 77.1553H99.3459Z" fill="#9EB5AB"/>
<path d="M82.001 28.4126C82.4347 31.5864 85.1495 34.0347 88.443 34.0347C91.7364 34.0347 94.4512 31.5873 94.885 28.4126H82.001Z" fill="black"/>
<path d="M121.31 58.5144H108.291V71.5339H121.31V58.5144Z" fill="white"/>
<path d="M108.291 58.5144H121.31V71.5339" fill="#E8BC92"/>
<path d="M118.48 18.6556H105.46V5.63696" fill="white"/>
<path d="M103.571 0H116.591V13.0195" fill="#E8BC92"/>
<path d="M84.4829 28.4126C84.7493 29.9822 86.419 31.1938 88.4429 31.1938C90.4668 31.1938 92.1364 29.9831 92.4029 28.4126H84.4829Z" fill="white"/>
<path d="M135.625 14.4479C131.837 14.4479 128.767 11.377 128.767 7.58994V0.731934H142.484V7.58994C142.483 11.3779 139.412 14.4479 135.625 14.4479Z" fill="#9EB5AB"/>
<path d="M142.483 28.165H128.766V21.307C128.766 17.519 131.837 14.449 135.624 14.449C139.412 14.449 142.482 17.5199 142.482 21.307V28.165H142.483Z" fill="#9EB5AB"/>
<path d="M127.419 0.731934H144.203" stroke="black" stroke-width="0.5" stroke-miterlimit="10"/>
<path d="M130.148 7.88428V8.23578C130.148 11.2609 132.6 13.713 135.625 13.713C138.65 13.713 141.102 11.2609 141.102 8.23578V7.88428H130.148Z" fill="#E8BC92"/>
<path d="M141.723 27.3386C141.218 25.5437 138.683 23.4365 135.625 23.4365C132.567 23.4365 130.033 25.5437 129.527 27.3386H141.723Z" fill="#E8BC92"/>
<path d="M127.419 28.0264H144.203" stroke="black" stroke-width="0.5" stroke-miterlimit="10"/>
</svg>
