<svg width="113" height="106" viewBox="0 0 113 106" fill="none" xmlns="http://www.w3.org/2000/svg">
<path d="M55.6208 0.00183105C58.8238 0.116642 98.001 10.9376 100.32 13.3671C102.639 15.7982 112.824 48.2757 112.619 54.3143C112.413 60.3526 98.3062 91.4284 95.3845 94.9227C92.463 98.4168 63.044 104.989 58.2429 105.053C55.7391 105.086 44.412 102.361 33.6228 99.3134C35.9141 95.5457 37.9484 90.5004 39.5925 83.6659C42.5925 84.5797 47.2426 85.6714 52.2146 86.3104C64.896 87.9401 76.6637 86.3874 84.533 79.7606C92.4309 73.1093 96.2583 61.475 93.3386 43.2928C92.2369 36.432 89.7629 32.1773 87.5027 29.2919C80.5694 20.4413 69.4046 18.2658 59.8171 20.2128C54.0182 21.3907 48.5748 24.0808 44.3025 28.0272C36.0332 24.925 27.1827 25.2986 20.3494 32.2548C18.0368 34.6088 13.5533 39.8884 15.823 48.4061C17.0303 52.9356 19.7703 56.823 20.5593 57.9403C22.5512 60.7611 24.9643 63.5915 27.2605 66.2469C29.5652 68.9122 31.7438 71.3913 33.3035 73.5399C34.0955 74.6312 34.6372 75.4584 34.9871 76.0575C35.3497 76.6784 35.4747 77.0026 35.4939 77.1122C35.4939 77.1121 35.496 77.1259 35.4978 77.16C35.4996 77.1943 35.5005 77.2399 35.5007 77.2968C35.5012 77.4108 35.498 77.5601 35.491 77.7391C35.4769 78.097 35.4475 78.5623 35.407 79.0829C35.3259 80.1245 35.1985 81.3759 35.0496 82.4227C34.2039 88.3658 31.0098 94.5467 28.8914 97.9442C20.8699 95.5659 13.9883 93.2101 12.5134 91.9823C8.83886 88.9226 1.15049 67.6991 0.435303 64.9598C-0.27963 62.2213 -0.140329 37.2902 1.04956 33.8427C2.24062 30.3939 17.7152 10.931 21.9304 8.04871C26.1467 5.16628 52.417 -0.11273 55.6208 0.00183105ZM32.8708 91.4178C32.8465 91.4742 32.8231 91.5308 32.7986 91.5868C32.8231 91.5308 32.8465 91.4742 32.8708 91.4178ZM33.1892 90.6669C33.1657 90.7239 33.1426 90.781 33.1189 90.8378C33.1426 90.781 33.1657 90.7239 33.1892 90.6669ZM33.4871 89.9266C33.4703 89.9693 33.4541 90.0121 33.4373 90.0546C33.4541 90.012 33.4703 89.9693 33.4871 89.9266ZM35.1726 84.5233L35.1433 84.6454C35.1667 84.5422 35.1894 84.439 35.2117 84.3358C35.1982 84.3982 35.1865 84.461 35.1726 84.5233ZM35.3308 83.7528C35.3139 83.8404 35.2958 83.9279 35.2781 84.0155C35.2959 83.9279 35.3139 83.8404 35.3308 83.7528ZM49.0339 30.201C54.8111 25.7959 62.4652 23.7189 69.3884 24.451C73.6465 24.9014 78.2578 26.4636 82.0281 29.829C83.8645 31.4679 87.8533 35.5428 89.1179 43.993C90.2361 51.4644 90.7125 61.2408 86.9041 68.7577C82.6126 77.2273 74.136 80.167 65.5525 80.6708C56.9727 81.1743 48.4106 79.2311 44.1687 78.0624C42.5433 77.6146 41.1925 77.1774 40.3591 76.8954C39.9067 74.3813 38.5145 71.7842 36.7156 69.1581C34.841 66.4215 32.482 63.5891 30.2009 60.7352C26.2594 55.8039 25.151 54.0007 24.072 52.2411C21.0232 47.2687 20.2957 43.6544 21.8054 40.5292C22.8071 38.4562 24.7747 36.695 25.5222 36.0731C29.6759 32.6186 34.7343 32.0967 39.8103 33.3192C35.5167 39.879 33.9205 48.471 36.9138 58.4325C39.8717 68.2746 49.7232 72.3084 59.364 71.6083C71.336 70.7387 82.7501 62.6658 82.1462 49.1161C81.9094 43.7999 80.0936 40.9862 79.8201 40.5409C77.715 37.1144 74.4905 35.5883 70.863 35.451C67.3656 35.3188 63.4949 36.4752 59.8367 38.4208C58.8217 37.3838 57.757 36.3937 56.6707 35.4716C54.3006 33.4599 51.7233 31.6653 49.0339 30.201ZM35.906 79.1219L35.8357 79.9423C35.8857 79.3971 35.9256 78.8773 35.9539 78.4296C35.9402 78.6453 35.925 78.8779 35.906 79.1219ZM46.6677 79.2177C46.5675 79.1938 46.4688 79.169 46.3708 79.1454C46.4688 79.169 46.5675 79.1939 46.6677 79.2177ZM44.865 78.7665C44.5731 78.6898 44.2962 78.6165 44.0359 78.5448C43.5776 78.4185 43.1408 78.293 42.7312 78.1718V78.1708C43.1409 78.2921 43.5775 78.4175 44.0359 78.5438C44.2962 78.6156 44.573 78.6896 44.865 78.7665ZM35.9333 76.8348C35.9601 76.9109 35.977 76.975 35.9861 77.0272C35.9951 77.0794 36.0002 77.1707 36.0007 77.2948L35.9998 77.2958C35.9995 77.2336 35.9982 77.1796 35.9958 77.1346C35.9935 77.0896 35.9906 77.0534 35.9861 77.0272C35.968 76.9229 35.9161 76.7721 35.824 76.5702V76.5692C35.8702 76.6704 35.9066 76.7587 35.9333 76.8348ZM37.8914 71.9589C37.9858 72.1249 38.0775 72.2907 38.1667 72.4559H38.1658C38.0765 72.2907 37.9848 72.1249 37.8904 71.9589H37.8914ZM44.3533 34.8593C48.1879 36.5198 51.8316 38.9861 54.8396 41.6825C52.6069 43.4447 50.5802 45.5195 49.2048 47.7147C47.7346 50.0616 46.9758 52.6038 47.5945 55.0604L47.7117 55.4716C48.3497 57.4755 49.7654 58.7134 51.2136 59.4784C52.7493 60.2896 54.3528 60.5878 55.1902 60.7245C59.6545 61.453 61.9705 60.7828 62.5984 60.6024C65.5483 59.7543 66.9535 57.7543 67.5115 55.9794C68.1724 53.8766 67.934 51.5514 67.1111 49.2069C66.3473 47.0311 65.0703 44.8084 63.489 42.6757C65.8248 41.6294 68.298 40.948 70.4851 40.9745C72.8286 41.003 74.7991 41.8368 75.9919 43.869C76.0072 43.895 77.2045 45.6871 77.3767 49.4042C77.606 54.3562 75.5373 58.2171 72.3347 60.993C69.1201 63.7791 64.7592 65.472 60.4519 66.0302C52.7732 67.0253 44.6612 64.5343 41.7771 58.1454C41.0642 56.5658 40.4471 53.9499 40.1707 52.0985C39.1347 45.1612 40.9418 39.3478 44.3533 34.8593ZM41.696 65.4891C41.6431 65.437 41.5892 65.3858 41.5369 65.3329L41.2478 65.0331C41.3941 65.1885 41.5443 65.3398 41.696 65.4891ZM92.9119 64.0184C92.8373 64.3725 92.7579 64.7217 92.6746 65.0663C92.7123 64.9104 92.749 64.7534 92.7849 64.5956L92.9119 64.0184ZM63.1296 59.8964C63.0973 59.9088 63.0648 59.9213 63.032 59.9335C63.0648 59.9214 63.0973 59.9088 63.1296 59.8964ZM93.6658 58.6385C93.6613 58.6963 93.6568 58.7539 93.6521 58.8114C93.6568 58.7539 93.6613 58.6963 93.6658 58.6385ZM41.321 58.3505V58.3514C41.2748 58.2489 41.2287 58.1422 41.1833 58.0321V58.0311C41.2287 58.1413 41.2747 58.2479 41.321 58.3505ZM58.5808 45.5262C60.2201 47.4805 61.3403 49.2789 62.0027 50.7548C62.3536 51.5366 62.5713 52.2184 62.6736 52.7772C62.7774 53.3446 62.7547 53.7438 62.6707 53.9882C62.5743 54.2677 62.221 54.6386 61.3591 54.9081C60.5144 55.1721 59.2708 55.3063 57.5886 55.1874C53.9009 54.9266 52.8766 54.049 52.7039 53.913C52.457 53.7186 52.3636 53.5803 52.324 53.451C52.2819 53.3132 52.2758 53.101 52.3787 52.7079L52.4314 52.5233C52.7245 51.5849 53.4317 50.4273 54.5056 49.1893C55.5638 47.9695 56.9539 46.7027 58.5808 45.5262ZM39.5837 51.4969C39.6118 51.7207 39.6428 51.9457 39.6765 52.1718C39.7114 52.4055 39.7514 52.652 39.7966 52.9071L39.947 53.6962C39.8376 53.1575 39.7454 52.6403 39.6755 52.1727L39.5837 51.4969ZM93.7244 51.37L93.7605 52.118C93.7462 51.782 93.7278 51.4432 93.7078 51.1014C93.7129 51.1912 93.7195 51.2806 93.7244 51.37ZM93.6794 50.6132C93.6852 50.7015 93.6897 50.7898 93.6951 50.8778C93.6739 50.5372 93.6504 50.1938 93.6238 49.8475L93.6248 49.8466C93.6445 50.1037 93.6628 50.3592 93.6794 50.6132ZM56.0935 46.8807C56.1297 46.8484 56.1663 46.8163 56.2029 46.7841C56.1663 46.8163 56.1297 46.8484 56.0935 46.8807ZM65.0281 45.9169C65.1941 46.2058 65.3527 46.4951 65.5037 46.7841C65.3528 46.4953 65.194 46.2065 65.0281 45.9178V45.9169ZM39.5144 45.7128C39.4942 45.905 39.4766 46.0984 39.4607 46.2928C39.4758 46.1083 39.4912 45.9246 39.5105 45.7421L39.5144 45.7128ZM93.0388 44.6327C92.9779 44.2164 92.9125 43.7966 92.8445 43.3729L92.8455 43.3719C92.9135 43.7958 92.9781 44.2161 93.0388 44.6327ZM57.3035 45.8632C57.3272 45.8443 57.3509 45.8253 57.3748 45.8065C57.3509 45.8253 57.3272 45.8443 57.3035 45.8632ZM57.9705 45.3514C57.9787 45.3453 57.9867 45.339 57.9949 45.3329L58.0427 45.2977C58.0186 45.3156 57.9945 45.3335 57.9705 45.3514ZM20.5642 43.2675C20.6044 42.6951 20.7026 42.1387 20.8601 41.5956L20.9626 41.2704C20.89 41.4861 20.8269 41.7038 20.7732 41.9237C20.7194 42.1441 20.6752 42.3667 20.6404 42.5917C20.6059 42.8145 20.5802 43.0397 20.5642 43.2675ZM40.3982 41.4305C40.4055 41.4071 40.4123 41.3836 40.4197 41.3602C40.4123 41.3836 40.4055 41.4071 40.3982 41.4305ZM40.5925 40.8309C40.6132 40.7705 40.6349 40.7104 40.656 40.6503C40.6348 40.7104 40.6132 40.7705 40.5925 40.8309ZM40.7546 40.3798C40.8222 40.1954 40.8924 40.0125 40.9646 39.8309C40.8924 40.0125 40.8222 40.1954 40.7546 40.3798ZM21.5642 39.9052C21.4909 40.0389 21.4213 40.1746 21.3552 40.3114H21.3542C21.4204 40.1744 21.4907 40.039 21.5642 39.9052ZM41.0291 39.6688C41.0493 39.6191 41.068 39.5689 41.0886 39.5194L41.3132 38.9999C41.2147 39.2205 41.1206 39.4438 41.0291 39.6688ZM21.9734 39.2264C21.9368 39.2824 21.9006 39.3387 21.865 39.3954C21.8906 39.3546 21.916 39.3137 21.9421 39.2733L21.9734 39.2264ZM22.3601 38.6698L22.1628 38.9442C22.2875 38.765 22.4166 38.5906 22.5476 38.4208C22.4845 38.5026 22.422 38.5857 22.3601 38.6698ZM22.5857 38.3719C22.6601 38.2763 22.7348 38.182 22.8103 38.0897C22.7349 38.182 22.6601 38.2763 22.5857 38.3719ZM42.6833 36.411C42.708 36.3712 42.7327 36.3315 42.7576 36.2919C42.7327 36.3315 42.7079 36.3712 42.6833 36.411ZM56.3474 35.8534C56.5436 36.0199 56.7368 36.1913 56.9314 36.3622C56.7366 36.1912 56.5428 36.02 56.3464 35.8534C56.2133 35.7404 56.0795 35.6281 55.9451 35.5165C56.0797 35.6282 56.2141 35.7402 56.3474 35.8534ZM25.6267 35.3485V35.3475V35.3485ZM36.6003 32.287C37.0933 32.3281 37.5878 32.3873 38.0828 32.4647C37.5878 32.3874 37.0933 32.3281 36.6003 32.287ZM35.1902 32.2216C35.6352 32.2255 36.082 32.2454 36.53 32.2811C36.082 32.2453 35.6352 32.2256 35.1902 32.2216ZM43.6443 28.3163C43.9026 28.4084 44.1604 28.5042 44.4177 28.6034V28.6044C44.1604 28.5051 43.9027 28.4087 43.6443 28.3163ZM45.6394 27.5145V27.5135V27.5145ZM77.5896 22.2831C77.733 22.3448 77.8759 22.4081 78.0183 22.4725H78.0173C77.8749 22.4081 77.732 22.3448 77.5886 22.2831H77.5896ZM56.8113 21.4911C56.9472 21.4496 57.083 21.4079 57.2195 21.368L57.7537 21.2177C57.438 21.304 57.1239 21.3955 56.8113 21.4911ZM62.158 20.328C61.4032 20.4272 60.6549 20.5529 59.9158 20.703C59.7341 20.7399 59.5528 20.7783 59.3718 20.8182L58.8298 20.9423C59.1905 20.8564 59.553 20.7759 59.9167 20.702C60.4709 20.5895 61.0302 20.4911 61.5935 20.4071L62.158 20.328ZM45.7439 78.9921C45.4535 78.9195 45.175 78.8479 44.9089 78.7782C45.1749 78.8481 45.4536 78.9192 45.7439 78.9921ZM20.5466 43.62C20.5498 43.5087 20.5558 43.3981 20.5632 43.288L20.5466 43.62ZM20.5642 43.2733L20.5632 43.288C20.5637 43.2811 20.5637 43.2743 20.5642 43.2675C20.5641 43.2694 20.5643 43.2714 20.5642 43.2733ZM21.5642 39.9052C21.6302 39.7849 21.6993 39.6662 21.7703 39.5487C21.6993 39.6662 21.6301 39.7849 21.5642 39.9052Z" fill="#D6591F"/>
</svg>
