<svg width="820" height="215" viewBox="0 0 820 215" fill="none" xmlns="http://www.w3.org/2000/svg">
<g clip-path="url(#clip0_227_258)">
<path d="M356.402 65.0052C358.966 65.0052 370.451 50.1256 389.524 50.1256C412.699 50.1256 421.108 64.6974 421.108 87.5812C421.108 102.769 418.646 120.624 418.646 128.218C418.646 133.349 420.185 138.685 423.466 141.558C427.055 144.944 430.336 145.663 430.336 150.588C430.336 154.693 427.363 157.464 420.902 157.464C415.057 157.464 408.802 156.848 403.367 156.848C395.882 156.848 393.831 157.464 386.14 157.464C381.423 157.464 379.577 154.488 379.577 150.999C379.577 146.176 381.115 142.174 382.038 139.608C384.089 133.759 385.935 115.185 385.935 98.9717C385.935 81.5267 380.91 73.8304 371.784 73.8304C367.067 73.8304 358.351 78.4482 358.351 91.6859C358.351 106.771 358.043 120.624 358.043 128.218C358.043 133.349 358.453 138.48 361.427 141.558C364.811 144.944 367.477 145.663 367.477 150.588C367.477 154.693 364.606 157.464 358.146 157.464C352.198 157.464 347.686 156.848 342.251 156.848C334.766 156.848 332.715 157.464 325.024 157.464C320.307 157.464 318.461 154.488 318.461 150.999C318.461 146.176 320.102 142.174 320.922 139.608C322.973 133.759 324.614 115.185 324.614 98.9717C324.614 81.5267 319.589 73.8304 310.463 73.8304C305.438 73.8304 297.029 79.0639 297.029 90.9675V124.934C297.029 133.964 297.542 137.351 300.413 140.942C303.285 144.534 306.669 145.355 306.669 150.588C306.669 154.693 304.413 157.464 298.157 157.464C292.005 157.464 286.262 156.848 280.725 156.848C273.444 156.848 266.369 157.464 258.37 157.464C253.346 157.464 251.5 154.488 251.5 150.999C251.5 145.971 255.499 143.2 257.242 141.045C262.165 134.683 262.78 128.628 262.78 123.292V85.9393C262.78 79.2691 259.191 76.4984 256.73 75.1644C254.986 74.0356 252.32 72.5989 252.32 69.0073C252.32 63.0555 260.114 62.1319 269.138 58.0272C280.828 52.6911 282.673 50.4335 286.365 50.4335C290.877 50.4335 293.44 52.178 294.979 58.3351C295.696 61.6188 296.414 64.6974 297.85 64.6974C300.311 64.6974 311.386 50.1256 328.305 50.1256C339.072 50.1256 346.558 53.8199 351.788 60.2848C354.146 63.1581 355.069 65.0052 356.402 65.0052Z" fill="black"/>
<path d="M523.615 102.05C512.13 108.002 490.493 110.568 480.136 111.388C478.188 111.491 477.367 111.902 477.367 113.338C477.367 119.906 484.135 130.886 500.747 130.886C514.283 130.886 522.179 124.626 527.409 119.803C528.844 118.674 530.485 117.853 531.715 117.853C533.869 117.853 535.202 119.906 535.202 124.318C535.202 138.787 518.385 159.208 489.262 159.208C456.653 159.208 437.273 137.556 437.273 106.976C437.273 76.3958 459.114 50.1256 492.339 50.1256C522.487 50.1256 533.356 72.9068 533.356 87.0681C533.356 94.6618 529.357 99.0743 523.615 102.05ZM500.85 81.3215C500.85 73.8304 495.928 68.0838 488.75 68.0838C478.803 68.0838 472.548 78.3455 472.548 88.7099C472.548 93.1225 473.983 95.688 477.06 95.688C482.289 95.688 494.287 92.712 498.901 87.0681C500.235 85.4262 500.85 83.6817 500.85 81.3215Z" fill="black"/>
<path d="M588.384 13.1832C588.384 26.3183 587.461 26.2157 587.461 55.8723V124.934C587.461 133.964 588.999 137.351 592.075 140.942C595.049 144.534 598.638 145.355 598.638 150.588C598.638 154.693 596.485 157.464 589.922 157.464C583.872 157.464 576.078 156.848 570.439 156.848C562.953 156.848 556.185 157.464 547.981 157.464C542.854 157.464 540.906 154.488 540.906 150.999C540.906 145.971 545.008 143.2 546.956 141.045C551.981 134.683 552.493 128.628 552.493 123.292V40.9927C552.493 35.4513 548.597 32.4754 546.033 31.0387C543.777 29.6021 541.726 28.1654 541.726 25.0869C541.726 19.6482 549.212 18.5194 558.441 14.7225C568.798 10.6178 576.079 6 581.103 6C585.307 6 588.384 8.15496 588.384 13.1832Z" fill="black"/>
<path d="M699.394 82.245C693.857 97.2272 686.576 117.135 681.961 127.705C665.452 167.315 653.249 202 626.793 202C614.488 202 605.156 193.893 605.156 181.579C605.156 170.804 612.129 162.697 620.743 162.697C624.947 162.697 627.716 164.75 629.869 167.11C633.048 170.496 635.201 174.396 638.79 174.396C641.969 174.396 646.584 169.368 646.584 164.442C646.584 157.464 634.689 133.451 628.536 118.469C623.922 107.386 610.488 75.5749 604.643 69.5204C601.362 65.9288 598.491 63.0555 598.491 58.4377C598.491 54.333 601.054 51.5623 606.182 51.5623C612.744 51.5623 617.666 52.178 624.434 52.178C630.895 52.178 638.073 51.5623 645.046 51.5623C650.173 51.5623 653.044 53.1016 653.044 59.4639C653.044 63.466 647.712 66.3393 647.712 72.3937C647.712 76.0879 649.968 82.7581 655.3 95.2775C660.017 106.463 663.606 115.801 665.144 115.801C667.605 115.801 671.707 101.64 675.604 89.0178C678.065 81.7319 678.578 78.5508 678.578 76.4984C678.578 66.955 670.579 64.1843 670.579 58.2325C670.579 54.0251 673.553 51.5623 677.347 51.5623C682.474 51.5623 689.14 52.178 693.857 52.178C699.086 52.178 702.778 51.5623 706.367 51.5623C711.699 51.5623 713.135 54.333 713.135 57.7194C713.135 65.8262 706.059 64.1843 699.394 82.245Z" fill="black"/>
<path d="M742.387 100.614C754.692 96.201 766.792 94.9696 769.971 92.5068C771.407 91.378 772.74 88.9152 772.74 81.7319C772.74 72.3937 768.536 65.6209 760.435 65.6209C753.462 65.6209 748.847 71.6754 745.771 82.0398C743.925 88.0942 741.259 92.8147 733.466 92.8147C725.057 92.8147 717.982 87.0681 717.982 76.1906C717.982 63.3633 733.158 49.9204 760.537 49.9204C785.25 49.9204 808.015 60.2848 808.015 90.8649C808.015 103.692 806.99 113.441 806.99 124.831C806.99 128.526 808.118 133.041 812.835 133.041C814.578 133.041 815.706 132.425 817.244 132.425C818.577 132.425 819.5 134.477 819.5 136.838C819.5 149.562 808.63 158.798 795.197 158.798C784.738 158.798 778.995 155.206 775.509 149.152C774.996 148.331 774.381 147.305 773.56 147.305C772.637 147.305 771.817 148.228 770.997 149.049C764.844 154.796 754.282 159.311 744.233 159.311C727.005 159.311 713.675 150.588 713.675 133.349C713.675 117.135 724.647 107.181 742.387 100.614ZM773.048 118.469C773.048 111.183 772.33 109.849 771.304 109.849C767.818 109.849 764.126 110.67 760.435 112.312C753.769 115.083 748.745 120.419 748.745 126.884C748.745 132.117 752.129 136.427 758.384 136.427C768.536 136.427 773.048 127.91 773.048 118.469Z" fill="black"/>
<path d="M125.335 0C126.086 0.400061 126.986 0.14595 127.864 0.303711C131.205 0.907832 137.205 3.2067 140.469 4.48828C153.139 9.46458 164.236 15.63 175.647 23.0352C181.343 26.7299 187.959 30.5361 191.75 36.3096C192.285 37.1254 192.847 38.4732 193.39 39.2891C197.912 46.0743 203.243 52.2904 207.777 59.1025C209.59 71.5727 210.821 84.185 212.052 96.7744C212.568 102.074 212.868 107.532 213.292 112.943C213.53 115.976 213.411 119.124 213.927 122.061V123.319C212.915 124.82 212.602 126.687 211.929 128.35C206.876 140.877 201.007 153.367 195.165 165.71C194.071 168.023 193.02 171.853 191.396 173.801C190.961 174.324 189.772 174.997 189.252 175.54C181.047 184.096 170.906 190.558 161.661 197.891C161.317 198.227 160.969 198.56 160.62 198.892C159.289 198.234 157.954 197.528 156.606 196.76C149.019 192.433 140.185 187.789 133.106 182.548C126.185 177.419 124.943 174.139 120.203 167.411C117.966 164.236 114.786 158.298 115.049 158.373C117.515 159.096 120.368 160.247 122.834 160.834C131.274 162.843 147.313 163.144 155.132 159.641C183.343 146.998 197.932 104.549 180.669 77.7295C179.068 75.2385 175.647 72.2543 173.417 70.1172C167.414 64.3609 158.511 60.3385 150.334 57.4336C142.158 54.5292 133.56 53.7463 125.007 53.0391C124.237 52.9753 122.918 53.2499 122 53.0205C121.673 52.9376 119.105 47.9948 118.575 47.2266C116.086 43.6184 107.349 36.3032 103.451 34.2148C97.6726 31.1186 85.5904 29.7452 79.1353 30.8779C68.3685 32.7665 53.4056 47.0494 48.0405 56.3652C41.6119 67.5328 42.1079 81.6958 45.7583 93.6982C40.4237 102.126 36.7997 111.311 36.3862 121.406C35.8522 134.541 38.093 153.888 49.0552 162.523C55.9047 167.923 60.7248 168.664 69.2925 169.074C81.9088 169.68 87.2891 166.621 97.1196 159.818C97.6309 159.465 100.97 156.778 101.342 156.996C102.117 158.621 103.488 159.923 104.522 161.308C110.394 169.186 115.568 179.241 121.952 186.318C127.087 192.015 133.91 195.353 140.226 199.307C143.926 201.623 147.543 204.296 151.266 206.823L160.152 199.33C154.686 204.456 148.519 209.118 142.177 213.513C121.217 215.414 100.06 214.251 79.0884 212.827C75.005 210.533 70.994 208.167 66.9487 205.873C56.8266 200.126 46.465 194.384 36.7046 187.898C33.1598 185.543 28.0024 181.829 25.0581 178.827C22.1792 175.898 18.0151 167.123 15.9175 163.108C13.7161 158.894 11.5534 154.549 9.40967 150.315C6.24598 144.053 3.37108 137.648 0.00341619 131.502C0.00341589 131.294 -0.00427009 131.083 0.00341619 130.875C0.472955 115.357 1.45395 99.661 2.52392 84.0156C2.77025 80.4096 2.6629 73.9053 3.46338 70.6758C3.83671 69.1634 10.1403 59.583 11.4604 57.4814C16.4716 49.5144 21.8875 41.4674 28.1421 34.3584C30.805 31.3297 33.4911 28.3583 36.1196 25.2832C42.4012 17.9438 43.6142 17.9156 52.7241 15.6064C61.5724 13.3665 70.5442 10.7619 79.1733 8.47559C93.2636 4.74607 107.027 3.01783 121.402 0.789062C122.372 0.639054 123.45 0.107728 124.497 0H125.335ZM160.653 198.908L160.152 199.33C160.308 199.184 160.465 199.039 160.62 198.892C160.631 198.897 160.642 198.903 160.653 198.908ZM49.8599 103.74C51.2321 107.217 53.6649 110.573 56.1645 113.327C59.3604 116.849 63.2851 119.472 67.0259 122.347C69.5256 124.262 71.9357 126.56 74.5825 128.114C79.6839 131.105 85.9056 133.563 91.4731 135.512C92.4846 139.65 94.631 143.368 95.9429 147.356C94.3676 148.865 92.3642 149.738 90.6353 150.878C83.8682 155.329 80.022 158.339 71.1353 157.609C62.0374 156.864 54.9161 154.667 50.5024 146.059C46.2695 137.796 44.4426 121.985 46.2847 112.854C46.924 109.678 49.8599 103.736 49.8599 103.736V103.74ZM126.155 61.0195C127.805 61.1061 129.545 60.9037 131.184 61.0127C139.759 61.5845 157.475 67.7437 164.163 73.124C166.2 74.7646 172.203 80.5215 173.376 82.5684C177.832 90.3378 179.493 103.82 177.708 112.504C176.565 118.054 172.756 128.243 169.734 132.931L169.726 132.935C166.606 137.77 159.406 143.85 154.564 146.574C149.722 149.298 144.959 149.648 139.617 149.562C132.372 149.441 125.85 147.68 119.184 145.204C117.008 144.395 114.925 143.439 112.846 142.416L115.127 136.121C127.192 132.941 140.733 130.025 148.688 119.562C156.026 109.914 158.049 96.4971 151.763 85.7812C148.011 79.3812 143.891 77.0103 136.966 74.7041C134.376 73.8423 131.541 73.1585 128.812 73.0342L126.155 61.0195ZM120.421 81.1123C120.636 84.4158 120.568 87.7536 120.188 91.0459C119.252 99.1388 116.195 108.011 113.511 115.728C111.996 120.077 110.086 124.269 108.717 128.671C105.447 128.855 102.059 129.25 98.8413 128.494C98.6269 128.365 98.1465 124.344 98.0864 123.663C96.9586 110.776 99.6317 97.3513 108.741 87.7832C111.786 84.585 116.32 82.6093 120.417 81.1152L120.421 81.1123ZM129.045 80.999C129.192 80.2204 130.695 80.4463 131.331 80.5479C147.022 83.0199 152.346 102.348 142.673 114.054C140.436 116.763 136.854 119.558 133.749 121.218C128.812 123.856 123.188 124.905 117.958 126.644C117.801 126.478 118.948 122.7 119.125 122.169C122.94 110.675 128.031 98.9278 129.023 86.752C129.155 85.1343 128.801 82.2897 129.045 80.999ZM100.666 61.6562C104.072 61.1371 114.914 60.32 115.143 60.4443C115.247 60.5045 116.538 62.1264 116.609 62.2617C116.936 62.8862 117.289 64.2522 117.56 65.0195C117.925 66.0396 119.88 73.0717 119.59 73.5117V73.5156C118.846 73.7978 118.03 73.9103 117.29 74.1924C107.068 78.0943 101.665 83.2645 96.4624 92.7725C90.8911 102.961 89.1647 114.065 90.4956 125.616C89.6384 125.187 88.6389 124.935 87.7817 124.54C81.4174 121.621 77.6536 118.426 72.3003 114.137C67.665 110.419 63.7849 107.906 60.2808 102.838C59.0593 101.069 55.5743 93.1144 55.7661 92.6064C56.0188 91.9435 59.4508 87.7266 60.1763 86.8164C69.9922 74.5277 84.8532 64.0682 100.666 61.6562ZM73.4165 41.7705C80.0444 37.5864 89.6685 37.5267 96.9917 39.9609C100.469 41.1161 102.35 44.073 104.831 46.5674C105.334 47.0754 111.379 52.3279 110.579 53.0166C107.552 53.2797 104.477 53.2761 101.458 53.6299C85.5749 55.4849 69.7401 65.14 58.8042 76.6758C56.8679 78.7189 53.2659 83.7162 52.7886 83.5732C52.2396 79.777 51.7436 75.6749 52.0444 71.833C53.0184 59.3117 63.3489 48.1258 73.4165 41.7705Z" fill="#D6591F"/>
</g>
<defs>
<clipPath id="clip0_227_258">
<rect width="820" height="215" fill="white"/>
</clipPath>
</defs>
</svg>
