<svg width="112" height="35" viewBox="0 0 112 35" fill="none" xmlns="http://www.w3.org/2000/svg">
<path d="M52.9433 11.8735C53.27 11.8735 54.7332 9.97907 57.1632 9.97907C60.1158 9.97907 61.1871 11.8343 61.1871 14.7477C61.1871 16.6812 60.8736 18.9545 60.8736 19.9213C60.8736 20.5745 61.0696 21.2539 61.4876 21.6197C61.9449 22.0508 62.363 22.1423 62.363 22.7694C62.363 23.292 61.9841 23.6447 61.161 23.6447C60.4163 23.6447 59.6194 23.5663 58.927 23.5663C57.9732 23.5663 57.7119 23.6447 56.7321 23.6447C56.1311 23.6447 55.896 23.2658 55.896 22.8216C55.896 22.2076 56.0919 21.6981 56.2095 21.3715C56.4708 20.6268 56.706 18.2621 56.706 16.1979C56.706 13.9769 56.0658 12.997 54.903 12.997C54.3021 12.997 53.1916 13.5849 53.1916 15.2703C53.1916 17.1908 53.1524 18.9545 53.1524 19.9213C53.1524 20.5745 53.2046 21.2278 53.5835 21.6197C54.0146 22.0508 54.3543 22.1423 54.3543 22.7694C54.3543 23.292 53.9885 23.6447 53.1654 23.6447C52.4077 23.6447 51.8328 23.5663 51.1404 23.5663C50.1867 23.5663 49.9254 23.6447 48.9455 23.6447C48.3446 23.6447 48.1094 23.2658 48.1094 22.8216C48.1094 22.2076 48.3184 21.6981 48.423 21.3715C48.6843 20.6268 48.8933 18.2621 48.8933 16.1979C48.8933 13.9769 48.2531 12.997 47.0904 12.997C46.4502 12.997 45.3789 13.6633 45.3789 15.1788V19.5032C45.3789 20.6529 45.4442 21.084 45.81 21.5413C46.1758 21.9986 46.607 22.1031 46.607 22.7694C46.607 23.292 46.3196 23.6447 45.5226 23.6447C44.7387 23.6447 44.0071 23.5663 43.3016 23.5663C42.374 23.5663 41.4726 23.6447 40.4535 23.6447C39.8133 23.6447 39.5782 23.2658 39.5782 22.8216C39.5782 22.1815 40.0877 21.8287 40.3098 21.5544C40.9369 20.7444 41.0153 19.9735 41.0153 19.2942V14.5386C41.0153 13.6894 40.558 13.3367 40.2445 13.1669C40.0224 13.0231 39.6827 12.8402 39.6827 12.383C39.6827 11.6252 40.6756 11.5076 41.8253 10.9851C43.3147 10.3057 43.5498 10.0183 44.0202 10.0183C44.595 10.0183 44.9216 10.2404 45.1176 11.0242C45.2091 11.4423 45.3005 11.8343 45.4834 11.8343C45.797 11.8343 47.2079 9.97907 49.3636 9.97907C50.7354 9.97907 51.6891 10.4494 52.3554 11.2725C52.6559 11.6383 52.7735 11.8735 52.9433 11.8735Z" fill="#1E1E1E"/>
<path d="M74.2471 16.5898C72.7839 17.3475 70.0272 17.6742 68.7077 17.7787C68.4595 17.7917 68.355 17.844 68.355 18.0269C68.355 18.863 69.2172 20.261 71.3337 20.261C73.0582 20.261 74.0642 19.464 74.7305 18.85C74.9134 18.7063 75.1224 18.6018 75.2792 18.6018C75.5536 18.6018 75.7234 18.863 75.7234 19.4248C75.7234 21.2669 73.5808 23.8668 69.8705 23.8668C65.7159 23.8668 63.2467 21.1102 63.2467 17.2169C63.2467 13.3236 66.0294 9.97907 70.2624 9.97907C74.1034 9.97907 75.4883 12.8794 75.4883 14.6824C75.4883 15.6491 74.9787 16.2109 74.2471 16.5898ZM71.3468 13.9507C71.3468 12.997 70.7197 12.2654 69.8051 12.2654C68.5379 12.2654 67.7409 13.5719 67.7409 14.8914C67.7409 15.4532 67.9238 15.7798 68.3158 15.7798C68.9821 15.7798 70.5106 15.4009 71.0985 14.6824C71.2684 14.4733 71.3468 14.2512 71.3468 13.9507Z" fill="#1E1E1E"/>
<path d="M82.4991 5.27579C82.4991 6.94807 82.3815 6.93501 82.3815 10.7107V19.5032C82.3815 20.6529 82.5775 21.084 82.9694 21.5413C83.3483 21.9986 83.8056 22.1031 83.8056 22.7694C83.8056 23.292 83.5312 23.6447 82.6951 23.6447C81.9242 23.6447 80.9313 23.5663 80.2128 23.5663C79.259 23.5663 78.3968 23.6447 77.3516 23.6447C76.6984 23.6447 76.4501 23.2658 76.4501 22.8216C76.4501 22.1815 76.9727 21.8287 77.221 21.5544C77.8611 20.7444 77.9265 19.9735 77.9265 19.2942V8.81632C77.9265 8.11083 77.43 7.73195 77.1034 7.54905C76.816 7.36614 76.5547 7.18323 76.5547 6.7913C76.5547 6.09887 77.5084 5.95516 78.6842 5.47176C80.0037 4.94918 80.9313 4.36127 81.5715 4.36127C82.1071 4.36127 82.4991 4.63562 82.4991 5.27579Z" fill="#1E1E1E"/>
<path d="M96.6424 14.0683C95.9369 15.9758 95.0093 18.5103 94.4214 19.856C92.318 24.8989 90.7633 29.3148 87.3926 29.3148C85.8249 29.3148 84.636 28.2827 84.636 26.7149C84.636 25.3431 85.5244 24.311 86.6218 24.311C87.1575 24.311 87.5102 24.5723 87.7846 24.8728C88.1896 25.3039 88.4639 25.8004 88.9212 25.8004C89.3262 25.8004 89.9141 25.1602 89.9141 24.5331C89.9141 23.6447 88.3986 20.5876 87.6147 18.6801C87.0268 17.2692 85.3153 13.2191 84.5707 12.4483C84.1526 11.991 83.7868 11.6252 83.7868 11.0373C83.7868 10.5147 84.1134 10.162 84.7666 10.162C85.6028 10.162 86.2299 10.2404 87.0921 10.2404C87.9152 10.2404 88.8297 10.162 89.7181 10.162C90.3714 10.162 90.7372 10.3579 90.7372 11.168C90.7372 11.6775 90.0578 12.0433 90.0578 12.8141C90.0578 13.2844 90.3452 14.1336 91.0246 15.7275C91.6256 17.1516 92.0828 18.3405 92.2788 18.3405C92.5924 18.3405 93.1149 16.5375 93.6114 14.9306C93.925 14.003 93.9903 13.598 93.9903 13.3367C93.9903 12.1217 92.9712 11.7689 92.9712 11.0112C92.9712 10.4755 93.3501 10.162 93.8335 10.162C94.4867 10.162 95.3359 10.2404 95.9369 10.2404C96.6032 10.2404 97.0735 10.162 97.5308 10.162C98.2102 10.162 98.3931 10.5147 98.3931 10.9459C98.3931 11.978 97.4916 11.7689 96.6424 14.0683Z" fill="#1E1E1E"/>
<path d="M102.12 16.4069C103.688 15.8451 105.229 15.6883 105.634 15.3748C105.817 15.2311 105.987 14.9175 105.987 14.003C105.987 12.8141 105.451 11.9518 104.419 11.9518C103.531 11.9518 102.943 12.7227 102.551 14.0422C102.316 14.813 101.976 15.414 100.983 15.414C99.912 15.414 99.0106 14.6824 99.0106 13.2975C99.0106 11.6644 100.944 9.95294 104.432 9.95294C107.581 9.95294 110.481 11.2725 110.481 15.1657C110.481 16.7988 110.351 18.04 110.351 19.4902C110.351 19.9605 110.494 20.5353 111.095 20.5353C111.317 20.5353 111.461 20.4569 111.657 20.4569C111.827 20.4569 111.945 20.7182 111.945 21.0187C111.945 22.6387 110.56 23.8146 108.848 23.8146C107.516 23.8146 106.784 23.3573 106.34 22.5865C106.275 22.482 106.196 22.3513 106.092 22.3513C105.974 22.3513 105.87 22.4689 105.765 22.5734C104.981 23.305 103.635 23.8799 102.355 23.8799C100.16 23.8799 98.4619 22.7694 98.4619 20.5745C98.4619 18.5103 99.8598 17.243 102.12 16.4069ZM106.026 18.6801C106.026 17.7526 105.935 17.5827 105.804 17.5827C105.36 17.5827 104.89 17.6872 104.419 17.8963C103.57 18.249 102.93 18.9284 102.93 19.7514C102.93 20.4177 103.361 20.9665 104.158 20.9665C105.451 20.9665 106.026 19.8821 106.026 18.6801Z" fill="#1E1E1E"/>
<path d="M20.1978 0C20.3188 0.0643314 20.4637 0.0234143 20.605 0.0488281C21.1434 0.146181 22.1103 0.517109 22.6363 0.723633C24.678 1.52555 26.4663 2.51861 28.3052 3.71191C29.2232 4.30731 30.289 4.92118 30.9 5.85156C30.9861 5.98304 31.0772 6.19962 31.1646 6.33105C31.8934 7.4245 32.7524 8.42663 33.483 9.52441C33.7751 11.5338 33.973 13.5661 34.1715 15.5947C34.2546 16.4486 34.3034 17.3283 34.3716 18.2002C34.4101 18.6889 34.3911 19.1967 34.4742 19.6699V19.873C34.3112 20.1149 34.2604 20.4157 34.1519 20.6836C33.3376 22.7023 32.3922 24.7151 31.4507 26.7041C31.2746 27.0769 31.105 27.694 30.8433 28.0078C30.7732 28.0921 30.5813 28.2006 30.4976 28.2881C29.1754 29.6668 27.5411 30.7081 26.0513 31.8896C25.9958 31.944 25.9379 31.9961 25.8814 32.0498C25.6677 31.9442 25.4533 31.8305 25.2369 31.707C24.0143 31.0097 22.5905 30.2616 21.4498 29.417C20.3345 28.5906 20.1346 28.0616 19.3707 26.9775C19.0115 26.4677 18.5014 25.5167 18.5396 25.5215C18.937 25.6379 19.3971 25.8233 19.7945 25.918C21.1546 26.2417 23.7395 26.2901 24.9996 25.7256C29.5456 23.6882 31.8967 16.8472 29.1148 12.5254C28.8567 12.124 28.305 11.6432 27.9459 11.2988C26.9784 10.3713 25.5437 9.72297 24.2261 9.25488C22.9086 8.78692 21.5232 8.66084 20.1451 8.54688C20.021 8.5366 19.8085 8.58076 19.6607 8.54395C19.608 8.53059 19.1934 7.73408 19.108 7.61035C18.7069 7.02896 17.2998 5.8504 16.6715 5.51367C15.7403 5.01469 13.7927 4.79303 12.7525 4.97559C11.0175 5.27999 8.6063 7.58181 7.74176 9.08301C6.70586 10.8825 6.7864 13.1645 7.37458 15.0986C6.51489 16.4568 5.93047 17.9376 5.86383 19.5645C5.77781 21.6812 6.13934 24.799 7.90583 26.1904C9.00941 27.0602 9.78605 27.18 11.1666 27.2461C13.1997 27.3437 14.0667 26.8502 15.6509 25.7539C15.7338 25.6965 16.2717 25.2646 16.3316 25.2998C16.4564 25.5614 16.6768 25.7712 16.8433 25.9941C17.7895 27.2637 18.6234 28.8839 19.6519 30.0244C20.4794 30.9423 21.5795 31.48 22.5972 32.1172C23.1935 32.4904 23.7766 32.9218 24.3765 33.3291L25.7906 32.1357C24.9138 32.9558 23.9273 33.7034 22.9117 34.4072C19.5339 34.7136 16.1243 34.5264 12.7447 34.2969C12.0867 33.9272 11.4405 33.5454 10.7886 33.1758C9.15751 32.2497 7.48745 31.3244 5.91461 30.2793C5.34346 29.8997 4.51305 29.3011 4.03864 28.8174C3.57471 28.3454 2.90303 26.9311 2.56501 26.2842C2.2103 25.6052 1.86158 24.9048 1.51618 24.2227C1.00643 23.2137 0.543165 22.1818 0.000551976 21.1914C0.000551976 21.158 -0.00068997 21.1234 0.000551976 21.0898C0.0762188 18.5893 0.234389 16.0601 0.406802 13.5391C0.446487 12.9581 0.429283 11.9102 0.558169 11.3896C0.61833 11.1459 1.6345 9.60136 1.84723 9.2627C2.65462 7.97908 3.52705 6.6825 4.53473 5.53711C4.96387 5.04901 5.39727 4.5698 5.82086 4.07422C6.83305 2.89158 7.02865 2.88676 8.49665 2.51465C9.92233 2.15373 11.368 1.73461 12.7584 1.36621C15.029 0.765202 17.2475 0.486116 19.564 0.126953C19.7202 0.102716 19.8936 0.0174045 20.0621 0H20.1978ZM25.8892 32.0537L25.7906 32.1357C25.8211 32.1072 25.8512 32.0785 25.8814 32.0498C25.8839 32.0511 25.8867 32.0525 25.8892 32.0537ZM8.03473 16.7178C8.25589 17.278 8.64855 17.8189 9.05133 18.2627C9.56629 18.83 10.1986 19.2527 10.8013 19.7158C11.2041 20.0244 11.5926 20.3951 12.0191 20.6455C12.8411 21.1274 13.8437 21.5229 14.7408 21.8369C14.9038 22.5038 15.2501 23.1034 15.4615 23.7461C15.2077 23.9892 14.8846 24.1298 14.606 24.3135C13.5155 25.0308 12.8956 25.516 11.4634 25.3984C9.99737 25.2784 8.84949 24.9244 8.13825 23.5371C7.45611 22.2056 7.16169 19.6571 7.45856 18.1855C7.55985 17.683 8.01827 16.7512 8.03473 16.7178ZM21.1402 9.83203C22.522 9.92417 25.3768 10.9162 26.4547 11.7832C26.7829 12.0475 27.7498 12.9757 27.939 13.3057C28.657 14.5577 28.9251 16.7305 28.6373 18.1299C28.453 19.0242 27.8391 20.6655 27.3521 21.4209L27.3511 21.4219C26.8483 22.201 25.6881 23.1812 24.9078 23.6201C24.1277 24.0589 23.3602 24.1155 22.4996 24.1016C21.3322 24.0821 20.2807 23.7983 19.2066 23.3994C18.8559 23.269 18.5201 23.1151 18.1851 22.9502L18.5523 21.9355C20.4964 21.4231 22.6786 20.9528 23.9605 19.2666C25.1431 17.712 25.4695 15.5501 24.4566 13.8232C23.852 12.7919 23.1878 12.4097 22.0718 12.0381C21.6546 11.8993 21.198 11.7896 20.7584 11.7695L20.3297 9.83301C20.5956 9.84696 20.8761 9.81448 21.1402 9.83203ZM19.4058 13.0713C19.4403 13.6035 19.4299 14.1414 19.3687 14.6719C19.2178 15.976 18.7251 17.4059 18.2925 18.6494C18.0484 19.3503 17.7406 20.026 17.5201 20.7354C16.9931 20.7651 16.4469 20.8279 15.9283 20.7061C15.8937 20.6833 15.8159 20.0373 15.8062 19.9277C15.6245 17.8511 16.0561 15.6873 17.524 14.1455C18.0146 13.6304 18.7448 13.312 19.4048 13.0713H19.4058ZM20.7955 13.0527C20.8191 12.9273 21.0611 12.9631 21.1636 12.9795C23.6922 13.3778 24.5502 16.4926 22.9918 18.3789C22.6313 18.8155 22.0537 19.2668 21.5533 19.5342C20.758 19.9591 19.8519 20.1282 19.0093 20.4082C18.9839 20.3816 19.168 19.774 19.1968 19.6875C19.8117 17.8352 20.6317 15.9416 20.7916 13.9795C20.8127 13.7188 20.7561 13.2607 20.7955 13.0527ZM18.5552 9.74023C18.5716 9.74932 18.7801 10.0114 18.7916 10.0332C18.8442 10.1338 18.9013 10.3539 18.9449 10.4775C19.0036 10.6416 19.3175 11.7715 19.272 11.8457V11.8467C19.152 11.8922 19.0203 11.9106 18.9009 11.9561C17.2538 12.5848 16.3829 13.4181 15.5445 14.9502C14.6469 16.5919 14.3692 18.381 14.5836 20.2422C14.4455 20.1731 14.2842 20.133 14.1461 20.0693C13.1205 19.5989 12.5136 19.0838 11.6509 18.3926C10.9042 17.7937 10.279 17.3887 9.71442 16.5723C9.51758 16.2873 8.95596 15.0047 8.98688 14.9229C9.0286 14.815 9.58103 14.1368 9.69782 13.9902C11.2796 12.01 13.6742 10.3242 16.2222 9.93555C16.7711 9.85189 18.5181 9.72023 18.5552 9.74023ZM11.8316 6.73145C12.8997 6.05728 14.4504 6.04719 15.6304 6.43945C16.1906 6.6256 16.4935 7.10204 16.8931 7.50391C16.9743 7.58577 17.9489 8.43297 17.8199 8.54395C17.3322 8.58634 16.8366 8.58557 16.3502 8.64258C13.7906 8.94151 11.2384 10.4975 9.47614 12.3564C9.16458 12.6853 8.58587 13.4879 8.50739 13.4678C8.41894 12.8562 8.33887 12.1951 8.38727 11.5762C8.54418 9.55834 10.2092 7.75558 11.8316 6.73145Z" fill="#D6591F"/>
</svg>
