<svg width="382" height="106" viewBox="0 0 382 106" fill="none" xmlns="http://www.w3.org/2000/svg">
<path d="M55.6211 0.00195312C58.8241 0.116764 98.0013 10.9377 100.32 13.3672C102.64 15.7983 112.824 48.2758 112.619 54.3145C112.414 60.3527 98.3064 91.4285 95.3848 94.9229C92.4632 98.4169 63.0443 104.989 58.2432 105.053C55.7393 105.086 44.4123 102.361 33.623 99.3135C35.9144 95.5459 37.9487 90.5005 39.5928 83.666C42.5928 84.5799 47.2428 85.6716 52.2148 86.3105C64.8962 87.9402 76.6639 86.3875 84.5332 79.7607C92.4311 73.1094 96.2585 61.4752 93.3389 43.293C92.2371 36.4321 89.7632 32.1774 87.5029 29.292C80.5697 20.4414 69.4049 18.266 59.8174 20.2129C54.0185 21.3908 48.5751 24.0809 44.3027 28.0273C36.0335 24.9251 27.183 25.2987 20.3496 32.2549C18.0371 34.609 13.5535 39.8885 15.8232 48.4062C17.0305 52.9357 19.7706 56.8231 20.5596 57.9404C22.5514 60.7612 24.9645 63.5917 27.2607 66.2471C29.5654 68.9123 31.7441 71.3914 33.3037 73.54C34.0957 74.6313 34.6374 75.4585 34.9873 76.0576C35.3499 76.6785 35.475 77.0027 35.4941 77.1123C35.4941 77.1122 35.4963 77.1261 35.498 77.1602C35.4998 77.1945 35.5007 77.24 35.501 77.2969C35.5015 77.4109 35.4983 77.5602 35.4912 77.7393C35.4771 78.0972 35.4478 78.5624 35.4072 79.083C35.3261 80.1247 35.1988 81.376 35.0498 82.4229C34.2041 88.3659 31.01 94.5468 28.8916 97.9443C20.8701 95.566 13.9886 93.2103 12.5137 91.9824C8.8391 88.9227 1.15073 67.6992 0.435547 64.96C-0.279386 62.2214 -0.140085 37.2903 1.0498 33.8428C2.24087 30.394 17.7154 10.9312 21.9307 8.04883C26.1469 5.1664 52.4172 -0.112607 55.6211 0.00195312ZM32.8711 91.418C32.8467 91.4743 32.8233 91.5309 32.7988 91.5869C32.8233 91.5309 32.8467 91.4743 32.8711 91.418ZM33.1895 90.667C33.1659 90.724 33.1428 90.7811 33.1191 90.8379C33.1428 90.7811 33.1659 90.724 33.1895 90.667ZM33.4873 89.9268C33.4706 89.9694 33.4543 90.0122 33.4375 90.0547C33.4543 90.0122 33.4706 89.9694 33.4873 89.9268ZM35.1729 84.5234L35.1436 84.6455C35.167 84.5424 35.1897 84.4392 35.2119 84.3359C35.1985 84.3983 35.1867 84.4611 35.1729 84.5234ZM35.3311 83.7529C35.3142 83.8406 35.2961 83.928 35.2783 84.0156C35.2961 83.928 35.3141 83.8405 35.3311 83.7529ZM49.0342 30.2012C54.8113 25.796 62.4654 23.7191 69.3887 24.4512C73.6468 24.9016 78.258 26.4637 82.0283 29.8291C83.8647 31.4681 87.8536 35.5429 89.1182 43.9932C90.2363 51.4645 90.7127 61.2409 86.9043 68.7578C82.6128 77.2274 74.1363 80.1671 65.5527 80.6709C56.9729 81.1744 48.4108 79.2312 44.1689 78.0625C42.5436 77.6147 41.1927 77.1775 40.3594 76.8955C39.907 74.3814 38.5147 71.7843 36.7158 69.1582C34.8412 66.4216 32.4822 63.5892 30.2012 60.7354C26.2596 55.804 25.1512 54.0008 24.0723 52.2412C21.0234 47.2688 20.2959 43.6545 21.8057 40.5293C22.8073 38.4563 24.7749 36.6952 25.5225 36.0732C29.6762 32.6187 34.7345 32.0968 39.8105 33.3193C35.5169 39.8792 33.9207 48.4711 36.9141 58.4326C39.8719 68.2748 49.7234 72.3086 59.3643 71.6084C71.3362 70.7388 82.7503 62.666 82.1465 49.1162C81.9096 43.8 80.0938 40.9863 79.8203 40.541C77.7153 37.1145 74.4907 35.5885 70.8633 35.4512C67.3658 35.319 63.4952 36.4753 59.8369 38.4209C58.8219 37.3839 57.7573 36.3938 56.6709 35.4717C54.3008 33.46 51.7235 31.6655 49.0342 30.2012ZM35.9062 79.1221L35.8359 79.9424C35.8859 79.3972 35.9258 78.8774 35.9541 78.4297C35.9405 78.6455 35.9252 78.8781 35.9062 79.1221ZM46.668 79.2178C46.5678 79.194 46.469 79.1692 46.3711 79.1455C46.469 79.1692 46.5678 79.194 46.668 79.2178ZM44.8652 78.7666C44.5733 78.69 44.2964 78.6166 44.0361 78.5449C43.5779 78.4187 43.141 78.2931 42.7314 78.1719V78.1709C43.1411 78.2922 43.5778 78.4177 44.0361 78.5439C44.2965 78.6157 44.5733 78.6898 44.8652 78.7666ZM35.9336 76.835C35.9604 76.911 35.9773 76.9751 35.9863 77.0273C35.9954 77.0795 36.0004 77.1709 36.001 77.2949L36 77.2959C35.9997 77.2337 35.9984 77.1797 35.9961 77.1348C35.9937 77.0898 35.9909 77.0535 35.9863 77.0273C35.9682 76.923 35.9163 76.7722 35.8242 76.5703V76.5693C35.8704 76.6705 35.9069 76.7588 35.9336 76.835ZM37.8916 71.959C37.986 72.125 38.0777 72.2908 38.167 72.4561H38.166C38.0768 72.2908 37.9851 72.1251 37.8906 71.959H37.8916ZM44.3535 34.8594C48.1881 36.5199 51.8318 38.9862 54.8398 41.6826C52.6072 43.4448 50.5805 45.5196 49.2051 47.7148C47.7348 50.0617 46.976 52.604 47.5947 55.0605L47.7119 55.4717C48.35 57.4756 49.7656 58.7135 51.2139 59.4785C52.7495 60.2897 54.353 60.5879 55.1904 60.7246C59.6547 61.4532 61.9707 60.783 62.5986 60.6025C65.5485 59.7545 66.9537 57.7544 67.5117 55.9795C68.1726 53.8767 67.9343 51.5515 67.1113 49.207C66.3475 47.0312 65.0705 44.8085 63.4893 42.6758C65.825 41.6295 68.2982 40.9481 70.4854 40.9746C72.8288 41.0031 74.7994 41.837 75.9922 43.8691C76.0075 43.8952 77.2047 45.6872 77.377 49.4043C77.6063 54.3563 75.5375 58.2173 72.335 60.9932C69.1204 63.7792 64.7595 65.4721 60.4521 66.0303C52.7734 67.0254 44.6615 64.5344 41.7773 58.1455C41.0644 56.5659 40.4474 53.95 40.1709 52.0986C39.135 45.1614 40.9421 39.3479 44.3535 34.8594ZM41.6963 65.4893C41.6433 65.4371 41.5894 65.3859 41.5371 65.333L41.248 65.0332C41.3943 65.1887 41.5446 65.3399 41.6963 65.4893ZM92.9121 64.0186C92.8375 64.3727 92.7582 64.7219 92.6748 65.0664C92.7125 64.9105 92.7492 64.7536 92.7852 64.5957L92.9121 64.0186ZM63.1299 59.8965C63.0975 59.9089 63.065 59.9215 63.0322 59.9336C63.0651 59.9215 63.0975 59.9089 63.1299 59.8965ZM93.666 58.6387C93.6616 58.6964 93.657 58.754 93.6523 58.8115C93.657 58.754 93.6616 58.6964 93.666 58.6387ZM41.3213 58.3506V58.3516C41.275 58.2491 41.2289 58.1423 41.1836 58.0322V58.0312C41.2289 58.1414 41.275 58.248 41.3213 58.3506ZM58.5811 45.5264C60.2203 47.4807 61.3406 49.279 62.0029 50.7549C62.3538 51.5368 62.5715 52.2186 62.6738 52.7773C62.7777 53.3448 62.7549 53.7439 62.6709 53.9883C62.5746 54.2678 62.2213 54.6387 61.3594 54.9082C60.5147 55.1722 59.271 55.3064 57.5889 55.1875C53.9012 54.9267 52.8768 54.0491 52.7041 53.9131C52.4573 53.7187 52.3638 53.5804 52.3242 53.4512C52.2821 53.3134 52.276 53.1011 52.3789 52.708L52.4316 52.5234C52.7247 51.5851 53.432 50.4274 54.5059 49.1895C55.5641 47.9696 56.9542 46.7028 58.5811 45.5264ZM39.584 51.4971C39.612 51.7208 39.643 51.9458 39.6768 52.1719C39.7117 52.4056 39.7516 52.6521 39.7969 52.9072L39.9473 53.6963C39.8379 53.1576 39.7456 52.6404 39.6758 52.1729L39.584 51.4971ZM93.7246 51.3701L93.7607 52.1182C93.7464 51.7821 93.7281 51.4433 93.708 51.1016C93.7132 51.1913 93.7198 51.2808 93.7246 51.3701ZM93.6797 50.6133C93.6855 50.7017 93.69 50.7899 93.6953 50.8779C93.6742 50.5374 93.6507 50.1939 93.624 49.8477L93.625 49.8467C93.6448 50.1038 93.663 50.3593 93.6797 50.6133ZM56.0938 46.8809C56.1299 46.8485 56.1666 46.8165 56.2031 46.7842C56.1666 46.8165 56.1299 46.8485 56.0938 46.8809ZM65.0283 45.917C65.1944 46.2059 65.3529 46.4952 65.5039 46.7842C65.3531 46.4954 65.1942 46.2067 65.0283 45.918V45.917ZM39.5146 45.7129C39.4944 45.9051 39.4769 46.0985 39.4609 46.293C39.476 46.1084 39.4914 45.9247 39.5107 45.7422L39.5146 45.7129ZM93.0391 44.6328C92.9781 44.2165 92.9128 43.7967 92.8447 43.373L92.8457 43.3721C92.9138 43.7959 92.9784 44.2162 93.0391 44.6328ZM57.3037 45.8633C57.3275 45.8445 57.3511 45.8254 57.375 45.8066C57.3511 45.8254 57.3275 45.8445 57.3037 45.8633ZM57.9707 45.3516C57.9789 45.3455 57.9869 45.3391 57.9951 45.333L58.043 45.2979C58.0188 45.3157 57.9948 45.3337 57.9707 45.3516ZM20.5645 43.2676C20.6047 42.6952 20.7028 42.1388 20.8604 41.5957L20.9629 41.2705C20.8902 41.4862 20.8271 41.7039 20.7734 41.9238C20.7196 42.1442 20.6755 42.3668 20.6406 42.5918C20.6061 42.8147 20.5805 43.0398 20.5645 43.2676ZM40.3984 41.4307C40.4057 41.4072 40.4126 41.3837 40.4199 41.3604C40.4126 41.3837 40.4057 41.4072 40.3984 41.4307ZM40.5928 40.8311C40.6134 40.7706 40.6351 40.7106 40.6562 40.6504C40.6351 40.7105 40.6135 40.7706 40.5928 40.8311ZM40.7549 40.3799C40.8224 40.1955 40.8926 40.0127 40.9648 39.8311C40.8926 40.0127 40.8225 40.1955 40.7549 40.3799ZM21.5645 39.9053C21.4911 40.0391 21.4216 40.1747 21.3555 40.3115H21.3545C21.4207 40.1746 21.491 40.0392 21.5645 39.9053ZM41.0293 39.6689C41.0495 39.6193 41.0683 39.569 41.0889 39.5195L41.3135 39C41.2149 39.2207 41.1209 39.4439 41.0293 39.6689ZM21.9736 39.2266C21.9371 39.2825 21.9008 39.3388 21.8652 39.3955C21.8908 39.3547 21.9163 39.3138 21.9424 39.2734L21.9736 39.2266ZM22.3604 38.6699L22.1631 38.9443C22.2877 38.7651 22.4169 38.5907 22.5479 38.4209C22.4847 38.5028 22.4222 38.5858 22.3604 38.6699ZM22.5859 38.3721C22.6604 38.2764 22.735 38.1821 22.8105 38.0898C22.7351 38.1821 22.6603 38.2764 22.5859 38.3721ZM42.6836 36.4111C42.7082 36.3713 42.733 36.3316 42.7578 36.292C42.733 36.3316 42.7082 36.3713 42.6836 36.4111ZM56.3477 35.8535C56.5438 36.02 56.737 36.1915 56.9316 36.3623C56.7369 36.1913 56.543 36.0202 56.3467 35.8535C56.2135 35.7405 56.0797 35.6282 55.9453 35.5166C56.0799 35.6284 56.2143 35.7404 56.3477 35.8535ZM25.627 35.3486V35.3477V35.3486ZM36.6006 32.2871C37.0936 32.3282 37.588 32.3875 38.083 32.4648C37.588 32.3876 37.0935 32.3283 36.6006 32.2871ZM35.1904 32.2217C35.6354 32.2256 36.0822 32.2455 36.5303 32.2812C36.0822 32.2454 35.6354 32.2257 35.1904 32.2217ZM43.6445 28.3164C43.9028 28.4085 44.1607 28.5043 44.418 28.6035V28.6045C44.1607 28.5052 43.9029 28.4088 43.6445 28.3164ZM45.6396 27.5146V27.5137V27.5146ZM77.5898 22.2832C77.7332 22.3449 77.8761 22.4082 78.0186 22.4727H78.0176C77.8751 22.4082 77.7323 22.3449 77.5889 22.2832H77.5898ZM56.8115 21.4912C56.9474 21.4497 57.0833 21.408 57.2197 21.3682L57.7539 21.2178C57.4382 21.3042 57.1242 21.3956 56.8115 21.4912ZM62.1582 20.3281C61.4035 20.4273 60.6552 20.553 59.916 20.7031C59.7343 20.74 59.553 20.7785 59.3721 20.8184L58.8301 20.9424C59.1907 20.8565 59.5532 20.776 59.917 20.7021C60.4712 20.5896 61.0305 20.4912 61.5938 20.4072L62.1582 20.3281ZM45.7441 78.9922C45.4538 78.9196 45.1752 78.848 44.9092 78.7783C45.1752 78.8482 45.4538 78.9193 45.7441 78.9922ZM20.5469 43.6201C20.5501 43.5088 20.556 43.3982 20.5635 43.2881L20.5469 43.6201ZM20.5645 43.2734L20.5635 43.2881C20.5639 43.2813 20.564 43.2744 20.5645 43.2676C20.5643 43.2695 20.5646 43.2715 20.5645 43.2734ZM21.5645 39.9053C21.6304 39.785 21.6995 39.6663 21.7705 39.5488C21.6996 39.6663 21.6304 39.785 21.5645 39.9053Z" fill="#D6591F"/>
<path d="M181.463 34.2665C182.573 34.2665 187.545 27.8293 195.802 27.8293C205.836 27.8293 209.476 34.1333 209.476 44.0333C209.476 50.6037 208.41 58.3283 208.41 61.6135C208.41 63.8332 209.076 66.1418 210.497 67.3848C212.051 68.8498 213.471 69.1606 213.471 71.2915C213.471 73.0673 212.184 74.266 209.387 74.266C206.857 74.266 204.149 73.9996 201.796 73.9996C198.555 73.9996 197.667 74.266 194.337 74.266C192.295 74.266 191.496 72.9785 191.496 71.4691C191.496 69.3825 192.162 67.6512 192.562 66.5413C193.449 64.0108 194.249 55.9754 194.249 48.9611C194.249 41.414 192.073 38.0844 188.122 38.0844C186.08 38.0844 182.306 40.0822 182.306 45.8091C182.306 52.3351 182.173 58.3283 182.173 61.6135C182.173 63.8332 182.351 66.053 183.638 67.3848C185.103 68.8498 186.258 69.1606 186.258 71.2915C186.258 73.0673 185.015 74.266 182.218 74.266C179.643 74.266 177.689 73.9996 175.337 73.9996C172.096 73.9996 171.208 74.266 167.878 74.266C165.836 74.266 165.037 72.9785 165.037 71.4691C165.037 69.3825 165.747 67.6512 166.102 66.5413C166.99 64.0108 167.701 55.9754 167.701 48.9611C167.701 41.414 165.525 38.0844 161.574 38.0844C159.399 38.0844 155.759 40.3485 155.759 45.4983V60.1929C155.759 64.0996 155.981 65.5646 157.224 67.1184C158.467 68.6722 159.932 69.0274 159.932 71.2915C159.932 73.0673 158.955 74.266 156.247 74.266C153.583 74.266 151.097 73.9996 148.7 73.9996C145.548 73.9996 142.485 74.266 139.022 74.266C136.846 74.266 136.047 72.9785 136.047 71.4691C136.047 69.2938 137.779 68.0951 138.533 67.1628C140.664 64.4104 140.931 61.7911 140.931 59.4826V43.323C140.931 40.4373 139.377 39.2387 138.311 38.6615C137.557 38.1732 136.403 37.5517 136.403 35.9979C136.403 33.423 139.777 33.0234 143.683 31.2476C148.744 28.9391 149.543 27.9625 151.142 27.9625C153.095 27.9625 154.205 28.7172 154.871 31.3808C155.181 32.8015 155.492 34.1333 156.114 34.1333C157.179 34.1333 161.974 27.8293 169.299 27.8293C173.96 27.8293 177.201 29.4275 179.465 32.2243C180.486 33.4674 180.886 34.2665 181.463 34.2665Z" fill="#1E1E1E"/>
<path d="M253.854 50.2929C248.882 52.8678 239.515 53.9776 235.031 54.3328C234.188 54.3772 233.833 54.5548 233.833 55.1763C233.833 58.0176 236.763 62.7678 243.955 62.7678C249.815 62.7678 253.233 60.0597 255.497 57.9732C256.119 57.4848 256.829 57.1297 257.362 57.1297C258.294 57.1297 258.871 58.0176 258.871 59.9265C258.871 66.1861 251.59 75.0207 238.982 75.0207C224.865 75.0207 216.474 65.6534 216.474 52.4238C216.474 39.1943 225.93 27.8293 240.314 27.8293C253.366 27.8293 258.072 37.6849 258.072 43.8113C258.072 47.0965 256.341 49.0055 253.854 50.2929ZM243.999 41.3252C243.999 38.0844 241.868 35.5983 238.76 35.5983C234.454 35.5983 231.746 40.0378 231.746 44.5216C231.746 46.4306 232.368 47.5404 233.699 47.5404C235.964 47.5404 241.158 46.253 243.155 43.8113C243.733 43.101 243.999 42.3463 243.999 41.3252Z" fill="#1E1E1E"/>
<path d="M281.895 11.8472C281.895 17.5297 281.496 17.4853 281.496 30.3154V60.1929C281.496 64.0996 282.162 65.5646 283.493 67.1184C284.781 68.6722 286.335 69.0274 286.335 71.2915C286.335 73.0673 285.402 74.266 282.561 74.266C279.942 74.266 276.568 73.9996 274.126 73.9996C270.885 73.9996 267.955 74.266 264.404 74.266C262.184 74.266 261.341 72.9785 261.341 71.4691C261.341 69.2938 263.116 68.0951 263.96 67.1628C266.135 64.4104 266.357 61.7911 266.357 59.4826V23.8782C266.357 21.4809 264.67 20.1934 263.56 19.5719C262.584 18.9504 261.696 18.3288 261.696 16.997C261.696 14.6441 264.936 14.1558 268.932 12.5132C273.416 10.7374 276.568 8.73962 278.743 8.73962C280.563 8.73962 281.895 9.6719 281.895 11.8472Z" fill="#1E1E1E"/>
<path d="M329.955 41.7248C327.558 48.2064 324.406 56.8189 322.408 61.3915C315.26 78.5278 309.977 93.5332 298.524 93.5332C293.196 93.5332 289.156 90.026 289.156 84.6987C289.156 80.0372 292.175 76.5301 295.904 76.5301C297.725 76.5301 298.923 77.418 299.856 78.439C301.232 79.9041 302.164 81.591 303.718 81.591C305.094 81.591 307.092 79.4157 307.092 77.2848C307.092 74.266 301.942 63.8776 299.278 57.396C297.281 52.6014 291.465 38.8391 288.934 36.2198C287.514 34.666 286.271 33.423 286.271 31.4252C286.271 29.6494 287.381 28.4508 289.6 28.4508C292.442 28.4508 294.573 28.7172 297.503 28.7172C300.299 28.7172 303.407 28.4508 306.426 28.4508C308.646 28.4508 309.889 29.1167 309.889 31.8692C309.889 33.6006 307.58 34.8436 307.58 37.4629C307.58 39.0611 308.557 41.9467 310.865 47.3629C312.908 52.2019 314.461 56.2418 315.127 56.2418C316.193 56.2418 317.969 50.1153 319.656 44.6548C320.721 41.5028 320.943 40.1266 320.943 39.2387C320.943 35.11 317.48 33.9113 317.48 31.3364C317.48 29.5163 318.768 28.4508 320.41 28.4508C322.63 28.4508 325.516 28.7172 327.558 28.7172C329.822 28.7172 331.42 28.4508 332.974 28.4508C335.282 28.4508 335.904 29.6494 335.904 31.1145C335.904 34.6216 332.841 33.9113 329.955 41.7248Z" fill="#1E1E1E"/>
<path d="M348.568 49.6714C353.895 47.7624 359.134 47.2297 360.51 46.1642C361.132 45.6759 361.709 44.6104 361.709 41.5028C361.709 37.4629 359.889 34.5328 356.382 34.5328C353.363 34.5328 351.365 37.1521 350.033 41.636C349.234 44.2552 348.08 46.2974 344.706 46.2974C341.065 46.2974 338.002 43.8113 338.002 39.1055C338.002 33.5562 344.573 27.7405 356.426 27.7405C367.125 27.7405 376.981 32.2243 376.981 45.4539C376.981 51.0032 376.537 55.2207 376.537 60.1485C376.537 61.7467 377.025 63.7001 379.067 63.7001C379.822 63.7001 380.31 63.4337 380.976 63.4337C381.553 63.4337 381.953 64.3216 381.953 65.3427C381.953 70.8476 377.247 74.8431 371.431 74.8431C366.903 74.8431 364.417 73.2893 362.908 70.67C362.686 70.3148 362.419 69.8709 362.064 69.8709C361.665 69.8709 361.309 70.2704 360.954 70.6256C358.291 73.1117 353.718 75.0651 349.367 75.0651C341.909 75.0651 336.138 71.2915 336.138 63.8332C336.138 56.8189 340.888 52.5126 348.568 49.6714ZM361.842 57.396C361.842 54.244 361.531 53.6669 361.087 53.6669C359.578 53.6669 357.98 54.022 356.382 54.7324C353.496 55.931 351.321 58.2395 351.321 61.0364C351.321 63.3005 352.786 65.1651 355.494 65.1651C359.889 65.1651 361.842 61.4803 361.842 57.396Z" fill="#1E1E1E"/>
</svg>
