<svg width="380" height="119" viewBox="0 0 380 119" fill="none" xmlns="http://www.w3.org/2000/svg">
<path d="M1.04952 33.8432C-0.14037 37.2908 -0.279581 62.2213 0.435352 64.9599C1.15029 67.6985 8.83889 88.9225 12.5135 91.9823C16.1882 95.0421 53.4422 105.116 58.2433 105.053C63.0444 104.989 92.4635 98.4173 95.3851 94.9233C98.3066 91.4292 112.414 60.353 112.619 54.3147C112.825 48.2764 102.639 15.7966 100.32 13.3672C98.0009 10.9377 58.8243 0.116647 55.6213 0.00183561C52.4183 -0.112975 26.1459 5.16669 21.9304 8.04914C17.715 10.9316 2.23941 30.3957 1.04952 33.8432Z" fill="#D6591F"/>
<path d="M58.3997 18.5889C68.5103 16.5356 80.2467 18.8367 87.5266 28.1299C89.9015 31.1618 92.5066 35.6371 93.6682 42.8711C96.7608 62.1303 92.6956 74.3674 84.4124 81.3428C76.1436 88.3059 63.7435 89.9622 50.3059 88.2354C44.8801 87.5381 39.8174 86.3305 36.6614 85.3477C34.4915 94.4894 31.6747 100.616 28.4993 104.814C25.2902 109.055 21.7247 111.314 18.1223 112.726C15.5787 113.722 13.1579 114.265 11.0295 114.907C8.88788 115.553 7.02101 116.305 5.49048 117.719C5.39705 117.805 5.29771 117.902 5.1731 117.945C5.04783 117.989 4.91705 117.972 4.802 117.959H4.80005C4.79717 117.959 4.79412 117.959 4.79126 117.959V117.957C4.76286 117.954 4.7419 117.948 4.73853 117.947C4.72993 117.944 4.72345 117.941 4.71997 117.939C4.71315 117.937 4.70752 117.934 4.70532 117.933C4.70057 117.93 4.69602 117.929 4.69458 117.928C4.69112 117.926 4.68797 117.923 4.68579 117.922C4.68094 117.919 4.6747 117.915 4.66821 117.911C4.65481 117.903 4.63592 117.892 4.6145 117.879C4.57124 117.852 4.51403 117.817 4.45728 117.781C4.40056 117.746 4.34443 117.71 4.302 117.684C4.28088 117.67 4.26262 117.66 4.25024 117.652C4.24405 117.649 4.23892 117.645 4.2356 117.643C4.23409 117.642 4.23249 117.641 4.23169 117.641L4.23071 117.64L4.14575 117.587L4.12036 117.489C4.0984 117.403 4.06997 117.342 4.02856 117.219C3.993 117.113 3.95514 116.977 3.96704 116.824C3.98228 116.627 4.00264 116.477 4.08032 116.343C4.1182 116.277 4.16441 116.224 4.20923 116.177C4.24522 116.139 4.31335 116.071 4.36353 116.02C5.67864 114.659 7.25035 113.763 8.96021 113.031C10.6596 112.304 12.5339 111.726 14.4182 111.027C18.2037 109.624 22.1804 107.69 25.5901 102.91C27.5785 100.123 30.2053 96.1316 32.2922 84.5616C32.281 84.5548 32.2683 84.5478 32.2551 84.5401C32.2258 84.5228 32.1924 84.5025 32.1584 84.4815C32.0917 84.4402 32.012 84.3874 31.9436 84.3242C31.8939 84.2784 31.8359 84.2137 31.7981 84.1299C31.7857 84.1213 31.7694 84.1104 31.7483 84.0967C31.7133 84.0741 31.6714 84.0482 31.6213 84.0166C31.572 83.9856 31.5167 83.9495 31.4563 83.9102C31.2148 83.7529 30.8959 83.5291 30.594 83.2285C29.986 82.6231 29.4363 81.6957 29.7073 80.3858L29.7092 80.377C29.8901 79.6318 30.1795 79.129 30.5354 78.8037C30.8933 78.4767 31.2981 78.3488 31.6721 78.3145C32.0413 78.2806 32.3866 78.3378 32.6311 78.3828C32.6538 78.387 32.6754 78.3898 32.6956 78.3936C32.4274 77.5925 31.9192 76.8623 30.4124 74.7862C28.747 72.4918 26.4224 69.8465 23.9788 67.0205C21.5395 64.1997 18.9856 61.2028 16.8792 58.2198C16.0415 57.0336 13.1588 52.9417 11.8909 48.1846C9.51927 39.285 14.1935 33.7773 16.6272 31.2998C23.8282 23.9692 33.1705 23.6021 41.9309 26.9375C46.447 22.719 52.2303 19.842 58.3997 18.5889ZM68.5393 22.5362C60.9777 21.7364 52.6108 24.0608 46.3792 28.9659C49.3535 30.5469 52.2059 32.5141 54.8206 34.7334C56.0205 35.7519 57.195 36.8491 58.3108 37.9991C62.2235 35.887 66.3565 34.6382 70.0647 34.7784C73.8372 34.9211 77.169 36.5025 79.3489 40.0508C79.6263 40.5024 81.529 43.4429 81.7776 49.0225C82.4099 63.2057 70.4682 71.7013 57.842 72.6182C47.6762 73.3565 37.3772 69.103 34.2883 58.8242C31.081 48.1508 32.8747 38.9917 37.552 32.0567C31.9723 30.6222 26.3468 31.1111 21.7405 34.9424C20.9424 35.6064 18.8117 37.5089 17.72 39.7686C16.0519 43.2216 16.8888 47.1728 20.1409 52.4766C21.293 54.3555 22.4768 56.28 26.6702 61.5264C29.0984 64.5644 31.5931 67.5599 33.5764 70.4551C35.521 73.2938 36.9927 76.0672 37.4299 78.7266C38.3005 79.0238 39.8101 79.5176 41.6497 80.0244C46.1653 81.2686 55.2942 83.3422 64.4524 82.8047C73.6122 82.2671 82.7389 79.1233 87.3625 69.9981C91.4499 61.9308 90.9292 51.471 89.7405 43.5284C88.385 34.4702 84.1037 30.0875 82.1204 28.3174C78.0625 24.6954 73.106 23.0192 68.5393 22.5362ZM41.8313 33.5235C38.0763 38.3732 36.0752 44.6845 37.2004 52.2198C37.4957 54.1969 38.1554 57.0041 38.928 58.7159C42.0662 65.668 50.8474 68.3167 59.0549 67.253C63.6727 66.6545 68.3586 64.8391 71.8225 61.8369C75.2805 58.8397 77.5227 54.6598 77.2747 49.3037C77.112 45.7933 76.0996 43.8631 75.8303 43.4034L75.7649 43.2959C74.435 41.0302 72.2363 40.1142 69.678 40.083C67.199 40.0529 64.4038 40.8577 61.8088 42.0606C63.5733 44.3952 64.9931 46.829 65.8254 49.2002C66.687 51.6547 66.9263 54.0589 66.2483 56.2159C65.6792 58.026 64.2486 60.0689 61.22 60.9395C60.5844 61.1221 58.1673 61.8274 53.4749 61.0616C52.5917 60.9174 50.9259 60.6069 49.3372 59.7676C47.7437 58.9258 46.2114 57.5429 45.635 55.2549C45.0036 52.7482 45.7714 50.1291 47.3108 47.6719C48.8031 45.2899 51.0367 43.0345 53.4944 41.1328C50.1816 38.1171 46.1166 35.3466 41.8313 33.5235ZM57.0764 44.8184C55.2421 46.121 53.6757 47.5381 52.4905 48.9043C51.2615 50.3211 50.4562 51.6646 50.1711 52.7539C50.0563 53.1927 50.0503 53.4782 50.1174 53.6973C50.1833 53.9121 50.3317 54.1028 50.6155 54.3262C50.849 54.5101 51.9926 55.4589 55.9573 55.7393C57.765 55.8671 59.1238 55.7251 60.0657 55.4307C61.0162 55.1336 61.4947 54.6984 61.6399 54.2774C61.7516 53.9532 61.7691 53.4746 61.6545 52.8487C61.5408 52.2273 61.3004 51.4818 60.9211 50.6367C60.1824 48.9906 58.9227 46.9867 57.0764 44.8184Z" fill="#F4F0E4" stroke="#F4F0E4" stroke-width="0.5"/>
<path d="M178.588 35.7042C179.698 35.7042 184.67 29.267 192.927 29.267C202.961 29.267 206.601 35.571 206.601 45.471C206.601 52.0414 205.535 59.766 205.535 63.0512C205.535 65.2709 206.201 67.5794 207.622 68.8225C209.176 70.2875 210.596 70.5983 210.596 72.7292C210.596 74.505 209.309 75.7036 206.512 75.7036C203.982 75.7036 201.274 75.4373 198.921 75.4373C195.68 75.4373 194.792 75.7036 191.462 75.7036C189.42 75.7036 188.621 74.4162 188.621 72.9068C188.621 70.8202 189.287 69.0888 189.687 67.979C190.574 65.4485 191.374 57.4131 191.374 50.3988C191.374 42.8517 189.198 39.5221 185.247 39.5221C183.205 39.5221 179.431 41.5198 179.431 47.2467C179.431 53.7727 179.298 59.766 179.298 63.0512C179.298 65.2709 179.476 67.4906 180.763 68.8225C182.228 70.2875 183.383 70.5983 183.383 72.7292C183.383 74.505 182.14 75.7036 179.343 75.7036C176.768 75.7036 174.814 75.4373 172.462 75.4373C169.221 75.4373 168.333 75.7036 165.003 75.7036C162.961 75.7036 162.162 74.4162 162.162 72.9068C162.162 70.8202 162.872 69.0888 163.227 67.979C164.115 65.4485 164.826 57.4131 164.826 50.3988C164.826 42.8517 162.65 39.5221 158.699 39.5221C156.524 39.5221 152.884 41.7862 152.884 46.936V61.6306C152.884 65.5373 153.106 67.0023 154.349 68.5561C155.592 70.1099 157.057 70.4651 157.057 72.7292C157.057 74.505 156.08 75.7036 153.372 75.7036C150.708 75.7036 148.222 75.4373 145.825 75.4373C142.673 75.4373 139.61 75.7036 136.147 75.7036C133.971 75.7036 133.172 74.4162 133.172 72.9068C133.172 70.7314 134.904 69.5328 135.658 68.6005C137.789 65.848 138.056 63.2288 138.056 60.9203V44.7606C138.056 41.875 136.502 40.6763 135.436 40.0992C134.682 39.6109 133.528 38.9894 133.528 37.4355C133.528 34.8607 136.902 34.4611 140.808 32.6853C145.869 30.3768 146.668 29.4001 148.267 29.4001C150.22 29.4001 151.33 30.1548 151.996 32.8185C152.306 34.2391 152.617 35.571 153.239 35.571C154.304 35.571 159.099 29.267 166.424 29.267C171.085 29.267 174.326 30.8652 176.59 33.662C177.611 34.9051 178.011 35.7042 178.588 35.7042Z" fill="#1E1E1E"/>
<path d="M250.979 51.7306C246.007 54.3055 236.64 55.4153 232.156 55.7705C231.313 55.8149 230.958 55.9925 230.958 56.614C230.958 59.4552 233.888 64.2055 241.08 64.2055C246.94 64.2055 250.358 61.4974 252.622 59.4108C253.244 58.9225 253.954 58.5673 254.487 58.5673C255.419 58.5673 255.996 59.4552 255.996 61.3642C255.996 67.6238 248.715 76.4583 236.107 76.4583C221.99 76.4583 213.599 67.0911 213.599 53.8615C213.599 40.632 223.055 29.267 237.439 29.267C250.491 29.267 255.197 39.1225 255.197 45.249C255.197 48.5342 253.466 50.4431 250.979 51.7306ZM241.124 42.7629C241.124 39.5221 238.993 37.036 235.885 37.036C231.579 37.036 228.871 41.4754 228.871 45.9593C228.871 47.8683 229.493 48.9781 230.824 48.9781C233.089 48.9781 238.283 47.6907 240.28 45.249C240.858 44.5387 241.124 43.784 241.124 42.7629Z" fill="#1E1E1E"/>
<path d="M279.02 13.2849C279.02 18.9674 278.621 18.923 278.621 31.753V61.6306C278.621 65.5373 279.287 67.0023 280.618 68.5561C281.906 70.1099 283.46 70.4651 283.46 72.7292C283.46 74.505 282.527 75.7036 279.686 75.7036C277.067 75.7036 273.693 75.4373 271.251 75.4373C268.01 75.4373 265.08 75.7036 261.529 75.7036C259.309 75.7036 258.466 74.4162 258.466 72.9068C258.466 70.7314 260.241 69.5328 261.085 68.6005C263.26 65.848 263.482 63.2288 263.482 60.9203V25.3158C263.482 22.9185 261.795 21.6311 260.685 21.0096C259.709 20.388 258.821 19.7665 258.821 18.4347C258.821 16.0818 262.061 15.5934 266.057 13.9508C270.541 12.1751 273.693 10.1773 275.868 10.1773C277.688 10.1773 279.02 11.1096 279.02 13.2849Z" fill="#1E1E1E"/>
<path d="M327.08 43.1624C324.683 49.644 321.531 58.2566 319.533 62.8292C312.385 79.9655 307.102 94.9709 295.649 94.9709C290.321 94.9709 286.281 91.4637 286.281 86.1364C286.281 81.4749 289.3 77.9678 293.029 77.9678C294.85 77.9678 296.048 78.8556 296.981 79.8767C298.357 81.3417 299.289 83.0287 300.843 83.0287C302.219 83.0287 304.217 80.8534 304.217 78.7225C304.217 75.7036 299.067 65.3153 296.403 58.8337C294.406 54.0391 288.59 40.2768 286.059 37.6575C284.639 36.1037 283.396 34.8607 283.396 32.8629C283.396 31.0871 284.506 29.8885 286.725 29.8885C289.567 29.8885 291.698 30.1548 294.628 30.1548C297.424 30.1548 300.532 29.8885 303.551 29.8885C305.771 29.8885 307.014 30.5544 307.014 33.3069C307.014 35.0382 304.705 36.2813 304.705 38.9006C304.705 40.4988 305.682 43.3844 307.99 48.8005C310.033 53.6395 311.586 57.6795 312.252 57.6795C313.318 57.6795 315.094 51.553 316.781 46.0925C317.846 42.9405 318.068 41.5642 318.068 40.6763C318.068 36.5477 314.605 35.349 314.605 32.7741C314.605 30.9539 315.893 29.8885 317.535 29.8885C319.755 29.8885 322.641 30.1548 324.683 30.1548C326.947 30.1548 328.545 29.8885 330.099 29.8885C332.407 29.8885 333.029 31.0871 333.029 32.5521C333.029 36.0593 329.966 35.349 327.08 43.1624Z" fill="#1E1E1E"/>
<path d="M345.693 51.1091C351.02 49.2001 356.259 48.6674 357.635 47.6019C358.257 47.1136 358.834 46.0481 358.834 42.9405C358.834 38.9006 357.014 35.9705 353.507 35.9705C350.488 35.9705 348.49 38.5898 347.158 43.0737C346.359 45.6929 345.205 47.7351 341.831 47.7351C338.19 47.7351 335.127 45.249 335.127 40.5432C335.127 34.9938 341.698 29.1782 353.551 29.1782C364.25 29.1782 374.106 33.662 374.106 46.8916C374.106 52.4409 373.662 56.6584 373.662 61.5862C373.662 63.1844 374.15 65.1377 376.192 65.1377C376.947 65.1377 377.435 64.8714 378.101 64.8714C378.678 64.8714 379.078 65.7593 379.078 66.7803C379.078 72.2853 374.372 76.2808 368.556 76.2808C364.028 76.2808 361.542 74.727 360.033 72.1077C359.811 71.7525 359.544 71.3086 359.189 71.3086C358.79 71.3086 358.434 71.7081 358.079 72.0633C355.416 74.5494 350.843 76.5027 346.492 76.5027C339.034 76.5027 333.263 72.7292 333.263 65.2709C333.263 58.2566 338.013 53.9503 345.693 51.1091ZM358.967 58.8337C358.967 55.6817 358.656 55.1046 358.212 55.1046C356.703 55.1046 355.105 55.4597 353.507 56.17C350.621 57.3687 348.446 59.6772 348.446 62.4741C348.446 64.7382 349.911 66.6028 352.619 66.6028C357.014 66.6028 358.967 62.918 358.967 58.8337Z" fill="#1E1E1E"/>
</svg>
